<?xml version="1.0" encoding="utf-8"?>
<!-- Generator: Adobe Illustrator 27.4.1, SVG Export Plug-In . SVG Version: 6.00 Build 0)  -->
<svg version="1.0" id="Layer_1" xmlns="http://www.w3.org/2000/svg" xmlns:xlink="http://www.w3.org/1999/xlink" x="0px" y="0px"
	 viewBox="0 0 68 36" style="enable-background:new 0 0 68 36;" xml:space="preserve">
<style type="text/css">
	.st0{fill-rule:evenodd;clip-rule:evenodd;fill:#FFFFFF;}
	.st1{fill-rule:evenodd;clip-rule:evenodd;fill:#F9A425;}
	.st2{fill:#902634;}
	.st3{fill-rule:evenodd;clip-rule:evenodd;fill:#4FB74A;}
	.st4{fill-rule:evenodd;clip-rule:evenodd;fill:#FFF112;}
	.st5{fill-rule:evenodd;clip-rule:evenodd;fill:#802926;}
</style>
<g>
	<path class="st0" d="M4.3,0H63.7c2.3,0,4.18,1.88,4.18,4.17v27.66C67.88,34.12,66,36,63.7,36H4.3c-2.3,0-4.18-1.88-4.18-4.17V4.17
		C0.12,1.88,2,0,4.3,0"/>
	<path class="st1" d="M14.93,8.95c3.8,0,6.89,3.16,6.89,7.06s-3.08,7.06-6.89,7.06c-3.8,0-6.89-3.16-6.89-7.06
		S11.13,8.95,14.93,8.95 M16.46,4.17L16.43,5.9c0.73,0.11,1.44,0.31,2.11,0.57l0.84-1.51l2.66,1.57l-0.87,1.49
		c0.56,0.46,1.08,0.99,1.53,1.56l0.01,0.01l1.47-0.87l1.53,2.72l-1.48,0.84c0.26,0.69,0.45,1.41,0.57,2.15l0,0l1.7,0v3.14
		l-1.69-0.03c-0.11,0.75-0.3,1.47-0.56,2.16l1.47,0.86l-1.53,2.72l-1.45-0.9c-0.45,0.58-0.96,1.1-1.52,1.57l-0.01,0.01l0.85,1.5
		l-2.66,1.57l-0.82-1.52c-0.67,0.27-1.37,0.46-2.1,0.58l0,0l0,1.74H13.4l0.03-1.73c-0.73-0.11-1.44-0.31-2.11-0.57l-0.84,1.51
		l-2.66-1.57L8.7,24c-0.56-0.46-1.08-0.99-1.53-1.56l-0.01-0.01l-1.47,0.87l-1.53-2.72l1.48-0.84c-0.26-0.69-0.45-1.41-0.57-2.15
		l0,0l-1.7,0v-3.14l1.69,0.03c0.11-0.75,0.3-1.47,0.56-2.16l-1.47-0.86l1.53-2.72l1.45,0.9c0.45-0.58,0.96-1.1,1.52-1.57l0.01-0.01
		l-0.85-1.5l2.66-1.57l0.82,1.52c0.67-0.27,1.37-0.46,2.1-0.58l0,0l0-1.74H16.46z"/>
	<path class="st2" d="M14.93,8.95c3.8,0,6.89,3.16,6.89,7.06s-3.08,7.06-6.89,7.06c-3.8,0-6.89-3.16-6.89-7.06
		S11.13,8.95,14.93,8.95"/>
	<path class="st3" d="M14.95,23.1l-0.29-0.01c-0.5-4.12-1.84-8.99-4.38-12.29l0.15-0.12C13,14.01,14.33,18.68,14.95,23.1"/>
	<path class="st4" d="M8.83,9.15c1.2,0.2,1.71,0.66,1.64,1.74C9.38,10.87,8.92,10.29,8.83,9.15"/>
	<path class="st4" d="M10.32,11.36c-0.23-0.07-0.45-0.07-0.73-0.05c0.33,0.51,0.7,0.9,1.25,1.16c0.24,0.11,0.45,0.14,0.61,0.07
		c0.15-0.07,0.22-0.21,0.25-0.38c0.15-0.79-0.22-1.3-0.53-1.95c-0.23,0.41-0.16,1.11-0.12,1.58C10.8,11.66,10.6,11.44,10.32,11.36"
		/>
	<path class="st4" d="M11.59,13.56c-0.23-0.1-0.45-0.13-0.74-0.15c0.27,0.57,0.59,1.02,1.12,1.36c0.23,0.15,0.44,0.21,0.62,0.15
		c0.16-0.05,0.25-0.18,0.31-0.35c0.26-0.79-0.05-1.36-0.28-2.07c-0.29,0.39-0.31,1.11-0.33,1.6C12.04,13.94,11.87,13.69,11.59,13.56
		"/>
	<path class="st4" d="M12.51,15.46c-0.23-0.15-0.47-0.2-0.78-0.25c0.25,0.71,0.56,1.29,1.11,1.75c0.24,0.2,0.45,0.29,0.65,0.24
		c0.17-0.05,0.28-0.2,0.35-0.4c0.33-0.94,0.03-1.66-0.16-2.54c-0.34,0.45-0.4,1.33-0.46,1.92C12.96,15.96,12.8,15.64,12.51,15.46"/>
	<path class="st4" d="M13.27,18.03c-0.24-0.15-0.48-0.21-0.79-0.26c0.25,0.73,0.57,1.33,1.13,1.8c0.24,0.21,0.46,0.3,0.66,0.25
		c0.18-0.05,0.29-0.21,0.36-0.41c0.34-0.96,0.04-1.7-0.15-2.6c-0.35,0.46-0.42,1.36-0.48,1.96C13.73,18.55,13.56,18.22,13.27,18.03"
		/>
	<path class="st3" d="M14.95,23.1l0.29-0.01c0.5-4.12,1.84-8.99,4.38-12.29l-0.15-0.12C16.9,14.01,15.57,18.68,14.95,23.1"/>
	<path class="st4" d="M21.08,9.15c-1.2,0.2-1.71,0.66-1.64,1.74C20.53,10.87,20.99,10.29,21.08,9.15"/>
	<path class="st4" d="M19.59,11.36c0.23-0.07,0.45-0.07,0.73-0.05c-0.33,0.51-0.7,0.9-1.25,1.16c-0.24,0.11-0.45,0.14-0.61,0.07
		c-0.15-0.07-0.22-0.21-0.25-0.38c-0.15-0.79,0.22-1.3,0.53-1.95c0.23,0.41,0.16,1.11,0.12,1.58C19.11,11.66,19.3,11.44,19.59,11.36
		"/>
	<path class="st4" d="M18.31,13.56c0.23-0.1,0.45-0.13,0.74-0.15c-0.27,0.57-0.59,1.02-1.12,1.36c-0.23,0.15-0.44,0.21-0.62,0.15
		c-0.16-0.05-0.25-0.18-0.31-0.35c-0.26-0.79,0.05-1.36,0.28-2.07c0.29,0.39,0.31,1.11,0.33,1.6
		C17.86,13.94,18.03,13.69,18.31,13.56"/>
	<path class="st4" d="M17.4,15.46c0.23-0.15,0.47-0.2,0.78-0.25c-0.25,0.71-0.56,1.29-1.11,1.75c-0.24,0.2-0.45,0.29-0.65,0.24
		c-0.17-0.05-0.28-0.2-0.35-0.4c-0.33-0.94-0.03-1.66,0.16-2.54c0.34,0.45,0.4,1.33,0.46,1.92C16.95,15.96,17.11,15.64,17.4,15.46"
		/>
	<path class="st4" d="M16.64,18.03c0.24-0.15,0.48-0.21,0.79-0.26c-0.25,0.73-0.57,1.33-1.13,1.8c-0.24,0.21-0.46,0.3-0.66,0.25
		c-0.18-0.05-0.29-0.21-0.36-0.41c-0.34-0.96-0.04-1.7,0.15-2.6c0.35,0.46,0.42,1.36,0.48,1.96C16.18,18.55,16.34,18.22,16.64,18.03
		"/>
	<path class="st0" d="M14.97,14.22c-0.29,0.01-0.55-0.2-0.53-0.68c0.6,0.2,0.47,0.2,1.07,0C15.52,14.02,15.26,14.23,14.97,14.22
		 M14.54,12.32c0.06-0.42,0.12-1.73,0.41-1.7c0.29-0.03,0.34,1.27,0.4,1.7C14.8,12.13,15.09,12.13,14.54,12.32z M20.18,20.91
		l1.58-0.01l-1.58-6.16L20.18,20.91z M18.12,20.93l1.73-0.01l-0.01-6.18L18.12,20.93z M9.73,20.91l0-6.18L8.15,20.9L9.73,20.91z
		 M11.78,20.93l-1.73-6.2v6.18L11.78,20.93z M17.03,20.93l0.71-0.01c0.72-2.46,1.45-4.93,2.17-7.39c0-0.09,0-0.17,0-0.26
		c-0.76,0-3.59-0.11-4.17,0.19c0.08,0.58-0.17,1.07-0.77,1.1c-0.6-0.03-0.85-0.52-0.77-1.1c-0.54-0.31-3.47-0.19-4.2-0.19
		c0,0.09,0,0.17,0,0.26l2.17,7.39l0.71,0.01c0.03,0.73-0.58,1.4-0.94,1.65c-1.98,1.37-4.9,0.23-4.91-1.7l0.76,0.01
		c0.67-2.45,1.34-4.9,2.01-7.35c0-0.08,0-0.17,0-0.25c-0.16,0-0.32,0-0.49,0c-0.56,0-0.46-0.66-0.03-0.66c0.78,0,4.4,0.1,4.94-0.22
		l0.25-2.19c0.08-0.02,0.2,0,0.25-0.06c0.07-0.08,0.03-0.31-0.02-0.38c-0.06-0.09-0.15-0.14-0.16-0.27
		c-0.03-0.22,0.11-0.31,0.21-0.41c0.08-0.07,0.07-0.08,0.07-0.21c-0.17-0.01-0.43-0.05-0.5-0.23c0.04-0.12,0.17-0.18,0.3-0.23
		l0.02-0.05c0.05-0.15,0.15-0.24,0.31-0.3c0.16,0.06,0.26,0.16,0.31,0.3l0.02,0.05c0.13,0.05,0.26,0.11,0.3,0.23
		c-0.07,0.17-0.33,0.21-0.5,0.23c0,0.13-0.01,0.14,0.07,0.21c0.09,0.1,0.23,0.19,0.21,0.41c-0.02,0.14-0.11,0.19-0.16,0.27
		c-0.05,0.08-0.08,0.3-0.02,0.38c0.05,0.06,0.17,0.04,0.25,0.06c0.08,0.73,0.17,1.46,0.25,2.19c0.51,0.35,4.08,0.22,4.85,0.22
		c0.44,0,0.47,0.66,0.04,0.66c-0.15,0-0.3,0-0.46,0c0,0.08,0,0.17,0,0.25l2.01,7.35l0.76-0.01c-0.01,1.93-2.93,3.07-4.91,1.7
		C17.61,22.33,17,21.67,17.03,20.93z"/>
	<path class="st3" d="M14.17,24.68c0.17-2.74-2.61-6.91-5.74-5.47c-0.46,0.21-0.84,0.5-1.01,1.02c-0.05,0.15-0.19,0.28-0.23,0.01
		c-0.05-0.32,0.02-0.61,0.16-0.86c0.45-0.85,1.51-1.36,2.37-1.35c1.15,0.02,2.11,0.62,2.86,1.41c1.34,1.4,2.09,3.45,2.01,5.24
		L14.17,24.68z"/>
	<path class="st3" d="M15.74,24.68c-0.17-2.74,2.61-6.91,5.74-5.47c0.46,0.21,0.84,0.5,1.01,1.02c0.05,0.15,0.19,0.28,0.23,0.01
		c0.05-0.32-0.02-0.61-0.16-0.86c-0.45-0.85-1.51-1.36-2.37-1.35c-1.15,0.02-2.11,0.62-2.86,1.41c-1.34,1.4-2.09,3.45-2.01,5.24
		L15.74,24.68z"/>
	<polygon class="st5" points="13.55,25.05 13.46,24.86 14.95,23.45 16.45,24.86 16.36,25.05 14.95,25.05 	"/>
	<path class="st2" d="M26.57,32h-0.3v-1.71h0.3V32z M25.63,32h-0.3v-1.71h0.3V32z M24.7,31.67c0,0.05-0.02,0.1-0.06,0.14
		c-0.04,0.04-0.08,0.06-0.13,0.06c-0.05,0-0.09-0.02-0.13-0.06c-0.04-0.04-0.05-0.09-0.05-0.14c0-0.05,0.02-0.1,0.05-0.14
		c0.04-0.04,0.08-0.06,0.13-0.06c0.05,0,0.09,0.02,0.13,0.06C24.68,31.58,24.7,31.62,24.7,31.67z M24.7,30.95
		c0,0.06-0.02,0.1-0.05,0.15c-0.04,0.04-0.08,0.06-0.13,0.06c-0.05,0-0.09-0.02-0.13-0.06c-0.04-0.04-0.05-0.09-0.05-0.15
		c0-0.05,0.02-0.09,0.05-0.13c0.04-0.04,0.08-0.06,0.13-0.06c0.05,0,0.09,0.02,0.13,0.06C24.68,30.86,24.7,30.9,24.7,30.95z
		 M23.88,30.45h-0.27c-0.1-0.17-0.22-0.3-0.36-0.38c-0.1-0.06-0.21-0.08-0.34-0.08l0.08-0.3c0.01,0,0.02,0,0.03,0
		c0.15,0,0.3,0.08,0.46,0.22C23.63,30.04,23.77,30.22,23.88,30.45z M24.13,30.75h-0.24V32h-0.33v-1.25h-0.24v-0.29h0.81V30.75z
		 M23.39,30.75h-0.24V32h-0.33v-0.77c-0.08-0.03-0.18-0.04-0.3-0.04c-0.09,0-0.17,0.02-0.22,0.05c-0.06,0.04-0.09,0.09-0.09,0.16
		c0,0.12,0.06,0.2,0.19,0.24c0.1,0.03,0.19,0.04,0.28,0.01L22.5,32c-0.18-0.02-0.33-0.08-0.45-0.2c-0.12-0.11-0.18-0.24-0.18-0.39
		c0-0.15,0.05-0.27,0.15-0.37c0.11-0.1,0.26-0.15,0.45-0.15c0.1,0,0.21,0.02,0.35,0.05v-0.19h-1.08v-0.29h1.65V30.75z M21.53,30.45
		h-0.27c-0.1-0.17-0.22-0.3-0.36-0.38c-0.1-0.06-0.21-0.08-0.34-0.08l0.08-0.3c0.01,0,0.02,0,0.03,0c0.15,0,0.3,0.08,0.46,0.22
		C21.28,30.04,21.41,30.22,21.53,30.45z M21.78,30.75h-0.28v0.37h-0.42c-0.05,0-0.08,0.01-0.1,0.02c-0.02,0.01-0.03,0.04-0.03,0.07
		c0,0.02,0.01,0.04,0.02,0.06c0.01,0.02,0.03,0.04,0.05,0.06c0.03-0.01,0.08-0.02,0.14-0.02c0.13,0,0.24,0.02,0.33,0.07
		c0.11,0.06,0.17,0.16,0.17,0.29c0,0.09-0.04,0.17-0.11,0.24c-0.07,0.07-0.16,0.11-0.26,0.13l-0.12-0.19
		c0.05-0.01,0.09-0.04,0.12-0.07c0.03-0.03,0.05-0.06,0.05-0.1c0-0.05-0.02-0.08-0.05-0.1c-0.03-0.01-0.07-0.02-0.12-0.02
		c-0.08,0-0.15,0.02-0.2,0.06c-0.07,0.05-0.11,0.13-0.11,0.22c0,0.12,0.05,0.21,0.14,0.28c0.1,0.07,0.23,0.11,0.39,0.11v0.24
		c-0.26,0-0.47-0.06-0.63-0.17c-0.16-0.12-0.24-0.27-0.24-0.46c0-0.09,0.02-0.18,0.07-0.25c0.04-0.07,0.1-0.12,0.17-0.15
		c-0.04-0.06-0.08-0.11-0.1-0.17c-0.02-0.06-0.04-0.11-0.04-0.17c0-0.06,0.03-0.11,0.08-0.15c0.06-0.04,0.12-0.06,0.2-0.06h0.28
		v-0.14h-0.81v-0.29h1.39V30.75z M20.45,30.75h-0.87v0.14c0.09-0.03,0.16-0.05,0.22-0.05c0.15,0,0.27,0.05,0.37,0.14
		c0.1,0.09,0.15,0.21,0.15,0.34c0,0.17-0.06,0.31-0.19,0.4c-0.13,0.1-0.28,0.13-0.45,0.1v-0.3c0.08,0.01,0.15,0,0.2-0.03
		c0.05-0.04,0.08-0.09,0.08-0.17c0-0.06-0.02-0.1-0.05-0.13c-0.04-0.03-0.09-0.05-0.17-0.05c-0.04,0-0.07,0.01-0.11,0.03
		c-0.02,0.01-0.04,0.03-0.06,0.06V32h-0.34v-0.25c-0.06,0.03-0.14,0.05-0.24,0.05c-0.14,0-0.27-0.04-0.36-0.13
		c-0.1-0.09-0.15-0.21-0.15-0.36c0-0.14,0.05-0.25,0.16-0.33c0.1-0.07,0.22-0.11,0.36-0.11c0.02,0,0.06,0,0.13,0.01l0.09,0.31
		c-0.09-0.02-0.15-0.04-0.18-0.04c-0.07,0-0.12,0.02-0.16,0.04c-0.05,0.03-0.07,0.08-0.07,0.14c0,0.05,0.02,0.1,0.07,0.13
		c0.04,0.03,0.09,0.05,0.14,0.05c0.07,0,0.14-0.02,0.21-0.07v-0.7h-0.88v-0.29h2.09V30.75z M18.15,30.45h-0.27
		c-0.1-0.17-0.22-0.3-0.36-0.38c-0.1-0.06-0.21-0.08-0.34-0.08l0.08-0.3c0.01,0,0.02,0,0.03,0c0.15,0,0.3,0.08,0.46,0.22
		C17.9,30.04,18.03,30.22,18.15,30.45z M18.4,30.75h-0.24V32h-0.33v-1.25h-0.24v-0.29h0.81V30.75z M16.94,32.06
		c-0.04,0-0.09,0-0.16-0.02c-0.03,0-0.05-0.01-0.06-0.01l0.04-0.32c0.02,0.02,0.04,0.03,0.08,0.04c0.03,0.01,0.07,0.02,0.11,0.02
		c0.07,0,0.11-0.02,0.14-0.07c0.03-0.05,0.05-0.14,0.05-0.27c0-0.09-0.01-0.16-0.03-0.19c-0.03-0.04-0.08-0.06-0.15-0.06
		c-0.05,0-0.1,0.03-0.13,0.09c-0.03,0.06-0.05,0.13-0.04,0.21h-0.33c0.01-0.06,0.02-0.12,0-0.18c-0.02-0.08-0.07-0.13-0.14-0.13
		c-0.06,0-0.11,0.02-0.15,0.06c-0.04,0.04-0.06,0.11-0.06,0.19c0,0.13,0.02,0.22,0.05,0.27c0.03,0.05,0.08,0.07,0.14,0.07
		c0.04,0,0.08-0.01,0.11-0.02c0.03-0.01,0.06-0.02,0.08-0.04l0.03,0.32c-0.01,0-0.03,0.01-0.05,0.01c-0.07,0.01-0.12,0.02-0.16,0.02
		c-0.18-0.01-0.32-0.06-0.42-0.17c-0.09-0.1-0.14-0.24-0.14-0.43c0-0.17,0.05-0.31,0.15-0.41c0.1-0.11,0.22-0.16,0.36-0.16
		c0.09,0,0.17,0.02,0.24,0.05c0.05,0.02,0.08,0.06,0.11,0.1c0.02-0.03,0.05-0.07,0.11-0.1c0.03-0.02,0.06-0.03,0.11-0.04l0.01,0
		v-0.15H15.6v-0.29h2.05v0.29h-0.5v0.16c0.09,0.02,0.16,0.06,0.21,0.12c0.09,0.09,0.13,0.23,0.13,0.4c0,0.19-0.05,0.34-0.14,0.44
		C17.26,31.99,17.12,32.05,16.94,32.06z M15.04,32.58l-0.15,0.15l-0.47-0.41l0.19-0.19L15.04,32.58z M13.71,31.44v-0.11H13.6
		c-0.02,0.01-0.03,0.02-0.05,0.03c-0.01,0.02-0.02,0.03-0.02,0.05c0,0.05,0.01,0.08,0.02,0.1c0.01,0.01,0.03,0.02,0.06,0.02
		c0.03,0,0.06-0.01,0.07-0.02C13.71,31.49,13.71,31.47,13.71,31.44z M14.43,31.04v-0.3h-0.39v0.3H14.43z M15.01,30.75h-0.24V32
		h-0.34v-0.66h-0.39v0.11c0,0.1-0.03,0.18-0.08,0.24c-0.07,0.08-0.18,0.11-0.33,0.11c-0.12,0-0.21-0.03-0.29-0.1
		c-0.08-0.07-0.12-0.17-0.12-0.3c0-0.12,0.04-0.22,0.12-0.28c0.06-0.05,0.14-0.08,0.22-0.08h0.15v-0.3h-0.6v-0.29h1.91V30.75z
		 M13.16,30.75h-0.28v0.37h-0.42c-0.05,0-0.08,0.01-0.1,0.02c-0.02,0.01-0.03,0.04-0.03,0.07c0,0.02,0.01,0.04,0.02,0.06
		c0.01,0.02,0.03,0.04,0.05,0.06c0.03-0.01,0.08-0.02,0.14-0.02c0.13,0,0.24,0.02,0.33,0.07c0.11,0.06,0.17,0.16,0.17,0.29
		c0,0.09-0.04,0.17-0.11,0.24c-0.07,0.07-0.16,0.11-0.26,0.13l-0.12-0.19c0.05-0.01,0.09-0.04,0.12-0.07
		c0.03-0.03,0.05-0.06,0.05-0.1c0-0.05-0.02-0.08-0.05-0.1c-0.03-0.01-0.07-0.02-0.12-0.02c-0.08,0-0.15,0.02-0.2,0.06
		c-0.07,0.05-0.11,0.13-0.11,0.22c0,0.12,0.05,0.21,0.14,0.28c0.1,0.07,0.23,0.11,0.39,0.11v0.24c-0.26,0-0.47-0.06-0.63-0.17
		c-0.16-0.12-0.24-0.27-0.24-0.46c0-0.09,0.02-0.18,0.07-0.25c0.04-0.07,0.1-0.12,0.17-0.15c-0.04-0.06-0.08-0.11-0.1-0.17
		c-0.02-0.06-0.04-0.11-0.04-0.17c0-0.06,0.03-0.11,0.08-0.15c0.06-0.04,0.12-0.06,0.2-0.06h0.28v-0.14h-0.81v-0.29h1.39V30.75z
		 M11.71,31.51c0,0.17-0.06,0.29-0.18,0.38c-0.11,0.08-0.27,0.13-0.48,0.13c-0.14,0-0.27-0.03-0.39-0.11
		c-0.11-0.07-0.19-0.16-0.23-0.27l0.26-0.23c0.02,0.09,0.06,0.17,0.13,0.24c0.07,0.06,0.15,0.09,0.23,0.09
		c0.09,0,0.16-0.02,0.22-0.05c0.07-0.04,0.1-0.1,0.1-0.18c0-0.11-0.12-0.2-0.37-0.26c-0.31-0.07-0.46-0.2-0.46-0.37
		c0-0.15,0.06-0.26,0.18-0.33c0.1-0.06,0.23-0.09,0.39-0.09c0.1-0.01,0.2,0.01,0.28,0.04c0.09,0.03,0.16,0.08,0.21,0.14l-0.22,0.2
		l-0.01-0.01c-0.09-0.07-0.17-0.11-0.26-0.11c-0.06,0-0.11,0.01-0.14,0.02c-0.05,0.02-0.08,0.06-0.08,0.1
		c0,0.09,0.11,0.17,0.33,0.23C11.55,31.16,11.71,31.31,11.71,31.51z M10.14,30.45H9.87c-0.1-0.17-0.22-0.3-0.36-0.38
		c-0.1-0.06-0.21-0.08-0.34-0.08l0.08-0.3c0.01,0,0.02,0,0.03,0c0.15,0,0.3,0.08,0.46,0.22C9.89,30.04,10.02,30.22,10.14,30.45z
		 M9.81,31.45v-0.71H9.56v0.35c-0.09-0.02-0.17-0.04-0.23-0.03l-0.06,0c-0.14,0-0.21,0.03-0.21,0.07c0,0.02,0.01,0.04,0.02,0.05
		c0.01,0.01,0.02,0.02,0.03,0.02c0.07-0.03,0.14-0.04,0.21-0.04l0.11,0l0.08,0l0.05,0.27l-0.06-0.01c-0.07-0.01-0.11-0.02-0.14-0.02
		c-0.08,0-0.13,0.01-0.17,0.02c-0.06,0.02-0.08,0.06-0.08,0.12c0,0.05,0.02,0.08,0.06,0.1c0.03,0.01,0.08,0.02,0.14,0.02
		c0.08,0,0.17-0.02,0.25-0.06C9.65,31.58,9.73,31.52,9.81,31.45z M10.39,30.75h-0.24V32H9.81V31.8c-0.17,0.09-0.34,0.14-0.49,0.14
		c-0.13,0-0.26-0.03-0.36-0.1c-0.12-0.07-0.18-0.16-0.18-0.28c0-0.05,0.01-0.09,0.04-0.14c0.02-0.03,0.05-0.06,0.08-0.09
		c-0.04-0.02-0.07-0.05-0.1-0.08c-0.03-0.04-0.05-0.08-0.05-0.14c0-0.13,0.07-0.23,0.21-0.28c0.09-0.03,0.2-0.04,0.32-0.03v-0.07
		H8.59v-0.29h1.8V30.75z M8.07,31.32v-0.57H7.29c0.02,0.03,0.04,0.06,0.06,0.1c0.02,0.04,0.03,0.08,0.03,0.12
		c0,0.14-0.05,0.25-0.16,0.32c-0.07,0.05-0.15,0.07-0.25,0.09c0.01,0.08,0.04,0.14,0.09,0.19c0.07,0.08,0.17,0.12,0.29,0.12
		c0.07,0,0.13-0.01,0.17-0.04c0.03-0.02,0.05-0.04,0.07-0.07c-0.06-0.04-0.11-0.09-0.14-0.15c-0.03-0.06-0.05-0.13-0.05-0.2
		c0-0.16,0.06-0.28,0.18-0.36c0.09-0.05,0.19-0.08,0.32-0.08l0.11,0l0.03,0.27l-0.14,0c-0.05,0-0.09,0.01-0.12,0.03
		c-0.04,0.03-0.05,0.06-0.05,0.11c0,0.05,0.02,0.09,0.07,0.11c0.04,0.02,0.08,0.03,0.13,0.03C7.96,31.36,8.01,31.35,8.07,31.32z
		 M8.65,30.75H8.41V32H8.07v-0.36c-0.03,0.01-0.06,0.02-0.08,0.02c-0.02,0-0.06,0.01-0.11,0.01l-0.02,0
		c-0.02,0.07-0.06,0.14-0.13,0.19C7.63,31.95,7.49,32,7.32,32c-0.23,0-0.4-0.08-0.53-0.25c-0.07-0.1-0.12-0.22-0.14-0.35L6.5,31.37
		v-0.32c0.09,0.05,0.18,0.08,0.25,0.08c0.08,0,0.14-0.01,0.18-0.03c0.06-0.03,0.1-0.08,0.1-0.16c0-0.04-0.01-0.08-0.04-0.12
		c-0.02-0.03-0.04-0.05-0.07-0.07H6.4v-0.29h2.25V30.75z M7.73,30.44H7.37c-0.21-0.15-0.41-0.26-0.59-0.34
		c-0.18-0.08-0.33-0.12-0.46-0.12c-0.09,0-0.15,0.02-0.19,0.07c-0.03,0.04-0.05,0.09-0.05,0.16c0,0.04,0.01,0.09,0.03,0.13
		c0.02,0.04,0.04,0.08,0.07,0.11h0.28v0.29H6.22V32H5.89v-1.25H5.65v-0.29h0.17c-0.05-0.08-0.08-0.18-0.08-0.28
		c0-0.13,0.05-0.24,0.15-0.32c0.1-0.08,0.23-0.12,0.39-0.12c0.2,0,0.43,0.06,0.68,0.19C7.21,30.03,7.47,30.21,7.73,30.44z M4.84,32
		h-0.3v-1.71h0.3V32z M3.9,32H3.6v-1.71h0.3V32z"/>
	<path class="st2" d="M31.01,7.91h5.88c0.56,0,1.02,0.47,1.02,1.05v3.31v3.63c0,0.01,0,0.02,0,0.03c0,0.01,0,0.02,0,0.03
		c0,0.01,0,0.02,0,0.03c0,0.01,0,0.02,0,0.03l0,0.03c0,0.01,0,0.02,0,0.03l0,0.03l-0.01,0.03c0,0.01,0,0.02-0.01,0.03
		c0,0.01,0,0.02-0.01,0.02l-0.01,0.02l-0.01,0.02l-0.01,0.02l-0.01,0.02v0c0,0.01-0.01,0.02-0.01,0.02l-0.01,0.02
		c-0.01,0.02-0.02,0.05-0.03,0.07l-0.01,0.02l-0.01,0.02c-0.03,0.06-0.07,0.11-0.11,0.16c-0.02,0.02-0.03,0.04-0.05,0.06
		c-0.02,0.02-0.04,0.03-0.05,0.05c-0.05,0.04-0.1,0.08-0.16,0.12l-0.02,0.01c-0.03,0.02-0.06,0.03-0.09,0.04l-0.02,0.01v0
		c-0.02,0.01-0.03,0.01-0.05,0.02c-0.02,0.01-0.03,0.01-0.05,0.02c-0.01,0-0.02,0-0.02,0.01c-0.01,0-0.02,0-0.02,0.01
		c-0.01,0-0.02,0-0.02,0.01v0l-0.03,0c-0.01,0-0.02,0-0.03,0c-0.02,0-0.03,0.01-0.05,0.01c-0.01,0-0.02,0-0.03,0
		c-0.01,0-0.02,0-0.03,0v0l-0.03,0c-0.01,0-0.02,0-0.03,0h-6.77c-0.01,0-0.02,0-0.03,0c-0.01,0-0.02,0-0.03,0v0
		c-0.01,0-0.02,0-0.03,0c-0.01,0-0.02,0-0.03,0c-0.02,0-0.03,0-0.05-0.01c-0.01,0-0.02,0-0.03,0l-0.03,0v0c-0.01,0-0.02,0-0.02-0.01
		c-0.01,0-0.02,0-0.02-0.01c-0.01,0-0.02,0-0.02-0.01c-0.02,0-0.03-0.01-0.05-0.02c-0.02-0.01-0.03-0.01-0.05-0.02v0l-0.02-0.01
		c-0.01,0-0.02-0.01-0.02-0.01c-0.02-0.01-0.04-0.02-0.07-0.03l-0.02-0.01c-0.04-0.03-0.08-0.05-0.12-0.08l-0.02-0.02l-0.02-0.02
		c-0.01-0.01-0.02-0.02-0.04-0.03l-0.02-0.02c-0.01-0.01-0.02-0.02-0.03-0.04v0l-0.02-0.02c-0.02-0.02-0.03-0.04-0.05-0.06
		l-0.01-0.02l-0.01-0.02l-0.01-0.02l-0.01-0.02l-0.01-0.02l-0.01-0.02l-0.01-0.02c-0.01-0.02-0.02-0.05-0.03-0.07l-0.01-0.02
		l-0.01-0.02v0l-0.01-0.02c0-0.01-0.01-0.02-0.01-0.02l-0.01-0.02c0-0.01,0-0.02-0.01-0.02c0-0.01,0-0.02-0.01-0.02l-0.01-0.03
		l0-0.03l0-0.03c0-0.01,0-0.02,0-0.03c0-0.01,0-0.02,0-0.03c0-0.01,0-0.02,0-0.03l0-0.03l0-0.03c0-0.01,0-0.02,0-0.03v-2.91v-0.72
		c0-0.58,0.46-1.05,1.02-1.05h4.52v1.17h-3.78c-0.28,0-0.52,0.24-0.52,0.53v0.06v2.16c0,0.29,0.23,0.53,0.52,0.53h5.3
		c0.28,0,0.52-0.24,0.52-0.53v-2.22v0v0c0-0.03,0-0.07-0.01-0.1v-1.6h0.01V9.71c0-0.29-0.23-0.53-0.52-0.53h-5.15V7.91z"/>
	<path class="st2" d="M42.03,9.92v0.4v5.57c0,0.01,0,0.02,0,0.03c0,0.01,0,0.02,0,0.03c0,0.01,0,0.02,0,0.03c0,0.01,0,0.02,0,0.03
		l0,0.03c0,0.01,0,0.02,0,0.03l0,0.03l0,0.03c0,0.01,0,0.02-0.01,0.03c0,0.01,0,0.02-0.01,0.02l-0.01,0.02l-0.01,0.02l-0.01,0.02
		l-0.01,0.02v0c0,0.01-0.01,0.02-0.01,0.02l-0.01,0.02c-0.01,0.02-0.02,0.05-0.03,0.07l-0.01,0.02l-0.01,0.02
		c-0.03,0.06-0.07,0.11-0.11,0.16c-0.02,0.02-0.03,0.04-0.05,0.06c-0.02,0.02-0.04,0.03-0.05,0.05c-0.05,0.04-0.1,0.08-0.16,0.12
		l-0.02,0.01c-0.03,0.02-0.06,0.03-0.09,0.04l-0.02,0.01v0c-0.02,0.01-0.03,0.01-0.05,0.02c-0.02,0.01-0.03,0.01-0.05,0.02
		c-0.01,0-0.02,0-0.02,0.01c-0.01,0-0.02,0-0.02,0.01c-0.01,0-0.02,0-0.02,0.01v0l-0.02,0c-0.01,0-0.02,0-0.03,0
		c-0.02,0-0.03,0.01-0.05,0.01c-0.01,0-0.02,0-0.03,0c-0.01,0-0.02,0-0.03,0v0l-0.03,0c-0.01,0-0.02,0-0.03,0h-2.58v-1.27h1.84
		c0.28,0,0.52-0.24,0.52-0.53c0-1.8,0-3.43,0-5.22H42.03z"/>
	<path class="st2" d="M44.89,7.91h5.88c0.56,0,1.02,0.47,1.02,1.05v3.31v3.63c0,0.01,0,0.02,0,0.03c0,0.01,0,0.02,0,0.03
		c0,0.01,0,0.02,0,0.03c0,0.01,0,0.02,0,0.03l0,0.03c0,0.01,0,0.02,0,0.03l0,0.03l0,0.03c0,0.01,0,0.02-0.01,0.03
		c0,0.01,0,0.02-0.01,0.02l-0.01,0.02l-0.01,0.02l-0.01,0.02l-0.01,0.02v0c0,0.01-0.01,0.02-0.01,0.02l-0.01,0.02
		c-0.01,0.02-0.02,0.05-0.03,0.07l-0.01,0.02l-0.01,0.02c-0.03,0.06-0.07,0.11-0.11,0.16c-0.02,0.02-0.03,0.04-0.05,0.06
		c-0.02,0.02-0.04,0.03-0.05,0.05c-0.05,0.04-0.1,0.08-0.16,0.12l-0.02,0.01c-0.03,0.02-0.06,0.03-0.09,0.04l-0.02,0.01v0
		c-0.02,0.01-0.03,0.01-0.05,0.02c-0.02,0.01-0.03,0.01-0.05,0.02c-0.01,0-0.02,0-0.02,0.01c-0.01,0-0.02,0-0.02,0.01
		c-0.01,0-0.02,0-0.02,0.01v0l-0.03,0c-0.01,0-0.02,0-0.03,0c-0.02,0-0.03,0.01-0.05,0.01c-0.01,0-0.02,0-0.03,0
		c-0.01,0-0.02,0-0.03,0v0l-0.03,0c-0.01,0-0.02,0-0.03,0H44c-0.01,0-0.02,0-0.03,0c-0.01,0-0.02,0-0.03,0v0c-0.01,0-0.02,0-0.03,0
		c-0.01,0-0.02,0-0.03,0c-0.02,0-0.03,0-0.05-0.01c-0.01,0-0.02,0-0.03,0l-0.03,0v0c-0.01,0-0.02,0-0.02-0.01
		c-0.01,0-0.02,0-0.02-0.01c-0.01,0-0.02,0-0.02-0.01c-0.02,0-0.03-0.01-0.05-0.02c-0.02-0.01-0.03-0.01-0.05-0.02v0l-0.02-0.01
		c-0.01,0-0.02-0.01-0.02-0.01c-0.02-0.01-0.04-0.02-0.07-0.03L43.5,16.8c-0.04-0.03-0.08-0.05-0.12-0.08l-0.02-0.02l-0.02-0.02
		c-0.01-0.01-0.02-0.02-0.04-0.03l-0.02-0.02c-0.01-0.01-0.02-0.02-0.03-0.04v0l-0.02-0.02c-0.02-0.02-0.03-0.04-0.05-0.06
		l-0.01-0.02l-0.01-0.02l-0.01-0.02l-0.01-0.02l-0.01-0.02l-0.01-0.02l-0.01-0.02c-0.01-0.02-0.02-0.05-0.03-0.07l-0.01-0.02
		l-0.01-0.02v0l-0.01-0.02c0-0.01-0.01-0.02-0.01-0.02l-0.01-0.02c0-0.01,0-0.02-0.01-0.02c0-0.01,0-0.02-0.01-0.02L43,16.1l0-0.03
		l0-0.03c0-0.01,0-0.02,0-0.03c0-0.01,0-0.02,0-0.03c0-0.01,0-0.02,0-0.03l0-0.03l0-0.03c0-0.01,0-0.02,0-0.03v-2.91v-0.72
		c0-0.58,0.46-1.05,1.02-1.05h4.52v1.17h-3.78c-0.28,0-0.52,0.24-0.52,0.53v0.06v2.16c0,0.29,0.23,0.53,0.52,0.53h5.3
		c0.28,0,0.52-0.24,0.52-0.53v-2.22v0v0c0-0.03,0-0.07-0.01-0.1v-1.6h0.01V9.71c0-0.29-0.23-0.53-0.52-0.53h-5.15V7.91z"/>
	<path class="st2" d="M53.03,17.02v-2.5V8.95c0-0.01,0-0.02,0-0.03c0-0.01,0-0.02,0-0.03c0-0.01,0-0.02,0-0.03c0-0.01,0-0.02,0-0.03
		l0-0.03c0-0.01,0-0.02,0-0.03l0-0.03l0-0.03c0-0.01,0-0.02,0.01-0.03c0-0.01,0-0.02,0.01-0.03l0.01-0.02v0l0.01-0.02l0.01-0.02
		l0.01-0.02v0c0-0.01,0.01-0.02,0.01-0.02l0.01-0.02c0.01-0.02,0.02-0.05,0.03-0.07l0.01-0.02l0.01-0.02
		c0.03-0.06,0.07-0.11,0.11-0.16c0.02-0.02,0.03-0.04,0.05-0.06c0.02-0.02,0.04-0.03,0.05-0.05c0.05-0.04,0.1-0.08,0.16-0.12
		l0.02-0.01C53.6,8.02,53.63,8,53.66,7.99l0.02-0.01c0.02-0.01,0.03-0.01,0.05-0.02c0.02-0.01,0.03-0.01,0.05-0.02
		c0.01,0,0.02,0,0.02-0.01c0.01,0,0.02,0,0.02-0.01c0.01,0,0.02,0,0.02-0.01v0l0.02,0c0.01,0,0.02,0,0.03,0
		c0.02,0,0.03-0.01,0.05-0.01c0.01,0,0.02,0,0.03,0v0c0.01,0,0.02,0,0.03,0v0l0.03,0c0.01,0,0.02,0,0.03,0h2.58v1.27h-1.84
		c-0.28,0-0.52,0.24-0.52,0.53c0,1.8,0,5.53,0,7.32H53.03z"/>
	<path class="st2" d="M57.54,7.91h5.88c0.56,0,1.02,0.47,1.02,1.05v3.31v3.63c0,0.01,0,0.02,0,0.03c0,0.01,0,0.02,0,0.03
		c0,0.01,0,0.02,0,0.03c0,0.01,0,0.02,0,0.03l0,0.03c0,0.01,0,0.02,0,0.03l0,0.03l0,0.03c0,0.01,0,0.02-0.01,0.03
		c0,0.01,0,0.02-0.01,0.02l-0.01,0.02L64.4,16.2l-0.01,0.02l-0.01,0.02v0c0,0.01-0.01,0.02-0.01,0.02l-0.01,0.02
		c-0.01,0.02-0.02,0.05-0.03,0.07l-0.01,0.02l-0.01,0.02c-0.03,0.06-0.07,0.11-0.11,0.16c-0.02,0.02-0.03,0.04-0.05,0.06
		c-0.02,0.02-0.04,0.03-0.05,0.05c-0.05,0.04-0.1,0.08-0.16,0.12l-0.02,0.01c-0.03,0.02-0.06,0.03-0.09,0.04l-0.02,0.01v0
		c-0.02,0.01-0.03,0.01-0.05,0.02c-0.02,0.01-0.03,0.01-0.05,0.02c-0.01,0-0.02,0-0.02,0.01c-0.01,0-0.02,0-0.02,0.01
		c-0.01,0-0.02,0-0.02,0.01v0l-0.02,0c-0.01,0-0.02,0-0.03,0c-0.02,0-0.03,0.01-0.05,0.01c-0.01,0-0.02,0-0.03,0
		c-0.01,0-0.02,0-0.03,0v0l-0.03,0c-0.01,0-0.02,0-0.03,0h-6.77c-0.01,0-0.02,0-0.03,0c-0.01,0-0.02,0-0.03,0v0
		c-0.01,0-0.02,0-0.03,0c-0.01,0-0.02,0-0.03,0c-0.02,0-0.03,0-0.05-0.01c-0.01,0-0.02,0-0.03,0l-0.03,0v0c-0.01,0-0.02,0-0.02-0.01
		c-0.01,0-0.02,0-0.02-0.01c-0.01,0-0.02,0-0.02-0.01c-0.02,0-0.03-0.01-0.05-0.02c-0.02-0.01-0.03-0.01-0.05-0.02v0l-0.02-0.01
		c-0.01,0-0.02-0.01-0.02-0.01c-0.02-0.01-0.04-0.02-0.07-0.03l-0.02-0.01c-0.04-0.03-0.08-0.05-0.12-0.08l-0.02-0.02l-0.02-0.02
		c-0.01-0.01-0.02-0.02-0.04-0.03l-0.02-0.02c-0.01-0.01-0.02-0.02-0.03-0.04v0l-0.02-0.02c-0.02-0.02-0.03-0.04-0.05-0.06
		l-0.01-0.02l-0.01-0.02l-0.01-0.02l-0.01-0.02l-0.01-0.02l-0.01-0.02l-0.01-0.02c-0.01-0.02-0.02-0.05-0.03-0.07l-0.01-0.02
		l-0.01-0.02v0l-0.01-0.02c0-0.01-0.01-0.02-0.01-0.02l-0.01-0.02c0-0.01,0-0.02-0.01-0.02c0-0.01,0-0.02-0.01-0.02l-0.01-0.03
		l0-0.03l0-0.03c0-0.01,0-0.02,0-0.03c0-0.01,0-0.02,0-0.03c0-0.01,0-0.02,0-0.03l0-0.03l0-0.03c0-0.01,0-0.02,0-0.03v-2.91v-0.72
		c0-0.58,0.46-1.05,1.02-1.05h4.52v1.17h-3.78c-0.28,0-0.52,0.24-0.52,0.53v0.06v2.16c0,0.29,0.23,0.53,0.52,0.53h5.3
		c0.28,0,0.52-0.24,0.52-0.53v-2.22v0v0c0-0.03,0-0.07-0.01-0.1v-1.6h0.01V9.71c0-0.29-0.23-0.53-0.52-0.53h-5.15V7.91z"/>
	<path class="st2" d="M29.1,19.01v2.06v5.94c0,0.01,0,0.02,0,0.03c0,0.01,0,0.02,0,0.03c0,0.01,0,0.02,0,0.03c0,0.01,0,0.02,0,0.03
		l0,0.03c0,0.01,0,0.02,0,0.03l0,0.03l0,0.03c0,0.01,0,0.02,0.01,0.03c0,0.01,0,0.02,0.01,0.03l0.01,0.03l0.01,0.02l0.01,0.02
		l0.01,0.02c0,0.01,0.01,0.02,0.01,0.02l0.01,0.02c0.01,0.02,0.02,0.05,0.03,0.07v0l0.01,0.02l0.01,0.02
		c0.03,0.06,0.07,0.11,0.11,0.16c0.02,0.02,0.03,0.04,0.05,0.06c0.02,0.02,0.04,0.03,0.05,0.05c0.05,0.04,0.1,0.08,0.16,0.12
		l0.02,0.01v0c0.03,0.02,0.06,0.03,0.09,0.04l0.02,0.01v0C29.76,28,29.78,28,29.8,28.01v0c0.02,0.01,0.03,0.01,0.05,0.02
		c0.01,0,0.02,0,0.02,0.01c0.01,0,0.02,0,0.02,0.01c0.01,0,0.02,0,0.02,0.01l0.03,0c0.01,0,0.02,0,0.03,0c0.02,0,0.03,0,0.05,0.01v0
		c0.01,0,0.02,0,0.03,0c0.01,0,0.02,0,0.03,0l0.03,0c0.01,0,0.02,0,0.03,0v0h7.15v0c0.01,0,0.02,0,0.03,0c0.01,0,0.02,0,0.03,0
		c0.01,0,0.02,0,0.03,0c0.01,0,0.02,0,0.03,0v0c0.02,0,0.03,0,0.05-0.01c0.01,0,0.02,0,0.03,0l0.02,0c0.01,0,0.02,0,0.02-0.01
		c0.01,0,0.02,0,0.02-0.01c0.01,0,0.02,0,0.02-0.01c0.02,0,0.03-0.01,0.05-0.02v0c0-0.02,0.03-0.01,0.05-0.02v0l0.02-0.01
		c0.01,0,0.02-0.01,0.02-0.01c0.02-0.01,0.04-0.02,0.07-0.03v0l0.02-0.01c0.04-0.03,0.08-0.05,0.12-0.08l0.02-0.02l0.02-0.02
		c0.01-0.01,0.02-0.02,0.04-0.03l0.02-0.02c0.01-0.01,0.02-0.02,0.03-0.04v0l0.02-0.02c0.02-0.02,0.03-0.04,0.05-0.06l0.01-0.02
		l0.01-0.02l0.01-0.02l0.01-0.02v0l0.01-0.02l0.01-0.02l0.01-0.02v0c0.01-0.02,0.02-0.05,0.03-0.07l0.01-0.02l0.01-0.02l0.01-0.02
		c0-0.01,0.01-0.02,0.01-0.02l0.01-0.02c0-0.01,0-0.02,0.01-0.03c0-0.01,0-0.02,0.01-0.03l0.01-0.03l0-0.03l0-0.03
		c0-0.01,0-0.02,0-0.03c0-0.01,0-0.02,0-0.03c0-0.01,0-0.02,0-0.03l0-0.03l0-0.03c0-0.01,0-0.02,0-0.03v-3.37v-0.72
		c0-0.58-0.46-1.05-1.02-1.05H31.1v1.17h5.44c0.28,0,0.52,0.24,0.52,0.53v0.06v2.62c0,0.29-0.23,0.53-0.52,0.53h-5.68
		c-0.28,0-0.52-0.24-0.52-0.53v-7.25H29.1z"/>
	<path class="st2" d="M56.95,28.06v-2.5v-5.57c0-0.01,0-0.02,0-0.03c0-0.01,0-0.02,0-0.03c0-0.01,0-0.02,0-0.03
		c0-0.01,0-0.02,0-0.03l0-0.03c0-0.01,0-0.02,0-0.03l0-0.03l0-0.03c0-0.01,0-0.02-0.01-0.03c0-0.01,0-0.02-0.01-0.03v0l-0.01-0.02
		l-0.01-0.02v0l-0.01-0.02l-0.01-0.02c0-0.01-0.01-0.02-0.01-0.02v0l-0.01-0.02c-0.01-0.02-0.02-0.05-0.03-0.07v0l-0.01-0.02
		l-0.01-0.02c-0.03-0.06-0.07-0.11-0.11-0.16c-0.02-0.02-0.03-0.04-0.05-0.06c-0.02-0.02-0.04-0.03-0.05-0.05
		c-0.05-0.04-0.1-0.08-0.16-0.12l-0.02-0.01v0c-0.03-0.02-0.06-0.03-0.09-0.04v0l-0.02-0.01c-0.02-0.01-0.03-0.01-0.05-0.02
		c-0.02-0.01-0.03-0.01-0.05-0.02c-0.01,0-0.02,0-0.02-0.01c-0.01,0-0.02,0-0.02-0.01c-0.01,0-0.02,0-0.02-0.01l-0.02,0v0
		c-0.01,0-0.02,0-0.03,0c-0.02,0-0.03,0-0.05-0.01c-0.01,0-0.02,0-0.03,0c-0.01,0-0.02,0-0.03,0l-0.03,0c-0.01,0-0.02,0-0.03,0
		h-2.58h-3.16c-0.01,0-0.02,0-0.03,0l-0.03,0c-0.01,0-0.02,0-0.03,0c-0.01,0-0.02,0-0.03,0c-0.02,0-0.03,0-0.05,0.01
		c-0.01,0-0.02,0-0.03,0v0l-0.03,0c-0.01,0-0.02,0-0.02,0.01c-0.01,0-0.02,0-0.02,0.01c-0.01,0-0.02,0-0.02,0.01
		c-0.02,0-0.03,0.01-0.05,0.02c-0.02,0.01-0.03,0.01-0.05,0.02l-0.02,0.01v0c-0.03,0.01-0.06,0.03-0.09,0.04v0l-0.02,0.01
		c-0.06,0.03-0.11,0.07-0.16,0.12c-0.02,0.02-0.04,0.03-0.05,0.05c-0.02,0.02-0.03,0.04-0.05,0.06c-0.04,0.05-0.08,0.11-0.11,0.16
		l-0.01,0.02l-0.01,0.02v0c-0.01,0.02-0.02,0.05-0.03,0.07l-0.01,0.02v0c0,0.01-0.01,0.02-0.01,0.02l-0.01,0.02l-0.01,0.02v0
		l-0.01,0.02l-0.01,0.02v0c0,0.01,0,0.02-0.01,0.03c0,0.01,0,0.02-0.01,0.03l-0.01,0.03l0,0.03c0,0.01,0,0.02,0,0.03l0,0.03
		c0,0.01,0,0.02,0,0.03c0,0.01,0,0.02,0,0.03c0,0.01,0,0.02,0,0.03c0,0.01,0,0.02,0,0.03v5.57v2.5h1.24c0-1.79,0-5.52,0-7.32
		c0-0.29,0.23-0.53,0.52-0.53h2.43h1.84c0.28,0,0.52,0.24,0.52,0.53c0,1.8,0,5.53,0,7.32H56.95z"/>
	<polygon class="st2" points="60.37,23.17 59.8,24.37 62.98,28.08 64.57,28.08 	"/>
	<polygon class="st2" points="59.12,23.67 59.07,25.72 64.63,19 63.03,18.98 	"/>
	<polygon class="st2" points="59.37,26.39 59.37,28.03 58.13,28.03 58.13,18.95 59.37,18.95 	"/>
	<path class="st2" d="M40.99,19.03h6.09c0.56,0,1.02,0.47,1.02,1.05v3.31v3.63c0,0.01,0,0.02,0,0.03c0,0.01,0,0.02,0,0.03
		c0,0.01,0,0.02,0,0.03c0,0.01,0,0.02,0,0.03l0,0.03c0,0.01,0,0.02,0,0.03l0,0.03l0,0.03c0,0.01,0,0.02-0.01,0.03
		c0,0.01,0,0.02-0.01,0.03l-0.01,0.02v0l-0.01,0.02l-0.01,0.02l-0.01,0.02v0c0,0.01-0.01,0.02-0.01,0.02v0l-0.01,0.02
		c-0.01,0.02-0.02,0.05-0.03,0.07v0l-0.01,0.02l-0.01,0.02c-0.03,0.06-0.07,0.11-0.11,0.16c-0.02,0.02-0.03,0.04-0.05,0.06
		c-0.02,0.02-0.04,0.03-0.05,0.05v0c-0.05,0.04-0.1,0.08-0.16,0.12l-0.02,0.01c-0.03,0.02-0.06,0.03-0.09,0.04v0l-0.02,0.01
		C47.44,28,47.42,28,47.41,28.01c-0.02,0.01-0.03,0.01-0.05,0.02c-0.01,0-0.02,0-0.02,0.01c-0.01,0-0.02,0-0.02,0.01
		c-0.01,0-0.02,0-0.02,0.01v0l-0.03,0c-0.01,0-0.02,0-0.03,0c-0.02,0-0.03,0.01-0.05,0.01c-0.01,0-0.02,0-0.03,0v0
		c-0.01,0-0.02,0-0.03,0v0l-0.03,0c-0.01,0-0.02,0-0.03,0h-6.77c-0.01,0-0.02,0-0.03,0c-0.01,0-0.02,0-0.03,0v0
		c-0.01,0-0.02,0-0.03,0v0c-0.01,0-0.02,0-0.03,0c-0.02,0-0.03,0-0.05-0.01c-0.01,0-0.02,0-0.03,0l-0.02,0v0
		c-0.01,0-0.02,0-0.02-0.01c-0.01,0-0.02,0-0.02-0.01c-0.01,0-0.02,0-0.02-0.01c-0.02,0-0.03-0.01-0.05-0.02
		C39.97,28,39.95,28,39.94,27.99l-0.02-0.01v0c-0.01,0-0.02-0.01-0.02-0.01c-0.02-0.01-0.04-0.02-0.07-0.03l-0.02-0.01
		c-0.04-0.03-0.08-0.05-0.12-0.08v0l-0.02-0.02l-0.02-0.02v0c-0.01-0.01-0.02-0.02-0.04-0.03l-0.02-0.02
		c-0.01-0.01-0.02-0.02-0.03-0.04l-0.02-0.02c-0.02-0.02-0.03-0.04-0.05-0.06l-0.01-0.02l-0.01-0.02l-0.01-0.02l-0.01-0.02v0
		l-0.01-0.02l-0.01-0.02l-0.01-0.02c-0.01-0.02-0.02-0.05-0.03-0.07l-0.01-0.02v0l-0.01-0.02v0l-0.01-0.02
		c0-0.01-0.01-0.02-0.01-0.02l-0.01-0.02v0c0-0.01,0-0.02-0.01-0.02c0-0.01,0-0.02-0.01-0.03l-0.01-0.03l0-0.03l0-0.03
		c0-0.01,0-0.02,0-0.03c0-0.01,0-0.02,0-0.03c0-0.01,0-0.02,0-0.03l0-0.03l0-0.03c0-0.01,0-0.02,0-0.03v-3.56v-0.72
		c0-0.58,0.46-1.05,1.02-1.05h5.15v1.17h-4.42c-0.28,0-0.52,0.24-0.52,0.53v0.06v2.81c0,0.29,0.23,0.53,0.52,0.53h5.3
		c0.28,0,0.52-0.24,0.52-0.53v-2.22v0v0c0-0.03,0-0.07-0.01-0.1v-1.6h0.01v-1.51c0-0.29-0.23-0.53-0.52-0.53h-5.36V19.03z"/>
	<rect x="40.8" y="7.83" class="st2" width="1.21" height="1.24"/>
</g>
</svg>
