<?xml version="1.0" encoding="utf-8"?>
<!-- Generator: Adobe Illustrator 27.4.1, SVG Export Plug-In . SVG Version: 6.00 Build 0)  -->
<svg version="1.0" id="Layer_1" xmlns="http://www.w3.org/2000/svg" xmlns:xlink="http://www.w3.org/1999/xlink" x="0px" y="0px"
	 viewBox="0 0 524.18 52.37" style="enable-background:new 0 0 524.18 52.37;" xml:space="preserve">
<style type="text/css">
	.st0{fill-rule:evenodd;clip-rule:evenodd;fill:#AF242C;}
	.st1{fill:none;stroke:#1A1A18;stroke-width:0.216;stroke-miterlimit:2.6131;}
	.st2{fill-rule:evenodd;clip-rule:evenodd;fill:#F3A11A;}
	.st3{fill-rule:evenodd;clip-rule:evenodd;fill:#FFFFFF;}
	.st4{fill-rule:evenodd;clip-rule:evenodd;fill:#F9A425;}
	.st5{fill:#902634;}
	.st6{fill-rule:evenodd;clip-rule:evenodd;fill:#4FB74A;}
	.st7{fill-rule:evenodd;clip-rule:evenodd;fill:#FFF112;}
	.st8{fill-rule:evenodd;clip-rule:evenodd;fill:#802926;}
	.st9{fill:#FFFFFF;}
	.st10{fill:#1A1A18;}
</style>
<rect x="0.01" class="st0" width="524.17" height="35.6"/>
<rect x="0.01" class="st1" width="524.17" height="35.6"/>
<polygon class="st0" points="0.01,0 350.61,0 339.01,35.6 0.01,35.6 "/>
<rect y="35.6" class="st2" width="524.18" height="16.77"/>
<rect x="370.72" y="0.67" class="st2" width="153.47" height="32.68"/>
<path class="st3" d="M11.67,8.07h59.78c2.32,0,4.21,1.89,4.21,4.2v27.84c0,2.31-1.9,4.2-4.21,4.2H11.67c-2.32,0-4.21-1.89-4.21-4.2
	V12.26C7.45,9.96,9.35,8.07,11.67,8.07"/>
<path class="st4" d="M22.36,17.08c3.83,0,6.93,3.18,6.93,7.1s-3.1,7.1-6.93,7.1c-3.83,0-6.93-3.18-6.93-7.1S18.54,17.08,22.36,17.08
	 M23.91,12.26l-0.03,1.75c0.74,0.11,1.45,0.31,2.12,0.58l0.85-1.52l2.67,1.58l-0.88,1.5c0.57,0.47,1.08,0.99,1.54,1.57l0.01,0.01
	l1.48-0.88l1.54,2.74l-1.49,0.84c0.26,0.69,0.46,1.42,0.57,2.17l0,0l1.71,0v3.16l-1.7-0.03c-0.11,0.75-0.3,1.48-0.56,2.17l1.48,0.87
	l-1.54,2.74l-1.46-0.9c-0.45,0.58-0.97,1.11-1.53,1.58l-0.01,0.01l0.86,1.51l-2.67,1.58l-0.82-1.53c-0.67,0.27-1.38,0.47-2.12,0.58
	l0,0l0,1.75h-3.09l0.03-1.75c-0.74-0.11-1.45-0.31-2.12-0.58l-0.85,1.52l-2.67-1.58l0.88-1.5c-0.57-0.47-1.08-0.99-1.54-1.57
	l-0.01-0.01l-1.48,0.88l-1.54-2.74l1.49-0.84c-0.26-0.69-0.46-1.42-0.57-2.17l0,0l-1.71,0V22.6l1.7,0.03
	c0.11-0.75,0.3-1.48,0.56-2.17l-1.48-0.87l1.54-2.74l1.46,0.9c0.45-0.58,0.97-1.11,1.53-1.58l0.01-0.01l-0.86-1.51l2.67-1.58
	l0.82,1.53c0.67-0.27,1.38-0.47,2.12-0.58l0,0l0-1.75H23.91z"/>
<path class="st5" d="M22.36,17.08c3.83,0,6.93,3.18,6.93,7.1s-3.1,7.1-6.93,7.1c-3.83,0-6.93-3.18-6.93-7.1S18.54,17.08,22.36,17.08
	"/>
<path class="st6" d="M22.39,31.32l-0.29-0.01c-0.51-4.15-1.85-9.05-4.41-12.37l0.15-0.12C20.42,22.16,21.76,26.87,22.39,31.32"/>
<path class="st7" d="M16.22,17.28c1.2,0.2,1.72,0.67,1.65,1.75C16.77,19.01,16.31,18.43,16.22,17.28"/>
<path class="st7" d="M17.72,19.5c-0.23-0.07-0.46-0.07-0.74-0.05c0.33,0.51,0.7,0.91,1.26,1.17c0.25,0.11,0.45,0.14,0.62,0.07
	c0.15-0.07,0.22-0.21,0.25-0.38c0.15-0.8-0.22-1.31-0.53-1.97c-0.23,0.42-0.16,1.12-0.12,1.59C18.2,19.81,18.01,19.59,17.72,19.5"/>
<path class="st7" d="M19,21.71c-0.23-0.11-0.46-0.13-0.74-0.16c0.27,0.57,0.6,1.03,1.13,1.37c0.24,0.15,0.44,0.21,0.62,0.16
	c0.16-0.05,0.26-0.18,0.31-0.35c0.26-0.79-0.05-1.37-0.28-2.08c-0.3,0.39-0.31,1.12-0.34,1.61C19.46,22.1,19.29,21.84,19,21.71"/>
<path class="st7" d="M19.92,23.63c-0.24-0.15-0.48-0.2-0.78-0.25c0.25,0.72,0.57,1.3,1.12,1.76c0.24,0.2,0.46,0.29,0.65,0.24
	c0.18-0.05,0.28-0.2,0.35-0.4c0.33-0.95,0.03-1.67-0.16-2.56c-0.34,0.45-0.41,1.34-0.46,1.93C20.38,24.13,20.21,23.81,19.92,23.63"
	/>
<path class="st7" d="M20.69,26.22c-0.24-0.15-0.49-0.21-0.8-0.26c0.25,0.73,0.57,1.33,1.13,1.81c0.25,0.21,0.46,0.3,0.67,0.25
	c0.18-0.05,0.29-0.21,0.36-0.41c0.34-0.97,0.04-1.71-0.15-2.62c-0.35,0.46-0.42,1.37-0.48,1.98C21.16,26.73,20.99,26.4,20.69,26.22"
	/>
<path class="st6" d="M22.39,31.32l0.29-0.01c0.51-4.15,1.85-9.05,4.41-12.37l-0.15-0.12C24.35,22.16,23.01,26.87,22.39,31.32"/>
<path class="st7" d="M28.55,17.28c-1.2,0.2-1.72,0.67-1.65,1.75C28,19.01,28.46,18.43,28.55,17.28"/>
<path class="st7" d="M27.05,19.5c0.23-0.07,0.46-0.07,0.74-0.05c-0.33,0.51-0.7,0.91-1.26,1.17c-0.25,0.11-0.45,0.14-0.62,0.07
	c-0.15-0.07-0.22-0.21-0.25-0.38c-0.15-0.8,0.22-1.31,0.53-1.97c0.23,0.42,0.16,1.12,0.12,1.59C26.57,19.81,26.77,19.59,27.05,19.5"
	/>
<path class="st7" d="M25.77,21.71c0.23-0.11,0.46-0.13,0.74-0.16c-0.27,0.57-0.6,1.03-1.13,1.37c-0.24,0.15-0.44,0.21-0.62,0.16
	c-0.16-0.05-0.26-0.18-0.31-0.35c-0.26-0.79,0.05-1.37,0.28-2.08c0.3,0.39,0.31,1.12,0.34,1.61C25.32,22.1,25.49,21.84,25.77,21.71"
	/>
<path class="st7" d="M24.85,23.63c0.24-0.15,0.48-0.2,0.78-0.25c-0.25,0.72-0.57,1.3-1.12,1.76c-0.24,0.2-0.46,0.29-0.65,0.24
	c-0.18-0.05-0.28-0.2-0.35-0.4c-0.33-0.95-0.03-1.67,0.16-2.56c0.34,0.45,0.41,1.34,0.46,1.93C24.39,24.13,24.56,23.81,24.85,23.63"
	/>
<path class="st7" d="M24.08,26.22c0.24-0.15,0.49-0.21,0.8-0.26c-0.25,0.73-0.57,1.33-1.13,1.81c-0.25,0.21-0.46,0.3-0.67,0.25
	c-0.18-0.05-0.29-0.21-0.36-0.41c-0.34-0.97-0.04-1.71,0.15-2.62c0.35,0.46,0.42,1.37,0.48,1.98C23.62,26.73,23.78,26.4,24.08,26.22
	"/>
<path class="st3" d="M22.4,22.38c-0.29,0.01-0.56-0.2-0.54-0.68c0.6,0.2,0.47,0.2,1.07,0C22.96,22.18,22.69,22.39,22.4,22.38
	 M21.97,20.47c0.06-0.42,0.12-1.74,0.42-1.71c0.3-0.03,0.34,1.27,0.4,1.71C22.23,20.27,22.53,20.27,21.97,20.47z M27.65,29.11
	l1.59-0.01l-1.59-6.2L27.65,29.11z M25.58,29.13l1.74-0.01l-0.01-6.22L25.58,29.13z M17.13,29.11l0-6.22l-1.59,6.2L17.13,29.11z
	 M19.2,29.13l-1.74-6.24v6.22L19.2,29.13z M24.48,29.14l0.72-0.01c0.73-2.48,1.46-4.96,2.18-7.44c0-0.09,0-0.17,0-0.26
	c-0.77,0-3.61-0.11-4.2,0.19c0.08,0.58-0.17,1.08-0.78,1.1c-0.61-0.03-0.86-0.52-0.78-1.1c-0.55-0.31-3.49-0.19-4.23-0.19
	c0,0.09,0,0.17,0,0.26l2.18,7.44l0.72,0.01c0.03,0.74-0.58,1.41-0.95,1.66c-2,1.38-4.93,0.23-4.94-1.71l0.77,0.01
	c0.68-2.47,1.35-4.94,2.03-7.4c0-0.09,0-0.17,0-0.26c-0.16,0-0.33,0-0.49,0c-0.56,0-0.46-0.67-0.03-0.67c0.78,0,4.43,0.11,4.97-0.22
	l0.25-2.21c0.08-0.02,0.2,0,0.25-0.06c0.07-0.08,0.03-0.31-0.02-0.39c-0.06-0.09-0.15-0.14-0.17-0.27
	c-0.03-0.22,0.11-0.31,0.21-0.41c0.08-0.07,0.07-0.08,0.07-0.21c-0.17-0.01-0.43-0.05-0.5-0.23c0.04-0.12,0.17-0.19,0.3-0.23
	l0.02-0.05c0.05-0.15,0.15-0.24,0.31-0.3c0.16,0.07,0.26,0.16,0.31,0.3l0.02,0.05c0.13,0.05,0.26,0.12,0.3,0.23
	c-0.07,0.17-0.33,0.21-0.5,0.23c0,0.13-0.01,0.14,0.07,0.21c0.09,0.1,0.23,0.19,0.21,0.41c-0.02,0.14-0.11,0.19-0.17,0.27
	c-0.05,0.08-0.08,0.3-0.02,0.39c0.05,0.06,0.17,0.04,0.25,0.06c0.08,0.74,0.17,1.47,0.25,2.21c0.52,0.35,4.11,0.22,4.88,0.22
	c0.44,0,0.48,0.67,0.04,0.67c-0.15,0-0.31,0-0.46,0c0,0.09,0,0.17,0,0.26l2.03,7.4l0.76-0.01c-0.01,1.94-2.94,3.09-4.94,1.71
	C25.06,30.55,24.44,29.88,24.48,29.14z"/>
<path class="st6" d="M21.6,32.91c0.17-2.76-2.63-6.96-5.78-5.5c-0.46,0.21-0.84,0.5-1.02,1.02c-0.05,0.15-0.19,0.28-0.23,0.01
	c-0.05-0.32,0.02-0.61,0.16-0.87c0.45-0.86,1.52-1.37,2.39-1.36c1.16,0.02,2.12,0.62,2.88,1.42c1.35,1.41,2.1,3.47,2.02,5.27
	L21.6,32.91z"/>
<path class="st6" d="M23.17,32.91c-0.17-2.76,2.63-6.96,5.78-5.5c0.46,0.21,0.84,0.5,1.02,1.02c0.05,0.15,0.19,0.28,0.23,0.01
	c0.05-0.32-0.02-0.61-0.16-0.87c-0.45-0.86-1.52-1.37-2.39-1.36c-1.16,0.02-2.12,0.62-2.88,1.42c-1.35,1.41-2.1,3.47-2.02,5.27
	L23.17,32.91z"/>
<polygon class="st8" points="20.97,33.28 20.88,33.09 22.39,31.67 23.89,33.09 23.8,33.28 22.39,33.28 "/>
<path class="st5" d="M34.08,40.27h-0.3v-1.72h0.3V40.27z M33.14,40.27h-0.3v-1.72h0.3V40.27z M32.2,39.95c0,0.05-0.02,0.1-0.06,0.14
	c-0.04,0.04-0.08,0.06-0.13,0.06c-0.05,0-0.09-0.02-0.13-0.06c-0.04-0.04-0.05-0.09-0.05-0.14c0-0.05,0.02-0.1,0.05-0.14
	c0.04-0.04,0.08-0.06,0.13-0.06c0.05,0,0.09,0.02,0.13,0.06C32.18,39.85,32.2,39.89,32.2,39.95z M32.2,39.22
	c0,0.06-0.02,0.1-0.05,0.15c-0.04,0.04-0.08,0.06-0.13,0.06c-0.05,0-0.09-0.02-0.13-0.06c-0.04-0.04-0.05-0.09-0.05-0.15
	c0-0.05,0.02-0.09,0.05-0.13c0.04-0.04,0.08-0.06,0.13-0.06c0.05,0,0.09,0.02,0.13,0.06C32.18,39.13,32.2,39.17,32.2,39.22z
	 M31.37,38.72H31.1c-0.1-0.17-0.22-0.3-0.36-0.38c-0.1-0.06-0.21-0.08-0.35-0.08l0.08-0.3c0.01,0,0.02,0,0.03,0
	c0.15,0,0.3,0.08,0.46,0.22C31.12,38.31,31.26,38.49,31.37,38.72z M31.63,39.01h-0.24v1.26h-0.33v-1.26h-0.24v-0.3h0.81V39.01z
	 M30.87,39.01h-0.24v1.26h-0.34V39.5c-0.09-0.03-0.19-0.04-0.3-0.04c-0.1,0-0.17,0.02-0.22,0.05c-0.06,0.04-0.09,0.09-0.09,0.16
	c0,0.12,0.06,0.2,0.19,0.25c0.1,0.03,0.2,0.04,0.28,0.01l-0.18,0.34c-0.18-0.02-0.33-0.08-0.45-0.2c-0.12-0.11-0.18-0.25-0.18-0.39
	c0-0.15,0.05-0.27,0.15-0.37c0.11-0.1,0.26-0.16,0.45-0.16c0.1,0,0.21,0.02,0.35,0.05v-0.19h-1.09v-0.3h1.67V39.01z M29,38.72h-0.27
	c-0.1-0.17-0.22-0.3-0.36-0.38c-0.1-0.06-0.21-0.08-0.35-0.08l0.08-0.3c0.01,0,0.02,0,0.03,0c0.15,0,0.3,0.08,0.46,0.22
	C28.75,38.31,28.88,38.49,29,38.72z M29.25,39.01h-0.29v0.37h-0.42c-0.05,0-0.08,0.01-0.1,0.02c-0.02,0.01-0.03,0.04-0.03,0.07
	c0,0.02,0.01,0.04,0.02,0.06c0.01,0.02,0.03,0.04,0.05,0.06c0.03-0.01,0.08-0.02,0.14-0.02c0.13,0,0.24,0.03,0.33,0.07
	c0.11,0.06,0.17,0.16,0.17,0.29c0,0.09-0.04,0.17-0.11,0.24c-0.07,0.07-0.16,0.11-0.26,0.13l-0.12-0.19
	c0.05-0.01,0.09-0.04,0.12-0.07c0.03-0.03,0.05-0.07,0.05-0.1c0-0.05-0.02-0.08-0.05-0.1c-0.03-0.01-0.07-0.02-0.12-0.02
	c-0.08,0-0.15,0.02-0.2,0.06c-0.07,0.05-0.11,0.13-0.11,0.22c0,0.12,0.05,0.21,0.15,0.29c0.1,0.07,0.23,0.11,0.39,0.11v0.24
	c-0.26,0-0.47-0.06-0.63-0.17c-0.16-0.12-0.24-0.27-0.24-0.46c0-0.1,0.02-0.18,0.07-0.25c0.04-0.07,0.1-0.13,0.17-0.15
	c-0.04-0.06-0.08-0.11-0.1-0.17c-0.02-0.06-0.04-0.11-0.04-0.17c0-0.06,0.03-0.11,0.08-0.16c0.06-0.04,0.13-0.07,0.21-0.07h0.29
	v-0.14h-0.81v-0.3h1.4V39.01z M27.92,39.01h-0.88v0.14c0.09-0.04,0.16-0.05,0.22-0.05c0.15,0,0.28,0.05,0.38,0.14
	c0.1,0.09,0.15,0.21,0.15,0.35c0,0.17-0.06,0.31-0.19,0.41c-0.13,0.1-0.28,0.13-0.45,0.1v-0.3c0.08,0.01,0.15,0,0.2-0.03
	c0.05-0.04,0.08-0.09,0.08-0.17c0-0.06-0.02-0.1-0.05-0.13c-0.04-0.03-0.09-0.05-0.17-0.05c-0.04,0-0.07,0.01-0.11,0.03
	c-0.02,0.01-0.04,0.03-0.06,0.06v0.77H26.7v-0.25c-0.06,0.03-0.14,0.05-0.24,0.05c-0.15,0-0.27-0.04-0.36-0.13
	c-0.1-0.09-0.15-0.21-0.15-0.36c0-0.14,0.05-0.25,0.16-0.34c0.1-0.07,0.22-0.11,0.37-0.11c0.02,0,0.06,0,0.13,0.01l0.09,0.31
	c-0.09-0.02-0.15-0.04-0.18-0.04c-0.07,0-0.12,0.02-0.16,0.04c-0.05,0.03-0.07,0.08-0.07,0.14c0,0.05,0.02,0.1,0.07,0.13
	c0.04,0.03,0.09,0.05,0.14,0.05c0.07,0,0.14-0.02,0.22-0.07v-0.7h-0.89v-0.3h2.11V39.01z M25.6,38.72h-0.27
	c-0.1-0.17-0.22-0.3-0.36-0.38c-0.1-0.06-0.21-0.08-0.35-0.08l0.08-0.3c0.01,0,0.02,0,0.03,0c0.15,0,0.3,0.08,0.46,0.22
	C25.35,38.31,25.49,38.49,25.6,38.72z M25.85,39.01h-0.24v1.26h-0.33v-1.26h-0.24v-0.3h0.81V39.01z M24.39,40.33
	c-0.04,0-0.09,0-0.16-0.02c-0.03,0-0.05-0.01-0.06-0.01l0.04-0.32c0.02,0.02,0.04,0.03,0.08,0.04c0.03,0.01,0.07,0.02,0.11,0.02
	c0.07,0,0.12-0.02,0.15-0.07c0.03-0.05,0.05-0.14,0.05-0.27c0-0.1-0.01-0.16-0.03-0.2c-0.03-0.04-0.08-0.07-0.15-0.07
	c-0.05,0-0.1,0.03-0.13,0.09c-0.03,0.06-0.05,0.13-0.04,0.21H23.9c0.01-0.06,0.02-0.12,0-0.18c-0.02-0.09-0.07-0.13-0.14-0.13
	c-0.06,0-0.11,0.02-0.15,0.07c-0.04,0.04-0.06,0.11-0.06,0.2c0,0.13,0.02,0.22,0.05,0.27c0.03,0.05,0.08,0.07,0.15,0.07
	c0.04,0,0.08-0.01,0.11-0.02c0.03-0.01,0.06-0.03,0.08-0.04l0.03,0.32c-0.01,0-0.03,0.01-0.05,0.01c-0.07,0.01-0.13,0.02-0.16,0.02
	c-0.19-0.01-0.33-0.06-0.42-0.17c-0.09-0.1-0.14-0.24-0.14-0.43c0-0.17,0.05-0.31,0.15-0.42c0.1-0.11,0.22-0.16,0.36-0.16
	c0.09,0,0.17,0.02,0.24,0.05c0.05,0.02,0.08,0.06,0.12,0.1c0.02-0.03,0.05-0.07,0.11-0.1c0.03-0.02,0.06-0.03,0.11-0.04l0.01,0
	v-0.16h-1.25v-0.3h2.06v0.3h-0.5v0.16c0.09,0.02,0.16,0.06,0.22,0.12c0.09,0.09,0.13,0.23,0.13,0.41c0,0.19-0.05,0.34-0.14,0.45
	C24.71,40.26,24.57,40.32,24.39,40.33z M22.47,40.86l-0.15,0.16l-0.47-0.41l0.19-0.19L22.47,40.86z M21.14,39.72V39.6h-0.11
	c-0.02,0.01-0.03,0.02-0.05,0.03c-0.01,0.02-0.02,0.03-0.02,0.05c0,0.05,0.01,0.08,0.02,0.1c0.01,0.01,0.03,0.02,0.06,0.02
	c0.03,0,0.06-0.01,0.07-0.02C21.13,39.77,21.14,39.75,21.14,39.72z M21.86,39.31v-0.3h-0.39v0.3H21.86z M22.45,39.01H22.2v1.26
	h-0.34V39.6h-0.39v0.12c0,0.1-0.03,0.18-0.08,0.24c-0.07,0.08-0.18,0.12-0.33,0.12c-0.12,0-0.22-0.03-0.29-0.1
	c-0.08-0.07-0.12-0.17-0.12-0.3c0-0.12,0.04-0.22,0.12-0.28c0.06-0.05,0.14-0.08,0.22-0.08h0.15v-0.3h-0.61v-0.3h1.92V39.01z
	 M20.58,39.01H20.3v0.37h-0.42c-0.05,0-0.08,0.01-0.1,0.02c-0.02,0.01-0.03,0.04-0.03,0.07c0,0.02,0.01,0.04,0.02,0.06
	c0.01,0.02,0.03,0.04,0.05,0.06c0.03-0.01,0.08-0.02,0.14-0.02c0.13,0,0.24,0.03,0.33,0.07c0.11,0.06,0.17,0.16,0.17,0.29
	c0,0.09-0.04,0.17-0.11,0.24c-0.07,0.07-0.16,0.11-0.26,0.13l-0.12-0.19c0.05-0.01,0.09-0.04,0.12-0.07
	c0.03-0.03,0.05-0.07,0.05-0.1c0-0.05-0.02-0.08-0.05-0.1c-0.03-0.01-0.07-0.02-0.12-0.02c-0.08,0-0.15,0.02-0.2,0.06
	c-0.07,0.05-0.11,0.13-0.11,0.22c0,0.12,0.05,0.21,0.15,0.29c0.1,0.07,0.23,0.11,0.39,0.11v0.24c-0.26,0-0.47-0.06-0.63-0.17
	c-0.16-0.12-0.24-0.27-0.24-0.46c0-0.1,0.02-0.18,0.07-0.25c0.04-0.07,0.1-0.13,0.17-0.15c-0.04-0.06-0.08-0.11-0.1-0.17
	c-0.02-0.06-0.04-0.11-0.04-0.17c0-0.06,0.03-0.11,0.09-0.16c0.06-0.04,0.13-0.07,0.21-0.07H20v-0.14h-0.81v-0.3h1.4V39.01z
	 M19.12,39.78c0,0.17-0.06,0.3-0.18,0.39c-0.12,0.08-0.28,0.13-0.48,0.13c-0.15,0-0.27-0.04-0.39-0.11
	c-0.11-0.07-0.19-0.16-0.23-0.27l0.26-0.24c0.02,0.1,0.06,0.18,0.13,0.24c0.07,0.06,0.15,0.09,0.23,0.09c0.09,0,0.16-0.02,0.22-0.05
	c0.07-0.04,0.1-0.1,0.1-0.18c0-0.11-0.13-0.2-0.38-0.26c-0.31-0.07-0.46-0.2-0.46-0.37c0-0.15,0.06-0.26,0.19-0.33
	c0.1-0.06,0.24-0.09,0.4-0.09c0.1-0.01,0.2,0.01,0.28,0.04c0.09,0.03,0.16,0.08,0.21,0.14l-0.22,0.2l-0.01-0.01
	c-0.09-0.07-0.17-0.11-0.26-0.11c-0.06,0-0.11,0.01-0.15,0.02c-0.05,0.02-0.08,0.06-0.08,0.1c0,0.09,0.11,0.17,0.33,0.23
	C18.96,39.43,19.12,39.58,19.12,39.78z M17.54,38.72h-0.27c-0.1-0.17-0.22-0.3-0.36-0.38c-0.1-0.06-0.21-0.08-0.35-0.08l0.08-0.3
	c0.01,0,0.02,0,0.03,0c0.15,0,0.3,0.08,0.46,0.22C17.29,38.31,17.42,38.49,17.54,38.72z M17.21,39.73v-0.71h-0.25v0.35
	c-0.09-0.02-0.17-0.04-0.24-0.03l-0.06,0c-0.14,0-0.21,0.03-0.21,0.07c0,0.02,0.01,0.04,0.02,0.05c0.01,0.01,0.02,0.02,0.03,0.02
	c0.07-0.03,0.14-0.04,0.22-0.04l0.12,0l0.08,0l0.05,0.27L16.9,39.7c-0.07-0.01-0.11-0.02-0.14-0.02c-0.08,0-0.13,0.01-0.17,0.02
	c-0.06,0.02-0.08,0.06-0.08,0.12c0,0.05,0.02,0.08,0.06,0.1c0.03,0.01,0.08,0.02,0.14,0.02c0.08,0,0.17-0.02,0.25-0.06
	C17.05,39.85,17.13,39.8,17.21,39.73z M17.79,39.01h-0.24v1.26h-0.34v-0.2c-0.18,0.1-0.34,0.14-0.5,0.14c-0.14,0-0.26-0.03-0.36-0.1
	c-0.12-0.07-0.19-0.16-0.19-0.28c0-0.05,0.01-0.1,0.04-0.14c0.02-0.04,0.05-0.07,0.08-0.09c-0.04-0.02-0.07-0.05-0.1-0.08
	c-0.03-0.04-0.05-0.09-0.05-0.14c0-0.13,0.07-0.23,0.21-0.28c0.09-0.03,0.2-0.04,0.32-0.03v-0.07h-0.68v-0.3h1.81V39.01z
	 M15.46,39.59v-0.58h-0.79c0.02,0.03,0.04,0.06,0.06,0.1c0.02,0.04,0.03,0.08,0.03,0.12c0,0.14-0.05,0.25-0.16,0.32
	c-0.07,0.05-0.15,0.07-0.26,0.09c0.01,0.08,0.04,0.14,0.09,0.2c0.07,0.08,0.17,0.12,0.29,0.12c0.07,0,0.13-0.01,0.17-0.04
	c0.03-0.02,0.05-0.04,0.07-0.07c-0.06-0.04-0.11-0.09-0.14-0.15c-0.03-0.06-0.05-0.13-0.05-0.21c0-0.16,0.06-0.28,0.19-0.36
	c0.09-0.05,0.19-0.08,0.32-0.08l0.11,0l0.03,0.28l-0.14,0c-0.05,0-0.09,0.01-0.12,0.03c-0.04,0.03-0.05,0.06-0.05,0.11
	c0,0.05,0.02,0.09,0.07,0.11c0.04,0.02,0.08,0.03,0.13,0.03C15.35,39.64,15.4,39.62,15.46,39.59z M16.04,39.01H15.8v1.26h-0.34
	v-0.37c-0.03,0.01-0.06,0.02-0.08,0.02c-0.02,0-0.06,0.01-0.11,0.01l-0.02,0c-0.02,0.07-0.06,0.14-0.13,0.19
	c-0.1,0.09-0.24,0.13-0.42,0.13c-0.23,0-0.41-0.08-0.53-0.25c-0.07-0.1-0.12-0.22-0.15-0.35l-0.15-0.03v-0.32
	c0.09,0.05,0.18,0.08,0.25,0.08c0.08,0,0.14-0.01,0.19-0.03c0.06-0.03,0.1-0.08,0.1-0.16c0-0.04-0.01-0.08-0.04-0.12
	c-0.02-0.03-0.04-0.05-0.07-0.07h-0.52v-0.3h2.27V39.01z M15.12,38.7h-0.37c-0.22-0.15-0.41-0.26-0.59-0.34
	c-0.18-0.08-0.33-0.12-0.46-0.12c-0.09,0-0.15,0.02-0.19,0.07c-0.03,0.04-0.05,0.09-0.05,0.16c0,0.04,0.01,0.09,0.03,0.13
	c0.02,0.04,0.04,0.08,0.07,0.11h0.28v0.3h-0.24v1.26h-0.33v-1.26h-0.24v-0.3h0.17c-0.05-0.08-0.08-0.18-0.08-0.29
	c0-0.13,0.05-0.24,0.15-0.33c0.1-0.08,0.23-0.12,0.39-0.12c0.2,0,0.43,0.06,0.68,0.19C14.59,38.29,14.85,38.47,15.12,38.7z
	 M12.2,40.27h-0.3v-1.72h0.3V40.27z M11.26,40.27h-0.3v-1.72h0.3V40.27z"/>
<path class="st5" d="M38.55,16.03h5.92c0.57,0,1.03,0.47,1.03,1.05v3.33v3.65c0,0.01,0,0.02,0,0.03c0,0.01,0,0.02,0,0.03
	c0,0.01,0,0.02,0,0.03c0,0.01,0,0.02,0,0.03l0,0.03c0,0.01,0,0.02,0,0.03l0,0.03l-0.01,0.03c0,0.01,0,0.02-0.01,0.03
	c0,0.01,0,0.02-0.01,0.03l-0.01,0.03l-0.01,0.02l-0.01,0.02l-0.01,0.02v0c0,0.01-0.01,0.02-0.01,0.02l-0.01,0.02
	c-0.01,0.02-0.02,0.05-0.03,0.07l-0.01,0.02l-0.01,0.02c-0.03,0.06-0.07,0.11-0.11,0.17c-0.02,0.02-0.03,0.04-0.05,0.06
	c-0.02,0.02-0.04,0.04-0.05,0.05c-0.05,0.04-0.1,0.08-0.16,0.12l-0.02,0.01c-0.03,0.02-0.06,0.03-0.09,0.04l-0.02,0.01v0
	c-0.02,0.01-0.03,0.01-0.05,0.02c-0.02,0.01-0.03,0.01-0.05,0.02c-0.01,0-0.02,0-0.02,0.01c-0.01,0-0.02,0-0.02,0.01
	c-0.01,0-0.02,0-0.02,0.01v0l-0.03,0c-0.01,0-0.02,0-0.03,0c-0.02,0-0.03,0.01-0.05,0.01c-0.01,0-0.02,0-0.03,0
	c-0.01,0-0.02,0-0.03,0v0l-0.03,0c-0.01,0-0.02,0-0.03,0h-6.81c-0.01,0-0.02,0-0.03,0c-0.01,0-0.02,0-0.03,0v0
	c-0.01,0-0.02,0-0.03,0c-0.01,0-0.02,0-0.03,0c-0.02,0-0.03,0-0.05-0.01c-0.01,0-0.02,0-0.03,0l-0.03,0v0c-0.01,0-0.02,0-0.03-0.01
	c-0.01,0-0.02,0-0.02-0.01c-0.01,0-0.02,0-0.02-0.01c-0.02,0-0.03-0.01-0.05-0.02c-0.02-0.01-0.03-0.01-0.05-0.02v0l-0.02-0.01
	c-0.01,0-0.02-0.01-0.02-0.01c-0.02-0.01-0.05-0.02-0.07-0.03l-0.02-0.01c-0.04-0.03-0.08-0.05-0.12-0.09L37,24.87l-0.02-0.02
	c-0.01-0.01-0.02-0.02-0.04-0.03l-0.02-0.02c-0.01-0.01-0.02-0.02-0.03-0.04v0l-0.02-0.02c-0.02-0.02-0.03-0.04-0.05-0.06
	l-0.01-0.02l-0.01-0.02l-0.01-0.02l-0.01-0.02l-0.01-0.02l-0.01-0.02l-0.01-0.02c-0.01-0.02-0.02-0.05-0.03-0.07l-0.01-0.02
	l-0.01-0.02v0l-0.01-0.02c0-0.01-0.01-0.02-0.01-0.02l-0.01-0.02c0-0.01,0-0.02-0.01-0.03c0-0.01,0-0.02-0.01-0.03l-0.01-0.03
	l0-0.03l0-0.03c0-0.01,0-0.02,0-0.03c0-0.01,0-0.02,0-0.03c0-0.01,0-0.02,0-0.03l0-0.03l0-0.03c0-0.01,0-0.02,0-0.03v-2.93v-0.72
	c0-0.58,0.46-1.05,1.03-1.05h4.54v1.18h-3.81c-0.29,0-0.52,0.24-0.52,0.53v0.06v2.17c0,0.29,0.23,0.53,0.52,0.53h5.34
	c0.29,0,0.52-0.24,0.52-0.53v-2.23v0v0c0-0.03,0-0.07-0.01-0.1v-1.61h0.01v-1.52c0-0.29-0.23-0.53-0.52-0.53h-5.18V16.03z"/>
<path class="st5" d="M49.63,18.05v0.4v5.61c0,0.01,0,0.02,0,0.03c0,0.01,0,0.02,0,0.03c0,0.01,0,0.02,0,0.03c0,0.01,0,0.02,0,0.03
	l0,0.03c0,0.01,0,0.02,0,0.03l0,0.03l0,0.03c0,0.01,0,0.02-0.01,0.03c0,0.01,0,0.02-0.01,0.03l-0.01,0.03l-0.01,0.02l-0.01,0.02
	l-0.01,0.02v0c0,0.01-0.01,0.02-0.01,0.02l-0.01,0.02c-0.01,0.02-0.02,0.05-0.03,0.07l-0.01,0.02l-0.01,0.02
	c-0.03,0.06-0.07,0.11-0.11,0.17c-0.02,0.02-0.03,0.04-0.05,0.06c-0.02,0.02-0.04,0.04-0.05,0.05c-0.05,0.04-0.1,0.08-0.16,0.12
	l-0.02,0.01c-0.03,0.02-0.06,0.03-0.09,0.04l-0.02,0.01v0c-0.02,0.01-0.03,0.01-0.05,0.02c-0.02,0.01-0.03,0.01-0.05,0.02
	c-0.01,0-0.02,0-0.02,0.01c-0.01,0-0.02,0-0.02,0.01c-0.01,0-0.02,0-0.02,0.01v0l-0.02,0c-0.01,0-0.02,0-0.03,0
	c-0.02,0-0.03,0.01-0.05,0.01c-0.01,0-0.02,0-0.03,0c-0.01,0-0.02,0-0.03,0v0l-0.03,0c-0.01,0-0.02,0-0.03,0h-2.59v-1.28h1.85
	c0.29,0,0.52-0.24,0.52-0.53c0-1.81,0-3.45,0-5.25H49.63z"/>
<path class="st5" d="M52.52,16.03h5.92c0.57,0,1.03,0.47,1.03,1.05v3.33v3.65c0,0.01,0,0.02,0,0.03c0,0.01,0,0.02,0,0.03
	c0,0.01,0,0.02,0,0.03c0,0.01,0,0.02,0,0.03l0,0.03c0,0.01,0,0.02,0,0.03l0,0.03l0,0.03c0,0.01,0,0.02-0.01,0.03
	c0,0.01,0,0.02-0.01,0.03l-0.01,0.03l-0.01,0.02l-0.01,0.02l-0.01,0.02v0c0,0.01-0.01,0.02-0.01,0.02l-0.01,0.02
	c-0.01,0.02-0.02,0.05-0.03,0.07l-0.01,0.02l-0.01,0.02c-0.03,0.06-0.07,0.11-0.11,0.17c-0.02,0.02-0.03,0.04-0.05,0.06
	c-0.02,0.02-0.04,0.04-0.05,0.05c-0.05,0.04-0.1,0.08-0.16,0.12l-0.02,0.01c-0.03,0.02-0.06,0.03-0.09,0.04l-0.02,0.01v0
	c-0.02,0.01-0.03,0.01-0.05,0.02c-0.02,0.01-0.03,0.01-0.05,0.02c-0.01,0-0.02,0-0.02,0.01c-0.01,0-0.02,0-0.02,0.01
	c-0.01,0-0.02,0-0.03,0.01v0l-0.03,0c-0.01,0-0.02,0-0.03,0c-0.02,0-0.03,0.01-0.05,0.01c-0.01,0-0.02,0-0.03,0
	c-0.01,0-0.02,0-0.03,0v0l-0.03,0c-0.01,0-0.02,0-0.03,0h-6.81c-0.01,0-0.02,0-0.03,0c-0.01,0-0.02,0-0.03,0v0
	c-0.01,0-0.02,0-0.03,0c-0.01,0-0.02,0-0.03,0c-0.02,0-0.03,0-0.05-0.01c-0.01,0-0.02,0-0.03,0l-0.03,0v0c-0.01,0-0.02,0-0.02-0.01
	c-0.01,0-0.02,0-0.02-0.01c-0.01,0-0.02,0-0.02-0.01c-0.02,0-0.03-0.01-0.05-0.02c-0.02-0.01-0.03-0.01-0.05-0.02v0l-0.02-0.01
	c-0.01,0-0.02-0.01-0.02-0.01c-0.02-0.01-0.05-0.02-0.07-0.03l-0.02-0.01c-0.04-0.03-0.08-0.05-0.12-0.09l-0.02-0.02l-0.02-0.02
	c-0.01-0.01-0.02-0.02-0.04-0.03l-0.02-0.02c-0.01-0.01-0.02-0.02-0.03-0.04v0l-0.02-0.02c-0.02-0.02-0.03-0.04-0.05-0.06
	l-0.01-0.02l-0.01-0.02l-0.01-0.02l-0.01-0.02l-0.01-0.02l-0.01-0.02l-0.01-0.02c-0.01-0.02-0.02-0.05-0.03-0.07l-0.01-0.02
	l-0.01-0.02v0l-0.01-0.02c0-0.01-0.01-0.02-0.01-0.02l-0.01-0.02c0-0.01,0-0.02-0.01-0.03c0-0.01,0-0.02-0.01-0.03l-0.01-0.03
	l0-0.03l0-0.03c0-0.01,0-0.02,0-0.03c0-0.01,0-0.02,0-0.03c0-0.01,0-0.02,0-0.03l0-0.03l0-0.03c0-0.01,0-0.02,0-0.03v-2.93v-0.72
	c0-0.58,0.46-1.05,1.03-1.05h4.55v1.18h-3.81c-0.29,0-0.52,0.24-0.52,0.53v0.06v2.17c0,0.29,0.23,0.53,0.52,0.53h5.34
	c0.29,0,0.52-0.24,0.52-0.53v-2.23v0v0c0-0.03,0-0.07-0.01-0.1v-1.61h0.01v-1.52c0-0.29-0.23-0.53-0.52-0.53h-5.18V16.03z"/>
<path class="st5" d="M60.71,25.2v-2.51v-5.61c0-0.01,0-0.02,0-0.03c0-0.01,0-0.02,0-0.03c0-0.01,0-0.02,0-0.03c0-0.01,0-0.02,0-0.03
	l0-0.03c0-0.01,0-0.02,0-0.03l0-0.03l0-0.03c0-0.01,0-0.02,0.01-0.03c0-0.01,0-0.02,0.01-0.03l0.01-0.02v0l0.01-0.02l0.01-0.02
	l0.01-0.02v0c0-0.01,0.01-0.02,0.01-0.02l0.01-0.02c0.01-0.02,0.02-0.05,0.03-0.07l0.01-0.02l0.01-0.02
	c0.03-0.06,0.07-0.11,0.11-0.17c0.02-0.02,0.03-0.04,0.05-0.06c0.02-0.02,0.04-0.04,0.05-0.05c0.05-0.04,0.1-0.08,0.16-0.12
	l0.02-0.01c0.03-0.02,0.06-0.03,0.09-0.04l0.02-0.01c0.02-0.01,0.03-0.01,0.05-0.02c0.02-0.01,0.03-0.01,0.05-0.02
	c0.01,0,0.02,0,0.02-0.01c0.01,0,0.02,0,0.02-0.01c0.01,0,0.02,0,0.02-0.01v0l0.02,0c0.01,0,0.02,0,0.03,0
	c0.02,0,0.03-0.01,0.05-0.01c0.01,0,0.02,0,0.03,0v0c0.01,0,0.02,0,0.03,0v0l0.03,0c0.01,0,0.02,0,0.03,0h2.59v1.28h-1.85
	c-0.29,0-0.52,0.24-0.52,0.53c0,1.81,0,5.57,0,7.37H60.71z"/>
<path class="st5" d="M65.25,16.03h5.92c0.57,0,1.03,0.47,1.03,1.05v3.33v3.65c0,0.01,0,0.02,0,0.03c0,0.01,0,0.02,0,0.03
	c0,0.01,0,0.02,0,0.03c0,0.01,0,0.02,0,0.03l0,0.03c0,0.01,0,0.02,0,0.03l0,0.03l0,0.03c0,0.01,0,0.02-0.01,0.03
	c0,0.01,0,0.02-0.01,0.03l-0.01,0.03l-0.01,0.02l-0.01,0.02l-0.01,0.02v0c0,0.01-0.01,0.02-0.01,0.02l-0.01,0.02
	c-0.01,0.02-0.02,0.05-0.03,0.07l-0.01,0.02l-0.01,0.02c-0.03,0.06-0.07,0.11-0.11,0.17c-0.02,0.02-0.03,0.04-0.05,0.06
	c-0.02,0.02-0.04,0.04-0.05,0.05c-0.05,0.04-0.1,0.08-0.16,0.12l-0.02,0.01c-0.03,0.02-0.06,0.03-0.09,0.04l-0.02,0.01v0
	c-0.02,0.01-0.03,0.01-0.05,0.02c-0.02,0.01-0.03,0.01-0.05,0.02c-0.01,0-0.02,0-0.02,0.01c-0.01,0-0.02,0-0.02,0.01
	c-0.01,0-0.02,0-0.02,0.01v0l-0.02,0c-0.01,0-0.02,0-0.03,0c-0.02,0-0.03,0.01-0.05,0.01c-0.01,0-0.02,0-0.03,0
	c-0.01,0-0.02,0-0.03,0v0l-0.03,0c-0.01,0-0.02,0-0.03,0h-6.81c-0.01,0-0.02,0-0.03,0c-0.01,0-0.02,0-0.03,0v0
	c-0.01,0-0.02,0-0.03,0c-0.01,0-0.02,0-0.03,0c-0.02,0-0.03,0-0.05-0.01c-0.01,0-0.02,0-0.03,0l-0.03,0v0c-0.01,0-0.02,0-0.03-0.01
	c-0.01,0-0.02,0-0.02-0.01c-0.01,0-0.02,0-0.02-0.01c-0.02,0-0.03-0.01-0.05-0.02c-0.02-0.01-0.03-0.01-0.05-0.02v0l-0.02-0.01
	c-0.01,0-0.02-0.01-0.02-0.01c-0.02-0.01-0.04-0.02-0.07-0.03l-0.02-0.01c-0.04-0.03-0.08-0.05-0.12-0.09l-0.02-0.02l-0.02-0.02
	c-0.01-0.01-0.02-0.02-0.04-0.03l-0.02-0.02c-0.01-0.01-0.02-0.02-0.03-0.04v0l-0.02-0.02c-0.02-0.02-0.03-0.04-0.05-0.06
	l-0.01-0.02l-0.01-0.02l-0.01-0.02l-0.01-0.02l-0.01-0.02l-0.01-0.02l-0.01-0.02c-0.01-0.02-0.02-0.05-0.03-0.07l-0.01-0.02
	l-0.01-0.02v0l-0.01-0.02c0-0.01-0.01-0.02-0.01-0.02l-0.01-0.02c0-0.01,0-0.02-0.01-0.03c0-0.01,0-0.02-0.01-0.03l-0.01-0.03
	l0-0.03l0-0.03c0-0.01,0-0.02,0-0.03c0-0.01,0-0.02,0-0.03c0-0.01,0-0.02,0-0.03l0-0.03l0-0.03c0-0.01,0-0.02,0-0.03v-2.93v-0.72
	c0-0.58,0.46-1.05,1.03-1.05h4.54v1.18H65.1c-0.29,0-0.52,0.24-0.52,0.53v0.06v2.17c0,0.29,0.23,0.53,0.52,0.53h5.34
	c0.29,0,0.52-0.24,0.52-0.53v-2.23v0v0c0-0.03,0-0.07-0.01-0.1v-1.61h0.01v-1.52c0-0.29-0.23-0.53-0.52-0.53h-5.18V16.03z"/>
<path class="st5" d="M36.63,27.21v2.08v5.98c0,0.01,0,0.02,0,0.03c0,0.01,0,0.02,0,0.03c0,0.01,0,0.02,0,0.03c0,0.01,0,0.02,0,0.03
	l0,0.03c0,0.01,0,0.02,0,0.03l0,0.03l0,0.03c0,0.01,0,0.02,0.01,0.03c0,0.01,0,0.02,0.01,0.03l0.01,0.03l0.01,0.02l0.01,0.02
	l0.01,0.02c0,0.01,0.01,0.02,0.01,0.02l0.01,0.02c0.01,0.02,0.02,0.05,0.03,0.07v0l0.01,0.02l0.01,0.02
	c0.03,0.06,0.07,0.11,0.11,0.17c0.02,0.02,0.03,0.04,0.05,0.06c0.02,0.02,0.04,0.04,0.05,0.05c0.05,0.04,0.1,0.08,0.16,0.12
	l0.02,0.01v0c0.03,0.02,0.06,0.03,0.09,0.04l0.02,0.01v0c0.02,0.01,0.03,0.01,0.05,0.02v0c0.02,0.01,0.03,0.01,0.05,0.02
	c0.01,0,0.02,0,0.02,0.01c0.01,0,0.02,0,0.02,0.01c0.01,0,0.02,0,0.03,0.01l0.03,0c0.01,0,0.02,0,0.03,0c0.02,0,0.03,0,0.05,0.01v0
	c0.01,0,0.02,0,0.03,0c0.01,0,0.02,0,0.03,0l0.03,0c0.01,0,0.02,0,0.03,0v0h7.2v0c0.01,0,0.02,0,0.03,0c0.01,0,0.02,0,0.03,0
	c0.01,0,0.02,0,0.03,0c0.01,0,0.02,0,0.03,0v0c0.02,0,0.03,0,0.05-0.01c0.01,0,0.02,0,0.03,0l0.02,0c0.01,0,0.02,0,0.03-0.01
	c0.01,0,0.02,0,0.02-0.01c0.01,0,0.02,0,0.02-0.01c0.02,0,0.03-0.01,0.05-0.02v0c0-0.02,0.03-0.01,0.05-0.02v0l0.02-0.01
	c0.01,0,0.02-0.01,0.02-0.01c0.02-0.01,0.05-0.02,0.07-0.03v0l0.02-0.01c0.04-0.03,0.08-0.05,0.12-0.09l0.02-0.02l0.02-0.02
	c0.01-0.01,0.02-0.02,0.04-0.03L45.58,36c0.01-0.01,0.02-0.02,0.03-0.04v0l0.02-0.02c0.02-0.02,0.03-0.04,0.05-0.06l0.01-0.02
	l0.01-0.02l0.01-0.02l0.01-0.02v0l0.01-0.02l0.01-0.02l0.01-0.02v0c0.01-0.02,0.02-0.05,0.03-0.07l0.01-0.02l0.01-0.02l0.01-0.02
	c0-0.01,0.01-0.02,0.01-0.02l0.01-0.02c0-0.01,0-0.02,0.01-0.03c0-0.01,0-0.02,0.01-0.03l0.01-0.03l0-0.03l0-0.03
	c0-0.01,0-0.02,0-0.03c0-0.01,0-0.02,0-0.03c0-0.01,0-0.02,0-0.03l0-0.03l0-0.03c0-0.01,0-0.02,0-0.03v-3.4v-0.72
	c0-0.58-0.46-1.05-1.03-1.05h-6.22v1.18h5.48c0.29,0,0.52,0.24,0.52,0.53v0.06v2.64c0,0.29-0.23,0.53-0.52,0.53h-5.72
	c-0.29,0-0.52-0.24-0.52-0.53v-7.3H36.63z"/>
<path class="st5" d="M64.66,36.31V33.8v-5.61c0-0.01,0-0.02,0-0.03c0-0.01,0-0.02,0-0.03c0-0.01,0-0.02,0-0.03c0-0.01,0-0.02,0-0.03
	l0-0.03c0-0.01,0-0.02,0-0.03l0-0.03l0-0.03c0-0.01,0-0.02-0.01-0.03s0-0.02-0.01-0.03v0l-0.01-0.02l-0.01-0.02v0l-0.01-0.02
	l-0.01-0.02c0-0.01-0.01-0.02-0.01-0.02v0l-0.01-0.02c-0.01-0.02-0.02-0.05-0.03-0.07v0l-0.01-0.02l-0.01-0.02
	c-0.03-0.06-0.07-0.11-0.11-0.17c-0.02-0.02-0.03-0.04-0.05-0.06c-0.02-0.02-0.04-0.04-0.05-0.05c-0.05-0.04-0.1-0.08-0.16-0.12
	l-0.02-0.01v0c-0.03-0.02-0.06-0.03-0.09-0.04v0l-0.02-0.01c-0.02-0.01-0.03-0.01-0.05-0.02c-0.02-0.01-0.03-0.01-0.05-0.02
	c-0.01,0-0.02,0-0.02-0.01c-0.01,0-0.02,0-0.02-0.01c-0.01,0-0.02,0-0.02-0.01l-0.03,0v0c-0.01,0-0.02,0-0.03,0
	c-0.02,0-0.03,0-0.05-0.01c-0.01,0-0.02,0-0.03,0c-0.01,0-0.02,0-0.03,0l-0.03,0c-0.01,0-0.02,0-0.03,0h-2.59h-3.18
	c-0.01,0-0.02,0-0.03,0l-0.03,0c-0.01,0-0.02,0-0.03,0c-0.01,0-0.02,0-0.03,0c-0.02,0-0.03,0-0.05,0.01c-0.01,0-0.02,0-0.03,0v0
	l-0.03,0c-0.01,0-0.02,0-0.02,0.01c-0.01,0-0.02,0-0.02,0.01c-0.01,0-0.02,0-0.02,0.01c-0.02,0-0.03,0.01-0.05,0.02
	c-0.02,0.01-0.03,0.01-0.05,0.02l-0.02,0.01v0c-0.03,0.01-0.06,0.03-0.09,0.04v0l-0.02,0.01c-0.06,0.03-0.11,0.07-0.16,0.12
	c-0.02,0.02-0.04,0.03-0.05,0.05c-0.02,0.02-0.03,0.04-0.05,0.06c-0.04,0.05-0.08,0.11-0.11,0.17l-0.01,0.02l-0.01,0.02v0
	c-0.01,0.02-0.02,0.05-0.03,0.07L56.9,27.8v0c0,0.01-0.01,0.02-0.01,0.02l-0.01,0.02l-0.01,0.02v0l-0.01,0.02l-0.01,0.02v0
	c0,0.01,0,0.02-0.01,0.03c0,0.01,0,0.02-0.01,0.03L56.85,28l0,0.03c0,0.01,0,0.02,0,0.03l0,0.03c0,0.01,0,0.02,0,0.03
	c0,0.01,0,0.02,0,0.03c0,0.01,0,0.02,0,0.03c0,0.01,0,0.02,0,0.03v5.61v2.51h1.25c0-1.8,0-5.56,0-7.37c0-0.29,0.23-0.53,0.52-0.53
	h2.44h1.85c0.29,0,0.52,0.24,0.52,0.53c0,1.81,0,5.57,0,7.37H64.66z"/>
<polygon class="st5" points="68.1,31.39 67.53,32.6 70.72,36.33 72.33,36.33 "/>
<polygon class="st5" points="66.84,31.9 66.79,33.96 72.38,27.2 70.77,27.17 "/>
<polygon class="st5" points="67.09,34.63 67.09,36.28 65.85,36.28 65.85,27.14 67.09,27.14 "/>
<path class="st5" d="M48.59,27.23h6.13c0.57,0,1.03,0.47,1.03,1.05v3.33v3.65c0,0.01,0,0.02,0,0.03c0,0.01,0,0.02,0,0.03
	c0,0.01,0,0.02,0,0.03c0,0.01,0,0.02,0,0.03l0,0.03c0,0.01,0,0.02,0,0.03l0,0.03l0,0.03c0,0.01,0,0.02-0.01,0.03
	c0,0.01,0,0.02-0.01,0.03l-0.01,0.03v0l-0.01,0.02L55.7,35.6l-0.01,0.02v0c0,0.01-0.01,0.02-0.01,0.02v0l-0.01,0.02
	c-0.01,0.02-0.02,0.05-0.03,0.07v0l-0.01,0.02l-0.01,0.02c-0.03,0.06-0.07,0.11-0.11,0.17c-0.02,0.02-0.03,0.04-0.05,0.06
	c-0.02,0.02-0.04,0.04-0.05,0.05v0c-0.05,0.04-0.1,0.08-0.16,0.12l-0.02,0.01c-0.03,0.02-0.06,0.03-0.09,0.04v0l-0.02,0.01
	c-0.02,0.01-0.03,0.01-0.05,0.02c-0.02,0.01-0.03,0.01-0.05,0.02c-0.01,0-0.02,0-0.02,0.01c-0.01,0-0.02,0-0.02,0.01
	c-0.01,0-0.02,0-0.03,0.01v0l-0.03,0c-0.01,0-0.02,0-0.03,0c-0.02,0-0.03,0.01-0.05,0.01c-0.01,0-0.02,0-0.03,0v0
	c-0.01,0-0.02,0-0.03,0v0l-0.03,0c-0.01,0-0.02,0-0.03,0h-6.81c-0.01,0-0.02,0-0.03,0c-0.01,0-0.02,0-0.03,0v0
	c-0.01,0-0.02,0-0.03,0v0c-0.01,0-0.02,0-0.03,0c-0.02,0-0.03,0-0.05-0.01c-0.01,0-0.02,0-0.03,0l-0.02,0v0
	c-0.01,0-0.02,0-0.03-0.01c-0.01,0-0.02,0-0.02-0.01c-0.01,0-0.02,0-0.02-0.01c-0.02,0-0.03-0.01-0.05-0.02
	c-0.02-0.01-0.03-0.01-0.05-0.02l-0.02-0.01v0c-0.01,0-0.02-0.01-0.02-0.01c-0.02-0.01-0.05-0.02-0.07-0.03l-0.02-0.01
	c-0.04-0.03-0.08-0.05-0.12-0.09v0l-0.02-0.02l-0.02-0.02v0c-0.01-0.01-0.02-0.02-0.04-0.03L47.18,36
	c-0.01-0.01-0.02-0.02-0.03-0.04l-0.02-0.02c-0.02-0.02-0.03-0.04-0.05-0.06l-0.01-0.02l-0.01-0.02l-0.01-0.02l-0.01-0.02v0
	l-0.01-0.02l-0.01-0.02l-0.01-0.02c-0.01-0.02-0.02-0.05-0.03-0.07l-0.01-0.02v0l-0.01-0.02v0l-0.01-0.02
	c0-0.01-0.01-0.02-0.01-0.02l-0.01-0.02v0c0-0.01,0-0.02-0.01-0.03c0-0.01,0-0.02-0.01-0.03l-0.01-0.03l0-0.03l0-0.03
	c0-0.01,0-0.02,0-0.03c0-0.01,0-0.02,0-0.03c0-0.01,0-0.02,0-0.03l0-0.03l0-0.03c0-0.01,0-0.02,0-0.03v-3.59v-0.72
	c0-0.58,0.46-1.05,1.03-1.05h5.19v1.18h-4.45c-0.29,0-0.52,0.24-0.52,0.53v0.06v2.83c0,0.29,0.23,0.53,0.52,0.53h5.34
	c0.29,0,0.52-0.24,0.52-0.53v-2.23v0v0c0-0.03,0-0.07-0.01-0.1v-1.61h0.01v-1.52c0-0.29-0.23-0.53-0.52-0.53h-5.39V27.23z"/>
<rect x="48.4" y="15.95" class="st5" width="1.22" height="1.25"/>
<path class="st9" d="M296.04,40.34h2.81l0.56,1.32h-0.88v6.94l-1.12-0.91v-6.03h-0.81L296.04,40.34z M290.96,45.79
	c0.23,0,0.5-0.09,0.79-0.28c0.28-0.19,0.58-0.45,0.9-0.79c-0.19-0.26-0.4-0.47-0.62-0.61c-0.23-0.14-0.46-0.21-0.69-0.21
	c-0.26,0-0.48,0.12-0.66,0.36c-0.18,0.24-0.28,0.53-0.28,0.88c0,0.19,0.05,0.34,0.16,0.46C290.67,45.73,290.8,45.79,290.96,45.79z
	 M288.96,41.66l-0.56-1.32h7.89l0.56,1.32h-3.14v1.98c0.22-0.17,0.4-0.29,0.54-0.36c0.15-0.09,0.26-0.13,0.34-0.13
	c0.4,0,0.8,0.31,1.2,0.94c0.41,0.63,0.61,1.25,0.61,1.87c0,0.73-0.21,1.5-0.63,2.31l-1-0.91c0.24-0.39,0.43-0.77,0.56-1.14
	c0.13-0.39,0.19-0.75,0.19-1.09c0-0.19-0.04-0.34-0.12-0.46c-0.09-0.13-0.2-0.2-0.31-0.2c-0.23,0-0.47,0.09-0.71,0.26
	c-0.24,0.17-0.46,0.41-0.66,0.73v3.14l-1.12-0.91v-1.24c-0.19,0.21-0.38,0.37-0.58,0.5c-0.19,0.11-0.37,0.17-0.55,0.17
	c-0.47,0-0.94-0.31-1.41-0.94c-0.47-0.63-0.71-1.25-0.71-1.87c0-0.47,0.15-0.88,0.44-1.22c0.29-0.34,0.65-0.51,1.06-0.51
	c0.26,0,0.54,0.13,0.84,0.4c0.31,0.25,0.61,0.62,0.91,1.09v-2.4H288.96z M283.59,47.45l0.88-1.16l0.87,1.16l-0.87,1.16L283.59,47.45
	z M275.84,41.66l-0.56-1.32h7.12l0.56,1.32h-0.88v6.94l-1.12-0.91v-3.39h-1.56c0.2,0.32,0.35,0.64,0.46,0.98
	c0.11,0.32,0.16,0.63,0.16,0.93c0,0.32-0.09,0.59-0.27,0.81c-0.18,0.23-0.4,0.35-0.66,0.35c-0.52,0-1.05-0.35-1.59-1.06
	c-0.54-0.71-1.01-1.65-1.41-2.83l0.38-0.25c0.29,0.78,0.62,1.41,0.97,1.87c0.36,0.46,0.7,0.69,1.03,0.69c0.14,0,0.26-0.07,0.35-0.2
	c0.1-0.12,0.15-0.28,0.15-0.46c0-0.32-0.08-0.64-0.24-0.96c-0.15-0.33-0.36-0.63-0.64-0.89l0.19-0.3h2.69v-1.32H275.84z
	 M273.28,41.66l-0.56-1.32h1.56c-0.22-0.3-0.39-0.61-0.51-0.93c-0.12-0.31-0.17-0.61-0.17-0.89c0-0.62,0.2-1.14,0.59-1.57
	c0.39-0.44,0.86-0.66,1.41-0.66c0.59,0,1.25,0.31,1.97,0.93c0.72,0.63,1.43,1.5,2.15,2.63l-0.25,0.25c-0.6-0.82-1.19-1.45-1.76-1.9
	c-0.57-0.44-1.09-0.66-1.55-0.66c-0.4,0-0.74,0.14-1.01,0.43c-0.28,0.3-0.42,0.65-0.42,1.06c0,0.6,0.06,1.04,0.19,1.32h0.62
	l0.56,1.32h-0.87v6.94l-1.12-0.91v-6.03H273.28z M267.9,50.18c0.3-0.23,0.53-0.49,0.7-0.78c0.16-0.3,0.22-0.56,0.17-0.79
	c-0.24,0-0.45-0.1-0.61-0.3c-0.18-0.19-0.26-0.42-0.26-0.69c0-0.3,0.09-0.55,0.26-0.76c0.17-0.21,0.37-0.31,0.61-0.31
	c0.24,0,0.45,0.14,0.61,0.41c0.17,0.28,0.26,0.61,0.26,0.99c0,0.52-0.13,1.02-0.4,1.52c-0.27,0.51-0.63,0.94-1.1,1.29L267.9,50.18z
	 M263.9,40.34h2.81l0.56,1.32h-0.87v6.94l-1.12-0.91v-6.03h-0.81L263.9,40.34z M261.03,41.66l-0.56-1.32h3.69l0.56,1.32h-1.01v2.56
	c0,0.34-0.08,0.67-0.25,0.99c-0.18,0.31-0.4,0.56-0.69,0.74l1.75,2.48l-0.63,0.5l-1.87-3.14c-0.23-0.4-0.4-0.72-0.51-0.96
	c-0.12-0.26-0.17-0.47-0.17-0.61c0-0.19,0.05-0.34,0.15-0.46c0.09-0.13,0.21-0.2,0.35-0.2c0.1,0,0.2,0.03,0.31,0.1
	c0.11,0.08,0.21,0.18,0.31,0.31c0.04-0.07,0.07-0.15,0.09-0.26c0.03-0.11,0.04-0.24,0.04-0.4v-1.65H261.03z M254.16,41.66
	l-0.56-1.32h7.12l0.56,1.32h-0.87v6.94l-1.12-0.91v-3.39h-1.56c0.2,0.32,0.35,0.64,0.46,0.98c0.11,0.32,0.16,0.63,0.16,0.93
	c0,0.32-0.09,0.59-0.27,0.81c-0.18,0.23-0.4,0.35-0.66,0.35c-0.52,0-1.05-0.35-1.59-1.06c-0.54-0.71-1.01-1.65-1.41-2.83l0.38-0.25
	c0.29,0.78,0.62,1.41,0.97,1.87c0.36,0.46,0.7,0.69,1.02,0.69c0.14,0,0.26-0.07,0.35-0.2c0.1-0.12,0.15-0.28,0.15-0.46
	c0-0.32-0.08-0.64-0.24-0.96c-0.15-0.33-0.36-0.63-0.64-0.89l0.19-0.3h2.69v-1.32H254.16z M251.03,40.34h2.81l0.56,1.32h-0.87v6.94
	l-1.12-0.91v-6.03h-0.81L251.03,40.34z M244.1,45.22l0.38-0.33c0.25,0.67,0.56,1.2,0.92,1.59c0.37,0.4,0.75,0.6,1.14,0.6
	c0.31,0,0.57-0.15,0.8-0.46c0.22-0.32,0.32-0.7,0.32-1.14c0-0.23-0.02-0.44-0.06-0.63c-0.04-0.19-0.1-0.34-0.19-0.45
	c-0.43,0.33-0.85,0.52-1.25,0.58l-0.44-1.24c0.24-0.14,0.47-0.24,0.67-0.28c0.21-0.04,0.38-0.03,0.51,0.03
	c0.19-0.02,0.35-0.16,0.49-0.41c0.13-0.25,0.2-0.56,0.2-0.91c0-0.23-0.08-0.42-0.22-0.58c-0.14-0.17-0.32-0.25-0.52-0.25
	c-0.24,0-0.5,0.08-0.76,0.23c-0.27,0.15-0.53,0.38-0.8,0.68l-0.56-1.07c0.24-0.26,0.49-0.47,0.75-0.61
	c0.26-0.14,0.51-0.21,0.75-0.21c0.49,0,0.97,0.25,1.42,0.76c0.47,0.5,0.7,1.01,0.7,1.55c0,0.28-0.05,0.53-0.15,0.78
	c-0.1,0.25-0.24,0.46-0.41,0.63c0.09,0.08,0.24,0.14,0.44,0.18c0.2,0.04,0.45,0.07,0.75,0.07c0.16,0,0.32-0.05,0.47-0.15
	c0.15-0.1,0.28-0.24,0.4-0.43v-2.07h-0.75l-0.5-1.32h2.69l0.56,1.32h-0.87v6.94l-1.12-0.91v-2.23c-0.06,0.05-0.13,0.09-0.21,0.12
	c-0.08,0.03-0.18,0.05-0.29,0.05c-0.18,0-0.38-0.07-0.6-0.2c-0.22-0.12-0.43-0.3-0.65-0.55c0.2,0.36,0.3,0.77,0.3,1.21
	c0,0.65-0.14,1.2-0.41,1.65c-0.28,0.46-0.62,0.69-1.01,0.69c-0.54,0-1.07-0.29-1.6-0.88C244.85,46.98,244.43,46.2,244.1,45.22z
	 M238.47,47.45l0.87-1.16l0.88,1.16l-0.88,1.16L238.47,47.45z M234.47,40.34h2.81l0.56,1.32h-0.87v6.94l-1.12-0.91v-6.03h-0.81
	L234.47,40.34z M229.79,41.66l-0.56-1.32h5.5l0.56,1.32h-0.88v6.94l-1.12-0.91v-3.55h-1.13c-0.27,0-0.51,0.13-0.71,0.38
	c-0.19,0.26-0.29,0.58-0.29,0.94c0,0.49,0.09,0.98,0.26,1.47c0.18,0.48,0.42,0.93,0.74,1.34l-0.37,0.33
	c-0.5-0.68-0.89-1.38-1.16-2.1c-0.27-0.72-0.4-1.39-0.4-2.03c0-0.45,0.14-0.84,0.42-1.17c0.27-0.32,0.61-0.48,1.01-0.48h1.62v-1.16
	H229.79z M224.41,50.18c0.3-0.23,0.53-0.49,0.7-0.78c0.16-0.3,0.22-0.56,0.17-0.79c-0.24,0-0.45-0.1-0.61-0.3
	c-0.18-0.19-0.26-0.42-0.26-0.69c0-0.3,0.09-0.55,0.26-0.76c0.17-0.21,0.37-0.31,0.61-0.31s0.45,0.14,0.61,0.41
	c0.17,0.28,0.26,0.61,0.26,0.99c0,0.52-0.13,1.02-0.4,1.52c-0.27,0.51-0.63,0.94-1.1,1.29L224.41,50.18z M220.41,40.34h2.81
	l0.56,1.32h-0.87v6.94l-1.12-0.91v-6.03h-0.81L220.41,40.34z M217.54,41.66l-0.56-1.32h3.69l0.56,1.32h-1.01v2.56
	c0,0.34-0.08,0.67-0.25,0.99c-0.18,0.31-0.4,0.56-0.69,0.74l1.75,2.48l-0.62,0.5l-1.87-3.14c-0.23-0.4-0.4-0.72-0.51-0.96
	c-0.12-0.26-0.17-0.47-0.17-0.61c0-0.19,0.05-0.34,0.15-0.46c0.09-0.13,0.21-0.2,0.35-0.2c0.1,0,0.2,0.03,0.31,0.1
	c0.11,0.08,0.21,0.18,0.31,0.31c0.04-0.07,0.07-0.15,0.09-0.26c0.03-0.11,0.04-0.24,0.04-0.4v-1.65H217.54z M210.67,41.66
	l-0.56-1.32h7.12l0.56,1.32h-0.88v6.94l-1.12-0.91v-3.39h-1.56c0.2,0.32,0.35,0.64,0.46,0.98c0.11,0.32,0.16,0.63,0.16,0.93
	c0,0.32-0.09,0.59-0.27,0.81c-0.18,0.23-0.4,0.35-0.66,0.35c-0.52,0-1.05-0.35-1.59-1.06c-0.54-0.71-1.01-1.65-1.41-2.83l0.38-0.25
	c0.29,0.78,0.62,1.41,0.97,1.87c0.36,0.46,0.7,0.69,1.02,0.69c0.14,0,0.26-0.07,0.35-0.2c0.1-0.12,0.15-0.28,0.15-0.46
	c0-0.32-0.08-0.64-0.24-0.96c-0.15-0.33-0.36-0.63-0.64-0.89l0.19-0.3h2.69v-1.32H210.67z M207.54,40.34h2.81l0.56,1.32h-0.87v6.94
	l-1.12-0.91v-6.03h-0.81L207.54,40.34z M200.61,45.22l0.38-0.33c0.25,0.67,0.56,1.2,0.92,1.59c0.37,0.4,0.75,0.6,1.14,0.6
	c0.31,0,0.57-0.15,0.8-0.46c0.22-0.32,0.32-0.7,0.32-1.14c0-0.23-0.02-0.44-0.06-0.63c-0.04-0.19-0.1-0.34-0.19-0.45
	c-0.43,0.33-0.85,0.52-1.25,0.58l-0.44-1.24c0.24-0.14,0.47-0.24,0.67-0.28c0.21-0.04,0.38-0.03,0.51,0.03
	c0.19-0.02,0.35-0.16,0.49-0.41c0.13-0.25,0.2-0.56,0.2-0.91c0-0.23-0.07-0.42-0.22-0.58c-0.14-0.17-0.32-0.25-0.52-0.25
	c-0.24,0-0.5,0.08-0.76,0.23c-0.27,0.15-0.53,0.38-0.8,0.68l-0.56-1.07c0.24-0.26,0.49-0.47,0.75-0.61
	c0.26-0.14,0.51-0.21,0.75-0.21c0.49,0,0.97,0.25,1.42,0.76c0.47,0.5,0.7,1.01,0.7,1.55c0,0.28-0.05,0.53-0.15,0.78
	c-0.1,0.25-0.24,0.46-0.41,0.63c0.09,0.08,0.24,0.14,0.44,0.18c0.2,0.04,0.45,0.07,0.75,0.07c0.16,0,0.32-0.05,0.47-0.15
	c0.15-0.1,0.28-0.24,0.4-0.43v-2.07h-0.75l-0.5-1.32h2.69l0.56,1.32h-0.88v6.94l-1.12-0.91v-2.23c-0.06,0.05-0.13,0.09-0.21,0.12
	c-0.08,0.03-0.18,0.05-0.29,0.05c-0.18,0-0.38-0.07-0.6-0.2c-0.22-0.12-0.43-0.3-0.65-0.55c0.2,0.36,0.3,0.77,0.3,1.21
	c0,0.65-0.14,1.2-0.41,1.65c-0.28,0.46-0.62,0.69-1.01,0.69c-0.54,0-1.07-0.29-1.6-0.88C201.36,46.98,200.94,46.2,200.61,45.22z
	 M194.98,50.18c0.3-0.23,0.53-0.49,0.7-0.78c0.16-0.3,0.22-0.56,0.17-0.79c-0.24,0-0.45-0.1-0.61-0.3
	c-0.18-0.19-0.26-0.42-0.26-0.69c0-0.3,0.09-0.55,0.26-0.76c0.17-0.21,0.37-0.31,0.61-0.31c0.24,0,0.45,0.14,0.61,0.41
	c0.17,0.28,0.26,0.61,0.26,0.99c0,0.52-0.13,1.02-0.4,1.52c-0.27,0.51-0.63,0.94-1.1,1.29L194.98,50.18z M188.55,41.66l-0.56-1.32
	h5.81l0.56,1.32h-0.96v2.15h-2.25c-0.21,0-0.38,0.08-0.52,0.25c-0.15,0.15-0.22,0.35-0.22,0.58c0,0.09,0.04,0.17,0.11,0.23
	c0.08,0.07,0.16,0.1,0.26,0.1c0.17,0,0.43-0.05,0.77-0.17c0.35-0.11,0.61-0.17,0.79-0.17c0.31,0,0.66,0.29,1.05,0.86
	c0.38,0.57,0.57,1.09,0.57,1.54c0,0.43-0.2,0.8-0.6,1.11c-0.41,0.31-0.9,0.46-1.46,0.46c-0.49,0-1.01-0.21-1.56-0.64
	c-0.54-0.44-1.06-1.05-1.56-1.83l0.31-0.41c0.33,0.53,0.7,0.94,1.1,1.22c0.41,0.29,0.81,0.43,1.21,0.43c0.43,0,0.8-0.1,1.1-0.31
	c0.31-0.21,0.46-0.46,0.46-0.76c0-0.09-0.03-0.17-0.09-0.23c-0.07-0.07-0.14-0.1-0.23-0.1c-0.17,0-0.41,0.06-0.72,0.17
	c-0.31,0.11-0.55,0.17-0.71,0.17c-0.31,0-0.66-0.31-1.05-0.94c-0.38-0.63-0.57-1.2-0.57-1.7c0-0.32,0.08-0.59,0.24-0.81
	c0.16-0.23,0.35-0.35,0.58-0.35h1.87v-0.83H188.55z M183.98,36.37c0.15-0.09,0.3-0.13,0.45-0.13c0.32,0,0.64,0.14,0.97,0.41
	c0.33,0.26,0.62,0.64,0.89,1.12c0.07,0.12,0.22,0.4,0.45,0.83l0.86,1.65h-0.5l-1.19-2.07c-0.1-0.17-0.23-0.3-0.39-0.4
	c-0.17-0.09-0.35-0.13-0.54-0.13c-0.18,0-0.35,0.04-0.51,0.12L183.98,36.37z M185.36,40.34h2.81l0.56,1.32h-0.88v6.94l-1.12-0.91
	v-6.03h-0.81L185.36,40.34z M182.48,41.66l-0.56-1.32h3.69l0.56,1.32h-1.01v2.56c0,0.34-0.08,0.67-0.25,0.99
	c-0.17,0.31-0.4,0.56-0.69,0.74l1.75,2.48l-0.62,0.5l-1.87-3.14c-0.23-0.4-0.4-0.72-0.51-0.96c-0.12-0.26-0.17-0.47-0.17-0.61
	c0-0.19,0.05-0.34,0.15-0.46c0.09-0.13,0.21-0.2,0.35-0.2c0.1,0,0.2,0.03,0.31,0.1c0.11,0.08,0.21,0.18,0.31,0.31
	c0.04-0.07,0.07-0.15,0.09-0.26c0.02-0.11,0.04-0.24,0.04-0.4v-1.65H182.48z M174.42,41.66l-0.56-1.32h5.31l0.56,1.32h-0.88v6.94
	l-1.12-0.91v-2.56h-1.37c-0.07,0-0.12,0.04-0.18,0.12c-0.05,0.09-0.07,0.19-0.07,0.3v0.58c0,0.09-0.03,0.17-0.08,0.23
	c-0.05,0.07-0.11,0.1-0.18,0.1c-0.23,0-0.48-0.23-0.74-0.68c-0.26-0.46-0.39-0.9-0.39-1.31c0-0.19,0.05-0.34,0.15-0.46
	c0.09-0.13,0.21-0.2,0.35-0.2h2.5v-2.15H174.42z M169.86,36.37c0.15-0.09,0.3-0.13,0.45-0.13c0.32,0,0.64,0.14,0.97,0.41
	c0.33,0.26,0.62,0.64,0.89,1.12c0.07,0.12,0.22,0.4,0.45,0.83l0.86,1.65h-0.5l-1.19-2.07c-0.1-0.17-0.23-0.3-0.39-0.4
	c-0.17-0.09-0.35-0.13-0.54-0.13c-0.18,0-0.35,0.04-0.51,0.12L169.86,36.37z M170.74,44.47h1.87v-2.81h-1.87V44.47z M168.64,41.66
	l-0.56-1.32h5.97l0.56,1.32h-0.88v6.94l-1.12-0.91v-1.9h-1.87v0.66c0,0.13-0.03,0.25-0.09,0.35c-0.07,0.1-0.14,0.15-0.23,0.15
	c-0.18,0-0.48-0.28-0.89-0.84c-0.41-0.56-0.61-0.97-0.61-1.22c0-0.11,0.03-0.21,0.09-0.3c0.07-0.08,0.14-0.12,0.23-0.12h0.38v-2.81
	H168.64z M166.26,47.45l0.87-1.16l0.88,1.16l-0.88,1.16L166.26,47.45z M160.6,38.69c0-0.51,0.15-0.94,0.45-1.29
	c0.3-0.35,0.66-0.53,1.09-0.53c0.52,0,0.99,0.33,1.41,0.98c0.43,0.66,0.7,1.49,0.84,2.5h0.69l0.56,1.32h-0.87v6.94l-1.12-0.91v-6.03
	h-0.81l-0.56-1.32h1.56c-0.08-0.65-0.27-1.18-0.55-1.6c-0.28-0.42-0.6-0.63-0.95-0.63c-0.26,0-0.47,0.12-0.65,0.36
	c-0.18,0.24-0.27,0.53-0.27,0.88c0,0.24,0.04,0.46,0.11,0.66h-0.62C160.7,39.63,160.6,39.19,160.6,38.69z M160.26,45.71
	c0.26-0.12,0.46-0.3,0.61-0.53c0.16-0.22,0.24-0.46,0.24-0.71c0-0.21-0.1-0.39-0.3-0.55c-0.21-0.14-0.45-0.22-0.74-0.22
	c-0.27,0-0.5,0.04-0.69,0.13L160.26,45.71z M158.83,46.13c0.44,0,0.77-0.05,1-0.17l-0.94-1.9c-0.25,0.17-0.45,0.36-0.59,0.6
	c-0.15,0.24-0.23,0.48-0.23,0.73c0,0.21,0.08,0.39,0.23,0.53C158.44,46.05,158.62,46.13,158.83,46.13z M156.99,41.66l-0.56-1.32
	h6.09l0.56,1.32h-0.87v6.94l-1.12-0.91v-1.24c-0.17,0.24-0.4,0.42-0.66,0.55c-0.27,0.13-0.57,0.2-0.9,0.2
	c-0.55,0-1.04-0.28-1.47-0.84c-0.43-0.55-0.65-1.18-0.65-1.88c0-0.55,0.18-1.02,0.55-1.41c0.37-0.39,0.81-0.58,1.34-0.58
	c0.31,0,0.62,0.09,0.92,0.28c0.32,0.19,0.61,0.45,0.88,0.79v-1.9H156.99z M151.62,50.18c0.3-0.23,0.53-0.49,0.7-0.78
	c0.16-0.3,0.22-0.56,0.18-0.79c-0.24,0-0.45-0.1-0.61-0.3c-0.18-0.19-0.26-0.42-0.26-0.69c0-0.3,0.09-0.55,0.26-0.76
	c0.17-0.21,0.37-0.31,0.61-0.31c0.24,0,0.45,0.14,0.61,0.41c0.17,0.28,0.26,0.61,0.26,0.99c0,0.52-0.13,1.02-0.4,1.52
	c-0.27,0.51-0.63,0.94-1.1,1.29L151.62,50.18z M145.9,40.34h2.06c0.41,0,0.82,0.3,1.25,0.89c0.42,0.58,0.63,1.17,0.63,1.75
	c0,0.26-0.03,0.51-0.1,0.73c-0.07,0.23-0.16,0.43-0.27,0.6c0.24,0.26,0.42,0.54,0.55,0.83c0.13,0.29,0.2,0.56,0.2,0.83
	c0,0.52-0.14,0.98-0.42,1.39c-0.28,0.41-0.64,0.66-1.07,0.76l0.94,1.9l-0.62,0.41l-0.75-2.23c-0.45,0.07-0.85-0.03-1.19-0.28
	c-0.33-0.24-0.5-0.56-0.5-0.96c0-0.3,0.05-0.55,0.16-0.76c0.11-0.21,0.24-0.31,0.4-0.31c0.15,0,0.3,0.07,0.46,0.2
	c0.17,0.13,0.33,0.31,0.47,0.55c0.31,0,0.57-0.13,0.8-0.38c0.22-0.26,0.32-0.58,0.32-0.94c0-0.12-0.04-0.24-0.11-0.35
	c-0.08-0.12-0.19-0.23-0.32-0.31c-0.34,0.22-0.65,0.33-0.94,0.33c-0.18,0-0.39-0.03-0.62-0.08l-0.56-1.32h0.81
	c0.48,0,0.9-0.12,1.24-0.35c0.34-0.22,0.51-0.49,0.51-0.81c0-0.15-0.1-0.29-0.29-0.41c-0.2-0.11-0.44-0.17-0.71-0.17h-1.87
	L145.9,40.34z M141.86,43.56c0.42,0,0.77-0.19,1.06-0.58c0.29-0.39,0.44-0.85,0.44-1.41c0-0.13-0.04-0.25-0.12-0.35
	c-0.09-0.1-0.2-0.15-0.31-0.15c-0.45,0-0.83,0.18-1.15,0.53c-0.32,0.35-0.47,0.78-0.47,1.29c0,0.19,0.05,0.34,0.16,0.46
	C141.56,43.5,141.7,43.56,141.86,43.56z M140.36,41.91c0-0.53,0.19-0.98,0.56-1.34c0.38-0.37,0.84-0.56,1.37-0.56
	c0.44,0,0.88,0.29,1.32,0.86c0.45,0.57,0.67,1.14,0.67,1.7c0,0.6-0.2,1.1-0.6,1.52c-0.41,0.42-0.9,0.63-1.46,0.63l1.69,1.98
	c0.2,0.25,0.35,0.5,0.46,0.73c0.11,0.23,0.16,0.43,0.16,0.6c0,0.3-0.07,0.58-0.22,0.84c-0.14,0.26-0.34,0.48-0.59,0.64l-1-1.16
	c0.19-0.09,0.34-0.21,0.45-0.36c0.12-0.15,0.18-0.31,0.18-0.46c0-0.23-0.02-0.43-0.06-0.6c-0.04-0.18-0.1-0.31-0.19-0.4l-1.56-1.82
	c-0.38-0.42-0.67-0.87-0.87-1.36C140.46,42.87,140.36,42.38,140.36,41.91z M134.68,40.34h2.06c0.41,0,0.82,0.3,1.25,0.89
	c0.42,0.58,0.62,1.17,0.62,1.75c0,0.26-0.03,0.51-0.1,0.73c-0.07,0.23-0.16,0.43-0.27,0.6c0.24,0.26,0.42,0.54,0.55,0.83
	c0.13,0.29,0.2,0.56,0.2,0.83c0,0.52-0.14,0.98-0.42,1.39c-0.28,0.41-0.64,0.66-1.07,0.76l0.94,1.9l-0.62,0.41l-0.75-2.23
	c-0.45,0.07-0.85-0.03-1.19-0.28c-0.33-0.24-0.5-0.56-0.5-0.96c0-0.3,0.05-0.55,0.16-0.76c0.11-0.21,0.24-0.31,0.4-0.31
	c0.15,0,0.3,0.07,0.46,0.2c0.17,0.13,0.33,0.31,0.47,0.55c0.31,0,0.57-0.13,0.8-0.38c0.22-0.26,0.32-0.58,0.32-0.94
	c0-0.12-0.04-0.24-0.11-0.35c-0.08-0.12-0.19-0.23-0.32-0.31c-0.34,0.22-0.65,0.33-0.94,0.33c-0.18,0-0.39-0.03-0.62-0.08
	l-0.56-1.32h0.81c0.48,0,0.9-0.12,1.24-0.35c0.34-0.22,0.51-0.49,0.51-0.81c0-0.15-0.1-0.29-0.29-0.41
	c-0.2-0.11-0.44-0.17-0.71-0.17h-1.87L134.68,40.34z M125.28,45.13v-1.32h5v1.32H125.28z M122.91,43.81c-0.24,0-0.45-0.12-0.61-0.35
	c-0.17-0.22-0.26-0.49-0.26-0.81c0-0.32,0.09-0.59,0.26-0.81c0.17-0.23,0.37-0.35,0.61-0.35s0.45,0.12,0.61,0.35
	c0.17,0.22,0.26,0.49,0.26,0.81c0,0.32-0.09,0.59-0.26,0.81C123.36,43.7,123.15,43.81,122.91,43.81z M122.04,47.37
	c0-0.32,0.09-0.59,0.26-0.81c0.17-0.23,0.37-0.35,0.61-0.35s0.45,0.12,0.61,0.35c0.17,0.22,0.26,0.49,0.26,0.81
	c0,0.34-0.09,0.63-0.26,0.88c-0.17,0.24-0.37,0.36-0.61,0.36s-0.45-0.12-0.61-0.36C122.12,48,122.04,47.71,122.04,47.37z
	 M118.04,40.34h2.81l0.56,1.32h-0.87v6.94l-1.13-0.91v-6.03h-0.81L118.04,40.34z M114.91,45.22c0.32,0,0.64-0.09,0.97-0.28
	c0.33-0.19,0.65-0.45,0.96-0.79c-0.22-0.24-0.44-0.42-0.68-0.55c-0.24-0.13-0.47-0.2-0.7-0.2c-0.27,0-0.51,0.12-0.71,0.36
	c-0.19,0.24-0.29,0.53-0.29,0.88c0,0.15,0.04,0.29,0.12,0.41C114.69,45.16,114.79,45.22,114.91,45.22z M114.41,47.53
	c0.47,0,0.92-0.09,1.34-0.28c0.42-0.19,0.78-0.45,1.1-0.79v-0.58c-0.22,0.24-0.44,0.42-0.68,0.55c-0.24,0.13-0.47,0.2-0.7,0.2
	c-0.44,0-0.88-0.31-1.32-0.94c-0.45-0.63-0.67-1.25-0.67-1.87c0-0.47,0.15-0.88,0.44-1.22c0.29-0.34,0.65-0.51,1.06-0.51
	c0.25,0,0.54,0.12,0.86,0.36c0.33,0.24,0.66,0.59,1.01,1.04v-1.82h-4.12v2.31c0,0.37-0.06,0.72-0.19,1.02
	c-0.12,0.31-0.28,0.55-0.5,0.71c0.32,0.57,0.68,1.02,1.1,1.34C113.55,47.37,113.98,47.53,114.41,47.53z M110.19,41.66l-0.56-1.32
	h8.66l0.56,1.32h-0.87v6.94l-1.12-0.91v-0.41c-0.35,0.47-0.73,0.84-1.15,1.11c-0.42,0.25-0.85,0.38-1.29,0.38
	c-0.36,0-0.77-0.19-1.24-0.56c-0.47-0.37-0.95-0.9-1.45-1.59c-0.42-0.58-0.73-1.05-0.92-1.39c-0.22-0.39-0.32-0.69-0.32-0.93
	c0-0.15,0.04-0.29,0.11-0.41c0.08-0.11,0.16-0.17,0.26-0.17c0.11,0,0.21,0.04,0.31,0.12c0.09,0.07,0.17,0.17,0.25,0.3
	c0.06-0.07,0.1-0.15,0.14-0.26c0.03-0.12,0.05-0.25,0.05-0.4v-1.82H110.19z M107.06,40.34h2.81l0.56,1.32h-0.87v6.94l-1.12-0.91
	v-6.03h-0.81L107.06,40.34z M103.55,44.39c0.08-0.13,0.15-0.31,0.19-0.55c0.04-0.24,0.06-0.53,0.06-0.86c0-0.39-0.08-0.72-0.24-0.99
	c-0.16-0.28-0.35-0.41-0.57-0.41c-0.16,0-0.29,0.1-0.4,0.31c-0.11,0.21-0.16,0.46-0.16,0.76c0,0.28,0.1,0.57,0.3,0.88
	C102.93,43.84,103.2,44.13,103.55,44.39z M100.78,41.66l-0.62-1.32h7.16l0.56,1.32H107v6.94l-1.12-0.91v-6.03h-1.45
	c0.16,0.21,0.28,0.47,0.38,0.79c0.08,0.33,0.12,0.7,0.12,1.11c0,0.78-0.18,1.5-0.54,2.17c-0.35,0.65-0.82,1.11-1.4,1.39l1.31,1.74
	l-0.56,0.58l-1.31-2.15c-0.3,0.04-0.56-0.04-0.79-0.26c-0.23-0.21-0.34-0.48-0.34-0.81c0-0.19,0.05-0.34,0.15-0.46
	c0.09-0.13,0.21-0.2,0.35-0.2c0.12,0,0.24,0.04,0.35,0.13c0.1,0.09,0.17,0.21,0.21,0.36c0.44-0.26,0.77-0.65,1-1.16
	c-0.68-0.44-1.19-0.99-1.55-1.64c-0.36-0.65-0.42-1.18-0.2-1.59H100.78z M92.85,41.66l-0.56-1.32h5.31l0.56,1.32h-0.87v6.94
	l-1.12-0.91v-2.56h-1.37c-0.07,0-0.12,0.04-0.17,0.12c-0.05,0.09-0.08,0.19-0.08,0.3v0.58c0,0.09-0.02,0.17-0.07,0.23
	c-0.05,0.07-0.11,0.1-0.17,0.1c-0.23,0-0.48-0.23-0.74-0.68c-0.26-0.46-0.39-0.9-0.39-1.31c0-0.19,0.05-0.34,0.15-0.46
	c0.09-0.13,0.21-0.2,0.35-0.2h2.5v-2.15H92.85z M89.73,40.34h2.81l0.56,1.32h-0.87v6.94L91.1,47.7v-6.03h-0.81L89.73,40.34z
	 M86.1,42.08c0.18,0,0.32-0.08,0.44-0.25c0.12-0.15,0.19-0.35,0.19-0.58c0-0.23-0.06-0.42-0.19-0.58c-0.12-0.17-0.26-0.25-0.44-0.25
	c-0.19,0-0.35,0.08-0.47,0.25c-0.13,0.17-0.17,0.36-0.15,0.58c0.03,0.24,0.11,0.44,0.22,0.6C85.82,42,85.96,42.08,86.1,42.08z
	 M84.48,41.33c0-0.45,0.13-0.84,0.39-1.17c0.26-0.32,0.57-0.48,0.92-0.48c0.36,0,0.67,0.15,0.92,0.46c0.26,0.31,0.39,0.68,0.39,1.11
	c0,0.37-0.1,0.7-0.29,0.98c-0.2,0.26-0.44,0.4-0.71,0.4c-0.17,0-0.29-0.02-0.37-0.05c0.02,0.22,0.16,0.4,0.4,0.53
	c0.23,0.14,0.52,0.21,0.85,0.21l0.5,1.32h-0.69c-0.34,0-0.64,0.09-0.89,0.26c-0.24,0.18-0.36,0.39-0.36,0.64
	c0,0.15,0.08,0.29,0.23,0.41c0.14,0.11,0.32,0.17,0.52,0.17c0.32,0,0.68-0.14,1.07-0.41c0.39-0.26,0.78-0.65,1.17-1.16v-2.89h-0.5
	l-0.62-1.32h2.56l0.56,1.32h-0.88v6.94l-1.12-0.91v-1.41c-0.25,0.34-0.53,0.61-0.84,0.79c-0.3,0.19-0.6,0.28-0.91,0.28
	c-0.45,0-0.91-0.27-1.37-0.81c-0.46-0.53-0.69-1.06-0.69-1.59c0-0.34,0.09-0.65,0.27-0.93c0.19-0.28,0.43-0.46,0.72-0.56
	c-0.37-0.18-0.68-0.46-0.91-0.86C84.59,42.22,84.48,41.79,84.48,41.33z M82.41,45.63v-3.97h-2v1.82c0,0.6,0.2,1.1,0.59,1.52
	C81.39,45.42,81.86,45.63,82.41,45.63z M78.77,41.66l-0.56-1.32h5.64l0.56,1.32h-0.87v6.94l-1.12-0.91v-0.91l-2.62,1.9l-0.5-0.99
	l2.39-1.57c-0.71-0.31-1.28-0.72-1.72-1.24c-0.44-0.52-0.66-1.04-0.66-1.57v-1.65H78.77z"/>
<path class="st9" d="M416.18,47.37c0.27,0,0.51-0.1,0.71-0.31c0.19-0.21,0.29-0.46,0.29-0.76c0-0.24-0.05-0.48-0.15-0.71
	c-0.1-0.24-0.24-0.45-0.41-0.61l-0.11,0.18c-0.55,0.86-0.82,1.4-0.82,1.64c0,0.15,0.05,0.29,0.15,0.41
	C415.93,47.31,416.04,47.37,416.18,47.37 M413.5,41.17l0.56-0.66l2.25,3.06l1.81-3.06l0.75,1.16L417,44.39
	c0.4,0.44,0.71,0.87,0.92,1.29c0.22,0.42,0.32,0.79,0.32,1.11c0,0.47-0.13,0.88-0.39,1.22c-0.26,0.34-0.57,0.51-0.92,0.51
	c-0.47,0-0.94-0.25-1.41-0.74c-0.48-0.5-0.71-0.99-0.71-1.49c0-0.21,0.09-0.5,0.28-0.88c0.16-0.33,0.42-0.78,0.79-1.36L413.5,41.17z
	 M408.16,46.04c0-0.21,0.03-0.42,0.1-0.63c0.06-0.22,0.15-0.42,0.27-0.61l3.12-4.63l0.81,0.91l-2.87,4.38
	c-0.18,0.29-0.32,0.55-0.41,0.78c-0.1,0.22-0.15,0.4-0.15,0.55c0,0.21,0.1,0.39,0.29,0.53c0.2,0.14,0.44,0.21,0.71,0.21
	c0.42,0,0.82-0.14,1.2-0.41c0.38-0.28,0.71-0.66,0.99-1.16l0.75,1.07c-0.35,0.55-0.73,0.98-1.12,1.27c-0.41,0.31-0.8,0.46-1.19,0.46
	c-0.55,0-1.1-0.3-1.66-0.91C408.44,47.24,408.16,46.64,408.16,46.04z M405.26,46.67c0.23,0,0.42-0.17,0.57-0.5
	c0.16-0.32,0.24-0.71,0.24-1.17c0-0.75-0.14-1.39-0.43-1.93c-0.27-0.53-0.61-0.79-1.01-0.79c-0.23,0-0.42,0.18-0.58,0.53
	c-0.16,0.34-0.24,0.76-0.24,1.26c0,0.72,0.14,1.33,0.42,1.85C404.52,46.42,404.86,46.67,405.26,46.67z M402.89,44.84
	c0-0.8,0.25-1.59,0.74-2.36c0.49-0.76,1-1.14,1.51-1.14c0.52,0,0.96,0.28,1.32,0.84c0.37,0.57,0.55,1.26,0.55,2.05
	c0,0.79-0.25,1.57-0.75,2.31c-0.51,0.75-1.03,1.12-1.56,1.12c-0.5,0-0.93-0.28-1.29-0.83C403.06,46.29,402.89,45.62,402.89,44.84z
	 M396.99,41.99c0-0.45,0.19-0.84,0.56-1.17c0.38-0.32,0.84-0.48,1.37-0.48c0.54,0,1,0.11,1.37,0.33l0.25,1.49
	c-0.34-0.17-0.92-0.25-1.75-0.25c-0.29,0-0.54,0.07-0.75,0.21c-0.21,0.14-0.31,0.32-0.31,0.53c0,0.15,0.05,0.3,0.15,0.45
	c0.1,0.15,0.24,0.28,0.41,0.38c0.34-0.17,0.72-0.25,1.12-0.25c0.2,0,0.47,0.08,0.81,0.25l0.37,1.4c-0.26-0.17-0.65-0.25-1.19-0.25
	c-0.32,0-0.6,0.13-0.84,0.38c-0.23,0.26-0.35,0.58-0.35,0.94c0,0.3,0.07,0.55,0.2,0.76c0.13,0.21,0.3,0.31,0.49,0.31
	c0.17,0,0.34-0.04,0.5-0.13c0.15-0.09,0.27-0.21,0.38-0.36c-0.04-0.12-0.06-0.26-0.06-0.41c0-0.13,0.05-0.25,0.15-0.35
	c0.09-0.1,0.21-0.15,0.35-0.15c0.29,0,0.54,0.12,0.75,0.36c0.21,0.24,0.31,0.53,0.31,0.88c0,0.19-0.06,0.36-0.17,0.53
	c-0.11,0.17-0.26,0.29-0.45,0.38l1,1.98l-0.63,0.5l-0.81-2.3c-0.65,0.24-1.3,0.05-1.95-0.58c-0.66-0.63-0.99-1.38-0.99-2.25
	c0-0.3,0.05-0.57,0.15-0.81c0.1-0.24,0.24-0.41,0.41-0.51c-0.27-0.21-0.48-0.47-0.64-0.79C397.07,42.69,396.99,42.35,396.99,41.99z
	 M393.71,47.37c0.27,0,0.51-0.1,0.71-0.31c0.19-0.21,0.29-0.46,0.29-0.76c0-0.24-0.05-0.48-0.15-0.71c-0.1-0.24-0.24-0.45-0.41-0.61
	l-0.11,0.18c-0.55,0.86-0.82,1.4-0.82,1.64c0,0.15,0.05,0.29,0.15,0.41C393.46,47.31,393.57,47.37,393.71,47.37z M391.03,41.17
	l0.56-0.66l2.25,3.06l1.81-3.06l0.75,1.16l-1.87,2.73c0.4,0.44,0.71,0.87,0.92,1.29c0.22,0.42,0.32,0.79,0.32,1.11
	c0,0.47-0.13,0.88-0.39,1.22c-0.26,0.34-0.57,0.51-0.92,0.51c-0.47,0-0.94-0.25-1.41-0.74c-0.47-0.5-0.71-0.99-0.71-1.49
	c0-0.21,0.09-0.5,0.27-0.88c0.16-0.33,0.42-0.78,0.79-1.36L391.03,41.17z M385.98,40.59c0.62-0.55,1.24-0.83,1.87-0.83
	c0.52,0,1.04,0.34,1.56,1.03c0.52,0.68,0.79,1.36,0.79,2.03c0,0.57-0.17,1.12-0.51,1.64c-0.33,0.52-0.78,0.91-1.34,1.17l1.37,3.39
	l-0.69,0.25l-1.06-3.39c-0.36,0-0.67-0.15-0.92-0.46c-0.26-0.31-0.39-0.68-0.39-1.11c0-0.21,0.05-0.39,0.15-0.53
	c0.09-0.14,0.21-0.21,0.35-0.21c0.14,0,0.28,0.06,0.41,0.18c0.13,0.11,0.25,0.27,0.34,0.48c0.42-0.14,0.77-0.42,1.04-0.83
	c0.27-0.42,0.4-0.89,0.4-1.41c0-0.25-0.1-0.47-0.31-0.64c-0.21-0.18-0.46-0.26-0.75-0.26c-0.23,0-0.47,0.07-0.74,0.22
	c-0.27,0.14-0.54,0.35-0.83,0.61L385.98,40.59z M376.53,45.13v-1.32h5v1.32H376.53z M370.82,40.34h2.06c0.41,0,0.82,0.3,1.25,0.89
	c0.42,0.58,0.63,1.17,0.63,1.75c0,0.26-0.03,0.51-0.1,0.73c-0.07,0.23-0.16,0.43-0.27,0.6c0.24,0.26,0.42,0.54,0.55,0.83
	c0.13,0.29,0.2,0.56,0.2,0.83c0,0.52-0.14,0.98-0.42,1.39c-0.28,0.41-0.64,0.66-1.07,0.76l0.94,1.9l-0.62,0.41l-0.75-2.23
	c-0.45,0.07-0.85-0.03-1.19-0.28c-0.33-0.24-0.5-0.56-0.5-0.96c0-0.3,0.05-0.55,0.16-0.76c0.11-0.21,0.24-0.31,0.4-0.31
	c0.15,0,0.3,0.07,0.46,0.2c0.17,0.13,0.32,0.31,0.47,0.55c0.31,0,0.57-0.13,0.8-0.38c0.22-0.26,0.32-0.58,0.32-0.94
	c0-0.12-0.04-0.24-0.11-0.35c-0.08-0.12-0.19-0.23-0.33-0.31c-0.34,0.22-0.65,0.33-0.94,0.33c-0.18,0-0.39-0.03-0.62-0.08
	l-0.56-1.32h0.81c0.48,0,0.9-0.12,1.24-0.35c0.34-0.22,0.51-0.49,0.51-0.81c0-0.15-0.1-0.29-0.29-0.41
	c-0.2-0.11-0.44-0.17-0.71-0.17h-1.87L370.82,40.34z M365.24,40.59c0.62-0.55,1.24-0.83,1.87-0.83c0.52,0,1.04,0.34,1.56,1.03
	c0.52,0.68,0.79,1.36,0.79,2.03c0,0.57-0.17,1.12-0.51,1.64c-0.33,0.52-0.78,0.91-1.34,1.17l1.37,3.39l-0.69,0.25l-1.06-3.39
	c-0.36,0-0.67-0.15-0.92-0.46c-0.26-0.31-0.39-0.68-0.39-1.11c0-0.21,0.05-0.39,0.15-0.53c0.09-0.14,0.21-0.21,0.35-0.21
	c0.14,0,0.28,0.06,0.41,0.18c0.13,0.11,0.25,0.27,0.34,0.48c0.42-0.14,0.77-0.42,1.04-0.83c0.27-0.42,0.4-0.89,0.4-1.41
	c0-0.25-0.1-0.47-0.31-0.64c-0.21-0.18-0.46-0.26-0.75-0.26c-0.22,0-0.47,0.07-0.74,0.22c-0.27,0.14-0.54,0.35-0.82,0.61
	L365.24,40.59z M359.58,40.34h2.06c0.41,0,0.82,0.3,1.25,0.89c0.42,0.58,0.62,1.17,0.62,1.75c0,0.26-0.03,0.51-0.1,0.73
	c-0.07,0.23-0.16,0.43-0.27,0.6c0.24,0.26,0.42,0.54,0.55,0.83c0.13,0.29,0.2,0.56,0.2,0.83c0,0.52-0.14,0.98-0.42,1.39
	c-0.28,0.41-0.64,0.66-1.07,0.76l0.94,1.9l-0.62,0.41l-0.75-2.23c-0.45,0.07-0.85-0.03-1.19-0.28c-0.33-0.24-0.5-0.56-0.5-0.96
	c0-0.3,0.05-0.55,0.16-0.76c0.11-0.21,0.24-0.31,0.4-0.31c0.15,0,0.3,0.07,0.46,0.2c0.17,0.13,0.32,0.31,0.48,0.55
	c0.31,0,0.57-0.13,0.8-0.38c0.22-0.26,0.33-0.58,0.33-0.94c0-0.12-0.04-0.24-0.11-0.35c-0.08-0.12-0.19-0.23-0.32-0.31
	c-0.34,0.22-0.65,0.33-0.94,0.33c-0.18,0-0.39-0.03-0.63-0.08l-0.56-1.32h0.81c0.48,0,0.9-0.12,1.24-0.35
	c0.34-0.22,0.51-0.49,0.51-0.81c0-0.15-0.1-0.29-0.29-0.41c-0.2-0.11-0.44-0.17-0.71-0.17h-1.87L359.58,40.34z M354.01,40.59
	c0.62-0.55,1.24-0.83,1.87-0.83c0.52,0,1.04,0.34,1.56,1.03c0.52,0.68,0.79,1.36,0.79,2.03c0,0.57-0.17,1.12-0.51,1.64
	c-0.33,0.52-0.78,0.91-1.34,1.17l1.37,3.39l-0.69,0.25l-1.06-3.39c-0.36,0-0.67-0.15-0.92-0.46c-0.26-0.31-0.39-0.68-0.39-1.11
	c0-0.21,0.05-0.39,0.15-0.53c0.09-0.14,0.21-0.21,0.35-0.21c0.14,0,0.28,0.06,0.41,0.18c0.13,0.11,0.25,0.27,0.34,0.48
	c0.42-0.14,0.77-0.42,1.04-0.83c0.27-0.42,0.4-0.89,0.4-1.41c0-0.25-0.1-0.47-0.31-0.64c-0.21-0.18-0.46-0.26-0.75-0.26
	c-0.23,0-0.47,0.07-0.74,0.22c-0.27,0.14-0.54,0.35-0.82,0.61L354.01,40.59z M350.81,46.67c0.22,0,0.42-0.17,0.57-0.5
	c0.16-0.32,0.24-0.71,0.24-1.17c0-0.75-0.14-1.39-0.42-1.93c-0.27-0.53-0.61-0.79-1.01-0.79c-0.23,0-0.42,0.18-0.58,0.53
	c-0.16,0.34-0.24,0.76-0.24,1.26c0,0.72,0.14,1.33,0.42,1.85C350.07,46.42,350.41,46.67,350.81,46.67z M348.44,44.84
	c0-0.8,0.25-1.59,0.74-2.36c0.49-0.76,1-1.14,1.51-1.14c0.52,0,0.96,0.28,1.32,0.84c0.37,0.57,0.55,1.26,0.55,2.05
	c0,0.79-0.25,1.57-0.75,2.31c-0.51,0.75-1.03,1.12-1.56,1.12c-0.5,0-0.93-0.28-1.29-0.83C348.61,46.29,348.44,45.62,348.44,44.84z
	 M343.06,43.81c-0.24,0-0.45-0.12-0.61-0.35c-0.17-0.22-0.26-0.49-0.26-0.81c0-0.32,0.09-0.59,0.26-0.81
	c0.17-0.23,0.37-0.35,0.61-0.35c0.24,0,0.45,0.12,0.61,0.35c0.17,0.22,0.26,0.49,0.26,0.81c0,0.32-0.09,0.59-0.26,0.81
	C343.51,43.7,343.3,43.81,343.06,43.81z M342.19,47.37c0-0.32,0.09-0.59,0.26-0.81c0.17-0.23,0.37-0.35,0.61-0.35
	c0.24,0,0.45,0.12,0.61,0.35c0.17,0.22,0.26,0.49,0.26,0.81c0,0.34-0.09,0.63-0.26,0.88c-0.17,0.24-0.37,0.36-0.61,0.36
	c-0.24,0-0.45-0.12-0.61-0.36C342.28,48,342.19,47.71,342.19,47.37z M333.25,41.66l-0.56-1.32H338l0.56,1.32h-0.88v6.94l-1.12-0.91
	v-2.56h-1.37c-0.07,0-0.13,0.04-0.18,0.12c-0.05,0.09-0.07,0.19-0.07,0.3v0.58c0,0.09-0.03,0.17-0.08,0.23
	c-0.05,0.07-0.11,0.1-0.18,0.1c-0.23,0-0.48-0.23-0.74-0.68c-0.26-0.46-0.39-0.9-0.39-1.31c0-0.19,0.05-0.34,0.15-0.46
	c0.09-0.13,0.21-0.2,0.35-0.2h2.5v-2.15H333.25z M328.69,36.37c0.15-0.09,0.3-0.13,0.45-0.13c0.32,0,0.64,0.14,0.97,0.41
	c0.32,0.26,0.62,0.64,0.89,1.12c0.07,0.12,0.22,0.4,0.45,0.83l0.86,1.65h-0.5l-1.19-2.07c-0.1-0.17-0.23-0.3-0.39-0.4
	c-0.17-0.09-0.35-0.13-0.54-0.13c-0.18,0-0.35,0.04-0.51,0.12L328.69,36.37z M330.07,40.34h2.81l0.56,1.32h-0.87v6.94l-1.12-0.91
	v-6.03h-0.81L330.07,40.34z M325.19,45.35c0.28,0,0.53-0.07,0.76-0.21c0.24-0.13,0.44-0.33,0.6-0.58v-2.89h-1.75v3.14
	c0,0.15,0.04,0.28,0.11,0.38C324.99,45.29,325.08,45.35,325.19,45.35z M323.17,41.66l-0.56-1.32h7.71l0.56,1.32h-3.2v1.9
	c0.17-0.21,0.35-0.37,0.54-0.5c0.2-0.11,0.4-0.17,0.59-0.17c0.33,0,0.71,0.3,1.13,0.91c0.42,0.62,0.62,1.17,0.62,1.65
	c0,0.69-0.21,1.52-0.62,2.48l-1.06-0.99c0.28-0.31,0.49-0.68,0.65-1.11c0.15-0.44,0.23-0.9,0.23-1.37c0-0.11-0.03-0.21-0.09-0.3
	c-0.07-0.08-0.14-0.12-0.23-0.12c-0.21,0-0.46,0.1-0.76,0.31c-0.3,0.22-0.63,0.53-0.99,0.93v3.31l-1.12-0.91v-1.49
	c-0.12,0.13-0.25,0.24-0.4,0.31c-0.16,0.07-0.32,0.1-0.48,0.1c-0.37,0-0.78-0.26-1.22-0.78c-0.45-0.52-0.71-1.03-0.78-1.54v-2.64
	H323.17z M316.73,41.66l-0.56-1.32h3.69l0.56,1.32h-1.01v2.56c0,0.34-0.08,0.67-0.25,0.99c-0.18,0.31-0.4,0.56-0.69,0.74l1.75,2.48
	l-0.63,0.5l-1.87-3.14c-0.23-0.4-0.4-0.72-0.51-0.96c-0.12-0.26-0.17-0.47-0.17-0.61c0-0.19,0.05-0.34,0.15-0.46
	c0.09-0.13,0.21-0.2,0.35-0.2c0.1,0,0.2,0.03,0.31,0.1c0.11,0.08,0.21,0.18,0.31,0.31c0.04-0.07,0.07-0.15,0.09-0.26
	c0.02-0.11,0.04-0.24,0.04-0.4v-1.65H316.73z M314.11,49.76c0-0.43,0.12-0.8,0.36-1.11c0.25-0.31,0.55-0.46,0.89-0.46
	c0.52,0,1.12,0.32,1.81,0.96c0.68,0.63,1.39,1.52,2.12,2.68l-0.31,0.33c-0.58-0.91-1.16-1.63-1.74-2.13
	c-0.58-0.51-1.11-0.76-1.57-0.76c-0.27,0-0.51,0.1-0.71,0.3c-0.19,0.19-0.29,0.42-0.29,0.69c0,0.19,0.05,0.34,0.15,0.46
	c0.09,0.13,0.21,0.2,0.35,0.2c0.2,0,0.38-0.04,0.54-0.13c0.17-0.09,0.3-0.21,0.4-0.36l0.5,0.83c-0.16,0.21-0.32,0.37-0.49,0.5
	c-0.17,0.11-0.35,0.17-0.51,0.17c-0.42,0-0.77-0.21-1.06-0.63C314.25,50.86,314.11,50.36,314.11,49.76z M313.29,45.38
	c0.34,0,0.66-0.12,0.95-0.36c0.3-0.24,0.52-0.57,0.67-0.99v-2.36h-2v3.14c0,0.15,0.04,0.29,0.11,0.41
	C313.11,45.33,313.19,45.38,313.29,45.38z M311.28,41.66l-0.56-1.32h5.64l0.56,1.32h-0.88v6.94l-1.12-0.91v-1.74
	c-0.13,0.21-0.3,0.37-0.5,0.5c-0.19,0.11-0.4,0.17-0.63,0.17c-0.38,0-0.79-0.24-1.21-0.73c-0.42-0.48-0.68-1.01-0.79-1.59v-2.64
	H311.28z M308.16,40.34h2.81l0.56,1.32h-0.87v6.94l-1.12-0.91v-6.03h-0.81L308.16,40.34z M304.03,41.66l-0.56-1.32h4.94l0.56,1.32
	h-0.73v2.31H306c-0.12,0-0.22,0.05-0.31,0.15c-0.08,0.1-0.12,0.21-0.12,0.35c0,0.11,0.03,0.21,0.09,0.31
	c0.05,0.1,0.12,0.19,0.22,0.26c0.38-0.22,0.65-0.33,0.81-0.33c0.38,0,0.77,0.29,1.16,0.86c0.39,0.57,0.59,1.14,0.59,1.7
	c0,0.21-0.08,0.42-0.24,0.64c-0.16,0.22-0.37,0.42-0.64,0.6l-0.62-0.99c0.22-0.13,0.41-0.31,0.55-0.55c0.13-0.22,0.2-0.45,0.2-0.69
	c0-0.13-0.05-0.25-0.15-0.35c-0.09-0.1-0.21-0.15-0.35-0.15c-0.4,0-0.74,0.17-1.01,0.51c-0.28,0.34-0.42,0.75-0.42,1.22
	c0,0.57,0.23,1.1,0.69,1.59c0.46,0.48,1.04,0.81,1.75,0.98l-0.12,0.58c-0.99-0.23-1.81-0.68-2.46-1.36
	c-0.65-0.67-0.97-1.41-0.97-2.2c0-0.34,0.07-0.67,0.21-0.98c0.15-0.32,0.35-0.57,0.6-0.76c-0.26-0.24-0.46-0.5-0.6-0.76
	c-0.14-0.26-0.21-0.51-0.21-0.73c0-0.34,0.1-0.63,0.31-0.88c0.21-0.24,0.46-0.36,0.75-0.36h1.44v-0.99H304.03z M299.66,44.64
	c0-0.55,0.16-1.02,0.48-1.41c0.32-0.39,0.7-0.58,1.15-0.58c0.19,0,0.42,0.1,0.67,0.3c0.26,0.2,0.53,0.48,0.83,0.86
	c0.28-0.45,0.62-0.72,1.01-0.81c0.38-0.08,0.67,0.05,0.86,0.4v0.41c-0.24-0.26-0.55-0.14-0.91,0.36c-0.37,0.5-0.62,1.15-0.77,1.95
	l-1-0.58l0.44-1.16c-0.1-0.13-0.21-0.23-0.34-0.3c-0.13-0.08-0.27-0.12-0.41-0.12c-0.24,0-0.45,0.13-0.61,0.38
	c-0.17,0.26-0.26,0.58-0.26,0.94c0,0.62,0.12,1.2,0.36,1.75c0.25,0.55,0.59,0.99,1.01,1.31l-0.25,0.41c-0.7-0.53-1.25-1.16-1.65-1.9
	C299.86,46.13,299.66,45.39,299.66,44.64z M299.22,41.66l-0.56-1.32h5.06l0.56,1.32H299.22z M294.66,36.37
	c0.15-0.09,0.3-0.13,0.45-0.13c0.32,0,0.64,0.14,0.97,0.41c0.32,0.26,0.62,0.64,0.89,1.12c0.07,0.12,0.23,0.4,0.45,0.83l0.86,1.65
	h-0.5l-1.19-2.07c-0.1-0.17-0.23-0.3-0.39-0.4c-0.17-0.09-0.35-0.13-0.54-0.13c-0.18,0-0.35,0.04-0.51,0.12L294.66,36.37z"/>
<path class="st9" d="M508.89,44.51c0.3,0,0.56-0.13,0.78-0.38c0.21-0.26,0.31-0.58,0.31-0.94c0-0.19-0.05-0.34-0.16-0.46
	c-0.1-0.13-0.23-0.2-0.38-0.2c-0.28,0-0.52,0.13-0.72,0.38c-0.2,0.26-0.3,0.58-0.3,0.94c0,0.19,0.05,0.34,0.14,0.46
	C508.65,44.44,508.76,44.51,508.89,44.51 M505.71,41.49c0-0.83,0.04-1.36,0.11-1.6l0.55,0.33c-0.06,0.44-0.1,0.86-0.1,1.26
	c0,1.45,0.22,2.7,0.67,3.74c0.45,1.02,0.98,1.54,1.61,1.54c0.39,0,0.72-0.14,1-0.41c0.26-0.29,0.39-0.62,0.37-0.99
	c-0.19,0.11-0.35,0.17-0.48,0.17c-0.56,0-1.05-0.23-1.45-0.69c-0.4-0.47-0.6-1.04-0.6-1.7c0-0.53,0.14-0.98,0.42-1.34
	c0.28-0.37,0.62-0.56,1.01-0.56c0.49,0,0.99,0.39,1.5,1.16c0.5,0.78,0.75,1.55,0.75,2.31c0,1-0.2,1.86-0.61,2.58
	c-0.42,0.71-0.92,1.06-1.5,1.06c-0.9,0-1.66-0.67-2.29-2C506.03,44.98,505.71,43.37,505.71,41.49z M499.96,40.3
	c0.67-0.55,1.35-0.83,2.05-0.83c0.56,0,1.13,0.34,1.71,1.03c0.57,0.68,0.86,1.36,0.86,2.03c0,0.57-0.19,1.12-0.56,1.64
	c-0.36,0.52-0.85,0.91-1.46,1.17l1.5,3.39l-0.75,0.25l-1.16-3.39c-0.39,0-0.73-0.15-1.01-0.46c-0.28-0.31-0.42-0.68-0.42-1.11
	c0-0.21,0.05-0.39,0.16-0.53c0.1-0.14,0.23-0.22,0.38-0.22c0.15,0,0.3,0.06,0.45,0.18c0.15,0.11,0.27,0.27,0.37,0.48
	c0.46-0.14,0.84-0.42,1.13-0.83c0.29-0.42,0.44-0.89,0.44-1.41c0-0.25-0.11-0.47-0.34-0.64c-0.23-0.18-0.5-0.26-0.82-0.26
	c-0.25,0-0.51,0.07-0.8,0.21c-0.29,0.14-0.59,0.35-0.9,0.61L499.96,40.3z M493.4,42.77c0-0.99,0.18-2.09,0.55-3.31l1.36,1.32
	c-0.59,1.06-0.89,2.08-0.89,3.06c0,0.28,0.07,0.51,0.22,0.69c0.15,0.2,0.32,0.3,0.53,0.3c0.24,0,0.47-0.07,0.71-0.2
	c0.24-0.12,0.45-0.3,0.65-0.55c-0.05-0.03-0.08-0.1-0.1-0.22c-0.03-0.1-0.04-0.22-0.04-0.36c0-0.23,0.07-0.42,0.22-0.58
	c0.15-0.17,0.32-0.25,0.53-0.25c0.15,0,0.35,0.15,0.6,0.46c0.24,0.32,0.35,0.58,0.35,0.78c0,0.37-0.05,0.7-0.16,0.98
	c-0.11,0.29-0.26,0.49-0.45,0.6l1.36,3.39l-0.68,0.33l-1.02-3.47c-0.37,0.22-0.83,0.33-1.36,0.33c-0.53,0-1.05-0.37-1.58-1.11
	C493.67,44.23,493.4,43.5,493.4,42.77z M490.33,47.16l0.95-1.16l0.95,1.16l-0.95,1.16L490.33,47.16z M487.06,37.07l0.95-1.16
	l0.95,1.16l-0.95,1.16L487.06,37.07z M483.78,41.37l-0.61-1.32h5.8l0.61,1.32h-0.95v6.94l-1.23-0.91v-2.56h-1.5
	c-0.07,0-0.14,0.04-0.19,0.12c-0.05,0.09-0.08,0.19-0.08,0.3v0.58c0,0.09-0.03,0.17-0.08,0.23c-0.05,0.07-0.12,0.1-0.19,0.1
	c-0.25,0-0.52-0.23-0.8-0.68c-0.28-0.46-0.42-0.9-0.42-1.31c0-0.19,0.05-0.34,0.16-0.46c0.1-0.13,0.23-0.2,0.38-0.2h2.73v-2.15
	H483.78z M474.99,41.37l-0.61-1.32h5.8l0.61,1.32h-0.95v6.94l-1.23-0.91v-2.56h-1.5c-0.07,0-0.14,0.04-0.19,0.12
	c-0.05,0.09-0.08,0.19-0.08,0.3v0.58c0,0.09-0.03,0.17-0.08,0.23c-0.05,0.07-0.12,0.1-0.19,0.1c-0.25,0-0.52-0.23-0.8-0.68
	c-0.28-0.46-0.42-0.9-0.42-1.31c0-0.19,0.05-0.34,0.16-0.46c0.1-0.13,0.23-0.2,0.38-0.2h2.73v-2.15H474.99z M467.01,41.37
	l-0.61-1.32h8.25l0.61,1.32h-0.95v6.94l-1.23-0.91V44.1c-0.15-0.11-0.29-0.17-0.41-0.17c-0.26,0-0.53,0.16-0.8,0.48
	c-0.27,0.31-0.5,0.73-0.7,1.26l-1.02-0.83c0.03-0.11,0.12-0.36,0.27-0.74c-0.07-0.13-0.18-0.23-0.31-0.3
	c-0.13-0.08-0.27-0.12-0.44-0.12c-0.29,0-0.54,0.12-0.75,0.36c-0.21,0.24-0.31,0.53-0.31,0.88c0,0.56,0.14,1.11,0.41,1.65
	s0.65,1.01,1.13,1.41l-0.34,0.5c-0.73-0.64-1.3-1.32-1.7-2.05c-0.41-0.73-0.61-1.42-0.61-2.08c0-0.57,0.16-1.06,0.48-1.45
	c0.32-0.41,0.7-0.61,1.16-0.61c0.23,0,0.48,0.11,0.75,0.33c0.27,0.21,0.55,0.51,0.82,0.91c0.19-0.31,0.4-0.55,0.63-0.73
	c0.23-0.18,0.45-0.26,0.67-0.26c0.19,0,0.38,0.05,0.57,0.15c0.19,0.1,0.36,0.24,0.52,0.43v-1.74H467.01z M459.41,41.37l-0.61-1.32
	h7.87l0.61,1.32h-0.95v6.94l-1.23-0.91v-1.32c-0.24,0.34-0.51,0.61-0.82,0.79c-0.31,0.19-0.63,0.28-0.95,0.28
	c-0.42,0-0.89-0.31-1.4-0.94c-0.52-0.63-0.78-1.2-0.78-1.7c0-0.09,0.02-0.19,0.07-0.3c0.05-0.11,0.11-0.23,0.2-0.36h-1.16
	l-0.61-1.32h4.23l0.68,1.32h-1.23c-0.27,0.06-0.5,0.23-0.68,0.51c-0.18,0.28-0.27,0.6-0.27,0.98c0,0.13,0.05,0.25,0.14,0.35
	c0.1,0.1,0.21,0.15,0.34,0.15c0.4,0,0.8-0.14,1.19-0.43c0.4-0.3,0.75-0.71,1.06-1.22v-2.81H459.41z"/>
<path class="st10" d="M510.42,13.23h1.67v1.19c0.6-0.92,1.31-1.39,2.14-1.39c0.44,0,0.82,0.12,1.14,0.34
	c0.32,0.23,0.59,0.58,0.8,1.04c0.3-0.46,0.63-0.81,0.97-1.04c0.35-0.23,0.72-0.34,1.12-0.34c0.5,0,0.93,0.13,1.28,0.39
	c0.35,0.26,0.61,0.64,0.78,1.14c0.13,0.37,0.19,0.97,0.19,1.81v5.57h-1.81v-4.98c0-0.86-0.06-1.42-0.19-1.67
	c-0.17-0.33-0.43-0.49-0.77-0.49c-0.26,0-0.49,0.1-0.72,0.3c-0.22,0.2-0.38,0.48-0.48,0.86c-0.1,0.38-0.15,0.98-0.15,1.8v4.18h-1.81
	v-4.77c0-0.85-0.03-1.39-0.1-1.64c-0.06-0.25-0.17-0.43-0.3-0.55c-0.14-0.12-0.32-0.18-0.55-0.18c-0.28,0-0.53,0.1-0.75,0.29
	c-0.23,0.19-0.39,0.47-0.48,0.83c-0.1,0.36-0.15,0.96-0.15,1.79v4.23h-1.81V13.23z M507.15,21.94h-1.81v-8.71h1.68v1.24
	c0.29-0.58,0.55-0.97,0.78-1.16c0.23-0.19,0.49-0.28,0.78-0.28c0.41,0,0.81,0.15,1.19,0.44l-0.56,2.01
	c-0.3-0.25-0.59-0.38-0.85-0.38c-0.26,0-0.47,0.09-0.65,0.27c-0.18,0.18-0.32,0.5-0.42,0.96c-0.1,0.46-0.15,1.44-0.15,2.92V21.94z
	 M498.77,17.59c0,0.86,0.16,1.53,0.49,1.98c0.32,0.46,0.72,0.69,1.2,0.69c0.47,0,0.87-0.23,1.19-0.69c0.32-0.46,0.48-1.13,0.48-2
	c0-0.85-0.16-1.51-0.48-1.97c-0.32-0.46-0.72-0.69-1.19-0.69c-0.47,0-0.87,0.23-1.2,0.69C498.93,16.06,498.77,16.72,498.77,17.59z
	 M496.91,17.46c0-0.76,0.15-1.51,0.45-2.22c0.3-0.71,0.72-1.26,1.26-1.64c0.54-0.38,1.15-0.57,1.83-0.57c1.04,0,1.89,0.43,2.55,1.29
	c0.66,0.86,0.99,1.94,0.99,3.24c0,1.32-0.34,2.41-1,3.28c-0.67,0.87-1.51,1.3-2.53,1.3c-0.63,0-1.23-0.18-1.8-0.54
	c-0.57-0.36-1.01-0.89-1.3-1.59C497.06,19.31,496.91,18.46,496.91,17.46z M489.27,21.94V9.92h6.49v2.03h-4.58v2.84h3.95v2.03h-3.95
	v5.11H489.27z M478.95,17.41c0,0.92,0.14,1.6,0.42,2.03c0.28,0.43,0.63,0.64,1.04,0.64c0.44,0,0.82-0.22,1.12-0.66
	c0.3-0.44,0.46-1.09,0.46-1.96c0-0.9-0.15-1.57-0.44-2.01c-0.29-0.44-0.66-0.66-1.11-0.66c-0.44,0-0.79,0.22-1.08,0.64
	C479.09,15.87,478.95,16.52,478.95,17.41z M477.33,22.51l2.07,0.32c0.04,0.31,0.11,0.52,0.24,0.63c0.17,0.17,0.45,0.25,0.81,0.25
	c0.47,0,0.83-0.09,1.07-0.27c0.16-0.12,0.28-0.31,0.36-0.58c0.06-0.19,0.08-0.54,0.08-1.06v-1.27c-0.54,0.94-1.23,1.41-2.06,1.41
	c-0.92,0-1.65-0.5-2.19-1.48c-0.42-0.78-0.63-1.75-0.63-2.92c0-1.46,0.28-2.57,0.83-3.35c0.55-0.77,1.24-1.16,2.06-1.16
	c0.85,0,1.55,0.47,2.1,1.42v-1.22h1.7v7.82c0,1.03-0.07,1.79-0.2,2.3c-0.13,0.51-0.32,0.91-0.56,1.2c-0.24,0.29-0.56,0.51-0.97,0.68
	c-0.4,0.16-0.91,0.25-1.53,0.25c-1.16,0-1.99-0.25-2.47-0.76c-0.49-0.51-0.73-1.15-0.73-1.92
	C477.32,22.72,477.32,22.62,477.33,22.51z M475.65,21.94h-1.81V17.5c0-0.94-0.04-1.55-0.12-1.83c-0.08-0.27-0.2-0.49-0.38-0.64
	c-0.17-0.15-0.38-0.23-0.63-0.23c-0.32,0-0.6,0.11-0.85,0.33c-0.25,0.22-0.42,0.51-0.51,0.87c-0.09,0.36-0.14,1.03-0.14,2v3.94
	h-1.81v-8.71h1.68v1.28c0.6-0.99,1.35-1.48,2.26-1.48c0.4,0,0.77,0.09,1.1,0.27c0.33,0.18,0.58,0.42,0.75,0.7
	c0.17,0.29,0.29,0.61,0.35,0.97c0.07,0.36,0.1,0.88,0.1,1.55V21.94z M465.74,21.94v-8.71h1.81v8.71H465.74z M465.74,12.05V9.92h1.81
	v2.13H465.74z M463.9,21.94h-1.81V17.5c0-0.94-0.04-1.55-0.12-1.83c-0.08-0.27-0.2-0.49-0.38-0.64c-0.17-0.15-0.38-0.23-0.63-0.23
	c-0.31,0-0.6,0.11-0.85,0.33c-0.25,0.22-0.42,0.51-0.51,0.87c-0.09,0.36-0.14,1.03-0.14,2v3.94h-1.81v-8.71h1.68v1.28
	c0.6-0.99,1.35-1.48,2.26-1.48c0.4,0,0.77,0.09,1.1,0.27c0.33,0.18,0.58,0.42,0.75,0.7c0.17,0.29,0.29,0.61,0.35,0.97
	c0.07,0.36,0.1,0.88,0.1,1.55V21.94z M454.37,16.84c-0.01-0.67-0.15-1.18-0.41-1.52c-0.26-0.35-0.57-0.52-0.94-0.52
	c-0.4,0-0.72,0.18-0.98,0.55c-0.26,0.36-0.39,0.86-0.38,1.49H454.37z M454.27,19.17l1.81,0.38c-0.23,0.84-0.6,1.48-1.1,1.92
	c-0.5,0.44-1.13,0.66-1.88,0.66c-1.19,0-2.07-0.49-2.65-1.48c-0.45-0.79-0.68-1.79-0.68-3c0-1.44,0.3-2.58,0.89-3.39
	c0.59-0.82,1.35-1.23,2.25-1.23c1.02,0,1.83,0.43,2.42,1.29c0.59,0.86,0.87,2.17,0.85,3.93h-4.55c0.01,0.68,0.16,1.21,0.44,1.59
	c0.28,0.38,0.63,0.57,1.05,0.57c0.28,0,0.52-0.1,0.72-0.29C454.02,19.92,454.17,19.61,454.27,19.17z M443.96,17.44
	c0,0.98,0.15,1.7,0.46,2.17c0.3,0.47,0.68,0.7,1.12,0.7c0.42,0,0.77-0.22,1.05-0.64c0.28-0.43,0.42-1.13,0.42-2.11
	c0-0.92-0.15-1.59-0.43-2.03c-0.29-0.44-0.65-0.66-1.07-0.66c-0.44,0-0.81,0.22-1.1,0.65C444.11,15.94,443.96,16.59,443.96,17.44z
	 M442.16,13.23h1.69v1.28c0.22-0.44,0.52-0.79,0.89-1.07c0.37-0.27,0.79-0.41,1.25-0.41c0.8,0,1.47,0.4,2.03,1.19
	c0.56,0.79,0.83,1.9,0.83,3.31c0,1.45-0.28,2.58-0.84,3.39c-0.56,0.81-1.24,1.21-2.04,1.21c-0.38,0-0.72-0.1-1.03-0.29
	c-0.31-0.19-0.63-0.52-0.97-0.99v4.39h-1.81V13.23z M433.52,15.92c0,1.36,0.25,2.39,0.74,3.1c0.5,0.7,1.12,1.05,1.89,1.05
	c0.76,0,1.39-0.35,1.88-1.05c0.49-0.7,0.73-1.74,0.73-3.14c0-1.38-0.24-2.4-0.71-3.08c-0.48-0.68-1.11-1.02-1.9-1.02
	c-0.79,0-1.42,0.34-1.91,1.03C433.76,13.5,433.52,14.54,433.52,15.92z M431.55,16c0-1.23,0.14-2.25,0.43-3.08
	c0.22-0.61,0.51-1.16,0.88-1.65c0.37-0.48,0.78-0.85,1.22-1.08c0.59-0.32,1.27-0.48,2.04-0.48c1.4,0,2.51,0.55,3.35,1.65
	c0.84,1.1,1.26,2.63,1.26,4.58c0,1.94-0.42,3.46-1.25,4.56c-0.83,1.09-1.94,1.64-3.33,1.64c-1.41,0-2.53-0.55-3.36-1.63
	C431.97,19.42,431.55,17.92,431.55,16z M426.99,13.23v1.84h-1.24v3.51c0,0.71,0.01,1.13,0.04,1.24c0.02,0.12,0.08,0.21,0.16,0.29
	c0.08,0.08,0.19,0.11,0.31,0.11c0.17,0,0.41-0.08,0.73-0.22l0.15,1.79c-0.42,0.23-0.9,0.34-1.44,0.34c-0.33,0-0.62-0.07-0.88-0.21
	c-0.26-0.14-0.45-0.32-0.58-0.54c-0.12-0.22-0.21-0.52-0.26-0.9c-0.04-0.27-0.06-0.81-0.06-1.62v-3.8h-0.83v-1.84h0.83V11.5
	l1.82-1.34v3.08H426.99z M422.01,21.94h-1.81V17.5c0-0.94-0.04-1.55-0.12-1.83c-0.08-0.27-0.2-0.49-0.38-0.64
	c-0.17-0.15-0.38-0.23-0.63-0.23c-0.32,0-0.6,0.11-0.85,0.33c-0.25,0.22-0.42,0.51-0.51,0.87c-0.09,0.36-0.14,1.03-0.14,2v3.94
	h-1.81v-8.71h1.68v1.28c0.6-0.99,1.35-1.48,2.26-1.48c0.4,0,0.77,0.09,1.1,0.27c0.33,0.18,0.58,0.42,0.75,0.7
	c0.17,0.29,0.29,0.61,0.35,0.97c0.07,0.36,0.1,0.88,0.1,1.55V21.94z M412.2,21.94v-1.3c-0.25,0.46-0.58,0.83-0.99,1.1
	c-0.41,0.27-0.84,0.4-1.29,0.4c-0.46,0-0.87-0.13-1.24-0.38c-0.37-0.26-0.63-0.62-0.8-1.08c-0.16-0.46-0.24-1.11-0.24-1.93v-5.51
	h1.81v4c0,1.23,0.03,1.98,0.1,2.25c0.07,0.27,0.19,0.49,0.36,0.66c0.18,0.16,0.4,0.24,0.67,0.24c0.31,0,0.59-0.11,0.83-0.32
	c0.24-0.22,0.41-0.48,0.5-0.8c0.09-0.32,0.14-1.11,0.14-2.35v-3.67h1.82v8.71H412.2z M401.05,17.59c0,0.86,0.16,1.53,0.48,1.98
	c0.32,0.46,0.72,0.69,1.19,0.69c0.47,0,0.87-0.23,1.19-0.69c0.32-0.46,0.48-1.13,0.48-2c0-0.85-0.16-1.51-0.48-1.97
	c-0.32-0.46-0.72-0.69-1.19-0.69c-0.47,0-0.87,0.23-1.19,0.69C401.21,16.06,401.05,16.72,401.05,17.59z M399.18,17.46
	c0-0.76,0.15-1.51,0.45-2.22c0.3-0.71,0.72-1.26,1.26-1.64c0.54-0.38,1.15-0.57,1.83-0.57c1.04,0,1.89,0.43,2.55,1.29
	c0.66,0.86,0.99,1.94,0.99,3.24c0,1.32-0.33,2.41-1,3.28c-0.67,0.87-1.51,1.3-2.53,1.3c-0.63,0-1.23-0.18-1.8-0.54
	c-0.57-0.36-1.01-0.89-1.3-1.59C399.33,19.31,399.18,18.46,399.18,17.46z M398.23,15.81l-1.79,0.41c-0.06-0.45-0.2-0.8-0.41-1.02
	c-0.21-0.23-0.49-0.34-0.83-0.34c-0.45,0-0.81,0.2-1.08,0.59c-0.27,0.4-0.4,1.06-0.4,1.99c0,1.03,0.14,1.76,0.41,2.19
	c0.27,0.43,0.64,0.64,1.1,0.64c0.35,0,0.63-0.12,0.85-0.37c0.22-0.25,0.37-0.68,0.47-1.28l1.78,0.38c-0.19,1.04-0.54,1.82-1.07,2.35
	c-0.52,0.53-1.23,0.8-2.11,0.8c-1,0-1.8-0.4-2.4-1.2c-0.6-0.8-0.9-1.92-0.9-3.34c0-1.44,0.3-2.56,0.9-3.36
	c0.6-0.8,1.41-1.2,2.43-1.2c0.84,0,1.5,0.23,1.99,0.69C397.66,14.18,398.01,14.87,398.23,15.81z M390.87,15.81l-1.79,0.41
	c-0.06-0.45-0.2-0.8-0.41-1.02c-0.21-0.23-0.49-0.34-0.83-0.34c-0.45,0-0.81,0.2-1.08,0.59c-0.27,0.4-0.4,1.06-0.4,1.99
	c0,1.03,0.14,1.76,0.41,2.19c0.27,0.43,0.64,0.64,1.1,0.64c0.35,0,0.63-0.12,0.85-0.37c0.22-0.25,0.38-0.68,0.47-1.28l1.78,0.38
	c-0.19,1.04-0.54,1.82-1.07,2.35c-0.52,0.53-1.23,0.8-2.11,0.8c-1,0-1.8-0.4-2.4-1.2c-0.6-0.8-0.9-1.92-0.9-3.34
	c0-1.44,0.3-2.56,0.9-3.36c0.6-0.8,1.41-1.2,2.43-1.2c0.84,0,1.5,0.23,1.99,0.69C390.3,14.18,390.66,14.87,390.87,15.81z
	 M380.37,17.19l-1.31-4.46l-1.28,4.46H380.37z M383.89,21.94h-2.08l-0.83-2.73h-3.79l-0.78,2.73h-2.03l3.69-12.02h2.02L383.89,21.94
	z"/>
<path class="st9" d="M351.77,16.02v-1.86h8.14v1.86h-0.83v3.38h-2.7c-0.38,0-0.68,0.18-0.9,0.54c-0.23,0.36-0.35,0.84-0.35,1.44
	c0,0.75,0.17,1.34,0.5,1.77c0.32,0.45,0.76,0.68,1.3,0.68c0.3,0,0.63-0.13,0.97-0.4c0.34-0.26,0.69-0.64,1.04-1.12l0.62,1.63
	c-0.36,0.64-0.85,1.13-1.47,1.47c-0.61,0.34-1.3,0.51-2.06,0.51c-1.15,0-2.08-0.41-2.77-1.23c-0.69-0.84-1.04-1.94-1.04-3.31
	c0-1.23,0.28-2.21,0.84-2.96c0.57-0.75,1.33-1.12,2.27-1.12h0.97v-1.28H351.77z M345.39,8.33h2.29c0.19,0,0.39,0.1,0.58,0.3
	c0.19,0.2,0.37,0.49,0.53,0.86l1.11,2.33c0.06,0.14,0.17,0.26,0.32,0.35c0.15,0.08,0.32,0.12,0.51,0.12v1.86h-2.08
	c-0.14,0-0.28-0.09-0.43-0.26c-0.15-0.16-0.28-0.38-0.4-0.68l-1.18-2.45c-0.06-0.14-0.13-0.26-0.22-0.35
	c-0.08-0.08-0.17-0.12-0.26-0.12h-0.76V8.33z M343.83,16.02v-1.86h8.14v1.86h-0.83v3.38h-2.7c-0.38,0-0.68,0.18-0.9,0.54
	c-0.23,0.36-0.35,0.84-0.35,1.44c0,0.75,0.17,1.34,0.5,1.77c0.32,0.45,0.76,0.68,1.3,0.68c0.3,0,0.63-0.13,0.97-0.4
	c0.34-0.26,0.69-0.64,1.04-1.12l0.62,1.63c-0.36,0.64-0.85,1.13-1.47,1.47c-0.61,0.34-1.3,0.51-2.06,0.51
	c-1.15,0-2.08-0.41-2.77-1.23c-0.69-0.84-1.04-1.94-1.04-3.31c0-1.23,0.28-2.21,0.85-2.96c0.57-0.75,1.33-1.12,2.27-1.12h0.97v-1.28
	H343.83z M337.6,16.02v-1.86h6.51v1.86h-1.18c0.24,0.26,0.42,0.57,0.55,0.93c0.14,0.36,0.21,0.71,0.21,1.05l-0.07,0.35
	c0.05,0.08,0.11,0.13,0.18,0.16c0.07,0.05,0.15,0.07,0.24,0.07c0.1,0,0.19-0.02,0.28-0.07c0.08-0.03,0.15-0.09,0.21-0.16v1.75
	c-0.38,0.23-0.63,0.35-0.76,0.35c-0.3,0-0.54-0.08-0.69-0.23c-0.2,0.4-0.47,0.72-0.79,0.95c-0.33,0.22-0.69,0.33-1.08,0.33h-0.28
	l0.35,1.05c0.14,0.4,0.29,0.71,0.46,0.93c0.18,0.23,0.35,0.35,0.51,0.35c0.08,0,0.18-0.04,0.28-0.12c0.09-0.08,0.18-0.19,0.28-0.35
	l0.55,1.16c-0.11,0.28-0.37,0.57-0.79,0.86c-0.42,0.28-0.78,0.42-1.08,0.42c-0.54,0-1.03-0.23-1.47-0.68
	c-0.43-0.45-0.73-1.04-0.89-1.77c-0.12-0.57-0.29-1.06-0.51-1.47c-0.22-0.4-0.47-0.69-0.73-0.86l0.48-1.98
	c0.29,0.23,0.66,0.35,1.11,0.35c0.36,0,0.67-0.16,0.93-0.49c0.26-0.31,0.39-0.69,0.39-1.14c0-0.43-0.12-0.82-0.36-1.14
	c-0.24-0.34-0.54-0.54-0.89-0.61H337.6z M329.08,12.06c0-0.93,0.35-1.73,1.04-2.4c0.68-0.65,1.51-0.98,2.49-0.98
	c1.18,0,2.19,0.54,3.03,1.61c0.84,1.07,1.26,2.36,1.26,3.87h0.97v1.86h-0.9v9.78h-2.77v-9.78h-0.9v-1.86h0.83
	c0-0.96-0.15-1.79-0.44-2.47c-0.3-0.68-0.66-1.02-1.08-1.02c-0.18,0-0.32,0.14-0.44,0.42c-0.12,0.26-0.18,0.59-0.18,0.98
	c0,0.48,0.04,0.9,0.11,1.26c0.07,0.36,0.18,0.6,0.3,0.72h-2.84c-0.16-0.26-0.28-0.57-0.36-0.91
	C329.12,12.77,329.08,12.42,329.08,12.06z M325.43,16.02v-1.86h8.14v1.86h-0.83v3.38h-2.7c-0.38,0-0.68,0.18-0.9,0.54
	c-0.23,0.36-0.35,0.84-0.35,1.44c0,0.75,0.17,1.34,0.5,1.77c0.32,0.45,0.76,0.68,1.3,0.68c0.3,0,0.63-0.13,0.97-0.4
	c0.34-0.26,0.69-0.64,1.04-1.12l0.62,1.63c-0.36,0.64-0.85,1.13-1.47,1.47c-0.61,0.34-1.3,0.51-2.06,0.51
	c-1.15,0-2.08-0.41-2.77-1.23c-0.69-0.84-1.04-1.94-1.04-3.31c0-1.23,0.28-2.21,0.85-2.96c0.57-0.75,1.33-1.12,2.27-1.12h0.97v-1.28
	H325.43z M319.55,21.26c0-1.37,0.29-2.47,0.87-3.31c0.58-0.82,1.35-1.23,2.31-1.23c0.62,0,1.15,0.12,1.61,0.37
	c0.44,0.25,0.76,0.59,0.96,1.02l0.83-1.05v2.21l-1.87,2.33l-0.62-1.4l0.62-0.81c-0.08-0.25-0.2-0.45-0.35-0.61
	c-0.16-0.14-0.32-0.21-0.48-0.21c-0.27,0-0.49,0.26-0.68,0.79c-0.19,0.51-0.29,1.14-0.29,1.89c0,0.71,0.1,1.32,0.3,1.82
	c0.2,0.5,0.45,0.75,0.73,0.75v1.98c-1.19,0-2.15-0.41-2.87-1.23C319.91,23.73,319.55,22.62,319.55,21.26z M319.08,16.02v-1.86h6.64
	v1.86H319.08z M314.64,18.93h1.04v-2.91h-1.04V18.93z M311.53,20.91c-0.13,0-0.24,0.09-0.35,0.28c-0.09,0.17-0.14,0.39-0.14,0.65
	c0,0.26,0.05,0.48,0.14,0.65c0.1,0.19,0.22,0.28,0.35,0.28c0.09,0,0.18-0.09,0.25-0.28c0.06-0.17,0.1-0.39,0.1-0.65v-0.93H311.53z
	 M309.39,16.02v-1.86h9.96v1.86h-0.9v9.78h-2.77v-4.89h-1.04v0.93c0,0.84-0.24,1.55-0.71,2.14c-0.48,0.59-1.05,0.88-1.72,0.88
	c-0.73,0-1.32-0.28-1.76-0.84c-0.44-0.54-0.66-1.27-0.66-2.19c0-0.81,0.17-1.49,0.51-2.05c0.33-0.57,0.74-0.86,1.22-0.86h0.35v-2.91
	H309.39z M304.52,20.09c0-1.69,0.23-3.32,0.68-4.89c0.45-1.57,1.08-2.93,1.9-4.08l1.68,1.96c-0.5,0.7-0.89,1.66-1.16,2.89
	c-0.28,1.23-0.42,2.6-0.42,4.12c0,1.51,0.12,2.83,0.35,3.98c0.23,1.16,0.56,2.04,0.98,2.63l-1.62,2.12
	c-0.76-1.07-1.34-2.37-1.76-3.89C304.73,23.42,304.52,21.8,304.52,20.09z M299.32,16.02v-1.86h4.57v1.86h-0.9v9.78h-2.77v-9.78
	H299.32z M292.94,16.02v-1.86h6.66v1.86h-1.18c0.21,0.2,0.38,0.47,0.51,0.82c0.12,0.33,0.18,0.68,0.18,1.05
	c0,0.99-0.26,1.85-0.78,2.56c-0.51,0.7-1.13,1.05-1.86,1.05c0.16,0.73,0.36,1.32,0.62,1.77c0.25,0.45,0.5,0.68,0.76,0.68
	c0.13,0,0.25-0.04,0.37-0.12c0.12-0.08,0.23-0.19,0.32-0.35l0.55,1.28c-0.21,0.37-0.51,0.66-0.9,0.86c-0.38,0.2-0.82,0.3-1.32,0.3
	c-0.62,0-1.17-0.2-1.65-0.61c-0.48-0.4-0.81-0.94-0.98-1.61c-0.2-0.78-0.39-1.37-0.55-1.77c-0.18-0.43-0.35-0.66-0.48-0.68l0.48-2.1
	c0.29,0.23,0.63,0.35,1.04,0.35c0.4,0,0.74-0.16,1.02-0.49c0.29-0.31,0.43-0.69,0.43-1.14c0-0.51-0.12-0.96-0.36-1.33
	c-0.25-0.36-0.54-0.54-0.89-0.54H292.94z M281.64,16.02v-1.86h11.58v1.86h-0.9v9.78h-2.77v-6.29h-1.39
	c0.18,0.37,0.32,0.68,0.42,0.91c0.09,0.26,0.14,0.47,0.14,0.61c0,1.09-0.3,2.02-0.89,2.79c-0.6,0.78-1.32,1.16-2.16,1.16
	c-0.94,0-1.75-0.55-2.42-1.65c-0.68-1.1-1.12-2.57-1.32-4.4h1.18c0.19,1.16,0.47,2.1,0.83,2.79c0.35,0.7,0.72,1.05,1.11,1.05
	c0.21,0,0.39-0.16,0.54-0.49c0.15-0.31,0.22-0.69,0.22-1.14c0-0.39-0.09-0.74-0.28-1.05c-0.18-0.31-0.42-0.5-0.69-0.58V17.3h4.71
	v-1.28H281.64z M277.34,16.02v-1.86h4.57v1.86h-0.9v9.78h-2.77v-9.78H277.34z M267.16,22.31l1.11-0.58c0.12,0.56,0.29,1.01,0.5,1.35
	c0.22,0.34,0.45,0.51,0.68,0.51c0.29,0,0.53-0.14,0.73-0.42c0.2-0.26,0.3-0.59,0.3-0.98c0-0.48-0.12-0.89-0.35-1.23
	c-0.23-0.34-0.51-0.51-0.83-0.51v-1.86c0.29,0,0.53-0.14,0.73-0.42c0.2-0.26,0.3-0.59,0.3-0.98c0-0.33-0.07-0.6-0.22-0.81
	c-0.15-0.23-0.33-0.35-0.54-0.35c-0.15,0-0.31,0.07-0.5,0.21c-0.19,0.14-0.4,0.34-0.61,0.61l-0.69-1.16
	c0.3-0.48,0.65-0.85,1.05-1.12c0.42-0.26,0.85-0.4,1.3-0.4c0.86,0,1.59,0.29,2.2,0.86c0.61,0.56,0.91,1.24,0.91,2.05
	c0,0.45-0.11,0.88-0.32,1.28c-0.22,0.4-0.51,0.71-0.86,0.93c0.28,0.11,0.51,0.29,0.71,0.54c0.19,0.25,0.33,0.54,0.4,0.86h0.76v-4.66
	h-0.28v-1.86h3.95v1.86h-0.9v9.78h-2.77v-3.14h-0.69c0,0.87-0.3,1.61-0.89,2.21c-0.6,0.62-1.32,0.93-2.16,0.93
	c-0.74,0-1.39-0.33-1.97-0.98C267.67,24.17,267.31,23.33,267.16,22.31z M261.8,22.63c0.4,0,0.74,0.2,1.03,0.61
	c0.28,0.42,0.42,0.92,0.42,1.49c0,0.56-0.15,1.13-0.44,1.7c-0.3,0.56-0.7,1.05-1.2,1.47c-0.23,0.19-0.42,0.09-0.58-0.3
	c-0.17-0.37-0.14-0.67,0.08-0.89c0.16-0.16,0.29-0.32,0.39-0.49c0.1-0.17,0.17-0.34,0.21-0.51c-0.36,0-0.67-0.12-0.91-0.35
	c-0.25-0.23-0.37-0.52-0.37-0.86c0-0.51,0.14-0.95,0.42-1.33C261.09,22.81,261.41,22.63,261.8,22.63z M260.4,19.86
	c0-0.51,0.14-0.96,0.42-1.33c0.27-0.36,0.6-0.54,0.98-0.54c0.38,0,0.71,0.18,0.98,0.54c0.27,0.37,0.4,0.82,0.4,1.33
	c0,0.53-0.13,0.97-0.4,1.33c-0.28,0.37-0.6,0.56-0.98,0.56c-0.39,0-0.72-0.19-0.98-0.56C260.54,20.83,260.4,20.39,260.4,19.86z
	 M248.3,16.02v-1.86h10.72v1.86h-0.9v9.78h-2.77v-6.52l-1.87,2.33l-0.62-1.4l0.62-0.81c-0.07-0.22-0.18-0.39-0.33-0.51
	c-0.15-0.12-0.31-0.19-0.5-0.19c-0.27,0-0.49,0.25-0.68,0.75c-0.19,0.5-0.29,1.1-0.29,1.82s0.1,1.32,0.3,1.82
	c0.2,0.5,0.45,0.75,0.73,0.75v1.98c-1.19,0-2.15-0.41-2.87-1.23c-0.72-0.84-1.08-1.94-1.08-3.31c0-1.37,0.29-2.47,0.87-3.31
	c0.58-0.82,1.35-1.23,2.31-1.23c0.55,0,1.04,0.12,1.48,0.37c0.44,0.23,0.8,0.57,1.08,1.02l0.83-1.05v-1.05H248.3z M244,16.02v-1.86
	h0.9c-0.11-0.19-0.2-0.43-0.26-0.75c-0.06-0.3-0.08-0.63-0.08-1c0-1.06,0.33-1.96,1-2.72c0.66-0.74,1.46-1.12,2.4-1.12
	c1.2,0,2.34,0.46,3.42,1.37c1.07,0.93,1.96,2.22,2.67,3.87h-1.25c-0.52-1.04-1.13-1.84-1.84-2.4c-0.72-0.57-1.47-0.86-2.24-0.86
	c-0.34,0-0.64,0.22-0.89,0.65c-0.24,0.43-0.36,0.96-0.36,1.56c0,0.37,0.02,0.68,0.07,0.93c0.06,0.26,0.12,0.42,0.21,0.47h0.83v1.86
	h-0.9v9.78h-2.77v-9.78H244z M228.54,16.02v-1.86h12.69v1.86h-5.06v2.45c0.18-0.26,0.42-0.47,0.72-0.61
	c0.3-0.14,0.64-0.21,1.01-0.21c0.8,0,1.49,0.35,2.05,1.05c0.57,0.71,0.86,1.57,0.86,2.56c0,1.2-0.36,2.16-1.09,2.89
	c-0.73,0.71-1.7,1.07-2.92,1.07v-2.1c0.3,0,0.57-0.16,0.79-0.49c0.21-0.31,0.32-0.69,0.32-1.14c0-0.36-0.09-0.66-0.26-0.91
	c-0.18-0.25-0.39-0.37-0.64-0.37c-0.17,0-0.32,0.04-0.46,0.12c-0.14,0.08-0.26,0.19-0.37,0.35v5.12h-2.77v-2.45
	c-0.32,0.45-0.67,0.8-1.05,1.05c-0.38,0.23-0.77,0.35-1.16,0.35c-0.61,0-1.13-0.34-1.57-1.02c-0.43-0.68-0.65-1.51-0.65-2.47
	c0-1.2,0.36-2.16,1.08-2.89c0.72-0.71,1.68-1.07,2.87-1.07v1.75c-0.31,0-0.57,0.15-0.76,0.44c-0.18,0.3-0.28,0.69-0.28,1.19
	c0,0.36,0.08,0.66,0.25,0.91c0.16,0.25,0.35,0.37,0.58,0.37c0.11,0,0.23-0.05,0.35-0.14c0.12-0.11,0.24-0.26,0.35-0.44v-5.36H228.54
	z M226.09,7.71c0.2,0,0.37,0.12,0.51,0.35c0.14,0.23,0.21,0.51,0.21,0.84c0,0.3-0.07,0.55-0.21,0.77c-0.14,0.22-0.31,0.33-0.51,0.33
	c-0.19,0-0.36-0.12-0.5-0.35c-0.14-0.23-0.21-0.51-0.21-0.84c0-0.3,0.07-0.55,0.21-0.77C225.73,7.81,225.9,7.71,226.09,7.71z
	 M223.38,10.03l0.97-1.09c0.22,0.64,0.49,1.13,0.82,1.49c0.32,0.37,0.66,0.56,1,0.56c0.3,0,0.61-0.19,0.91-0.56
	c0.3-0.36,0.55-0.85,0.78-1.49l2.15,1.09c-0.32,0.93-0.78,1.67-1.37,2.21c-0.59,0.54-1.24,0.82-1.94,0.82
	c-0.7,0-1.35-0.27-1.94-0.82C224.16,11.7,223.7,10.97,223.38,10.03z M222.31,19.16c-0.05,0.09-0.07,0.44-0.07,1.05v0.12
	c0,0.64,0.1,1.19,0.29,1.65c0.18,0.45,0.41,0.68,0.68,0.68c0.21,0,0.44-0.08,0.69-0.23L222.31,19.16z M218.88,16.02v-1.86h9.88v1.86
	h-0.9v9.78h-2.77v-2.79c-0.3,0.59-0.68,1.05-1.16,1.37c-0.49,0.33-1.03,0.49-1.61,0.49c-0.91,0-1.63-0.38-2.16-1.14
	c-0.55-0.76-0.82-1.78-0.82-3.05c0-1.23,0.3-2.21,0.89-2.96c0.59-0.75,1.38-1.12,2.37-1.12c0.37,0,0.78,0.1,1.25,0.3
	c0.46,0.22,0.74,0.43,0.83,0.63l-0.76,1.4c-0.11-0.16-0.22-0.27-0.32-0.35c-0.11-0.08-0.21-0.12-0.3-0.12
	c-0.06,0-0.13-0.01-0.21-0.02c-0.07,0-0.12,0.01-0.14,0.02l1.52,3.38c0.3-0.29,0.5-0.64,0.62-1.05v-4.77H218.88z M210.01,16.02v4.08
	c0,0.48,0.12,0.89,0.35,1.23c0.23,0.34,0.51,0.51,0.83,0.51c0.26,0,0.5-0.16,0.73-0.49c0.23-0.31,0.4-0.73,0.51-1.26v-4.08H210.01z
	 M206.66,16.02v-1.86h9.45v1.86h-0.9v9.78h-2.77v-3.03c-0.27,0.37-0.59,0.66-0.96,0.86c-0.37,0.2-0.77,0.3-1.19,0.3
	c-0.84,0-1.56-0.37-2.16-1.12c-0.59-0.76-0.89-1.67-0.89-2.72v-4.08H206.66z M201.35,10.03l0.97-1.09c0.22,0.64,0.49,1.13,0.82,1.49
	c0.32,0.37,0.66,0.56,1,0.56c0.31,0,0.61-0.19,0.91-0.56c0.3-0.36,0.55-0.85,0.78-1.49l2.15,1.09c-0.32,0.93-0.78,1.67-1.37,2.21
	c-0.59,0.54-1.24,0.82-1.94,0.82c-0.7,0-1.35-0.27-1.94-0.82C202.13,11.7,201.68,10.97,201.35,10.03z M202.3,16.02v-1.86h4.57v1.86
	h-0.9v9.78h-2.77v-9.78H202.3z M192.12,22.31l1.11-0.58c0.12,0.56,0.29,1.01,0.5,1.35c0.22,0.34,0.45,0.51,0.68,0.51
	c0.29,0,0.53-0.14,0.73-0.42c0.2-0.26,0.3-0.59,0.3-0.98c0-0.48-0.12-0.89-0.35-1.23c-0.23-0.34-0.51-0.51-0.83-0.51v-1.86
	c0.29,0,0.53-0.14,0.73-0.42c0.2-0.26,0.3-0.59,0.3-0.98c0-0.33-0.07-0.6-0.22-0.81c-0.15-0.23-0.33-0.35-0.54-0.35
	c-0.15,0-0.31,0.07-0.5,0.21c-0.19,0.14-0.4,0.34-0.61,0.61l-0.69-1.16c0.3-0.48,0.65-0.85,1.05-1.12c0.42-0.26,0.85-0.4,1.3-0.4
	c0.86,0,1.59,0.29,2.2,0.86c0.61,0.56,0.91,1.24,0.91,2.05c0,0.45-0.11,0.88-0.32,1.28c-0.22,0.4-0.51,0.71-0.86,0.93
	c0.28,0.11,0.51,0.29,0.71,0.54c0.19,0.25,0.33,0.54,0.4,0.86h0.76v-4.66h-0.28v-1.86h3.95v1.86h-0.9v9.78h-2.77v-3.14h-0.69
	c0,0.87-0.3,1.61-0.89,2.21c-0.6,0.62-1.32,0.93-2.16,0.93c-0.74,0-1.39-0.33-1.97-0.98C192.62,24.17,192.26,23.33,192.12,22.31z
	 M185.94,19.05h5.31v1.86h-5.31V19.05z M178.67,8.33h2.29c0.19,0,0.39,0.1,0.58,0.3c0.19,0.2,0.37,0.49,0.53,0.86l1.11,2.33
	c0.06,0.14,0.17,0.26,0.32,0.35c0.15,0.08,0.32,0.12,0.51,0.12v1.86h-2.08c-0.14,0-0.28-0.09-0.43-0.26
	c-0.15-0.16-0.28-0.38-0.4-0.68l-1.18-2.45c-0.06-0.14-0.13-0.26-0.22-0.35c-0.08-0.08-0.17-0.12-0.26-0.12h-0.76V8.33z
	 M180.67,16.02v-1.86h4.57v1.86h-0.9v9.78h-2.77v-9.78H180.67z M168.26,16.02v-1.86h12.69v1.86h-5.06v2.45
	c0.18-0.26,0.42-0.47,0.72-0.61c0.31-0.14,0.64-0.21,1.01-0.21c0.8,0,1.49,0.35,2.05,1.05c0.57,0.71,0.86,1.57,0.86,2.56
	c0,1.2-0.36,2.16-1.09,2.89c-0.73,0.71-1.7,1.07-2.92,1.07v-2.1c0.3,0,0.57-0.16,0.79-0.49c0.21-0.31,0.32-0.69,0.32-1.14
	c0-0.36-0.09-0.66-0.26-0.91c-0.18-0.25-0.39-0.37-0.64-0.37c-0.17,0-0.32,0.04-0.46,0.12c-0.14,0.08-0.26,0.19-0.37,0.35v5.12
	h-2.77v-2.45c-0.32,0.45-0.67,0.8-1.05,1.05c-0.38,0.23-0.77,0.35-1.16,0.35c-0.61,0-1.13-0.34-1.57-1.02
	c-0.43-0.68-0.65-1.51-0.65-2.47c0-1.2,0.36-2.16,1.08-2.89c0.72-0.71,1.68-1.07,2.87-1.07v1.75c-0.31,0-0.57,0.15-0.76,0.44
	c-0.18,0.3-0.28,0.69-0.28,1.19c0,0.36,0.08,0.66,0.25,0.91c0.16,0.25,0.35,0.37,0.58,0.37c0.11,0,0.23-0.05,0.35-0.14
	c0.12-0.11,0.24-0.26,0.35-0.44v-5.36H168.26z M155.17,16.02v-1.86h10.32v1.86h-0.9v9.78h-2.77v-6.4h-2.7
	c-0.18,0-0.32,0.16-0.44,0.49c-0.12,0.31-0.18,0.69-0.18,1.14c0,0.33,0.06,0.6,0.18,0.82c0.12,0.23,0.27,0.35,0.44,0.35
	c0.18,0,0.32-0.12,0.44-0.35c0.12-0.22,0.18-0.49,0.18-0.82h1.25c0,0.96-0.27,1.79-0.82,2.47c-0.54,0.68-1.19,1.02-1.95,1.02
	c-0.73,0-1.35-0.34-1.86-1.02c-0.52-0.68-0.78-1.51-0.78-2.47c0-0.99,0.26-1.85,0.78-2.56c0.51-0.7,1.13-1.05,1.86-1.05h3.6v-1.4
	H155.17z M150.73,11.29c0-0.81,0.28-1.49,0.85-2.05c0.56-0.57,1.25-0.86,2.05-0.86c0.58,0,1.08,0.05,1.48,0.16
	c0.41,0.09,0.71,0.24,0.91,0.44l-0.51,1.75c-0.26-0.25-0.61-0.37-1.05-0.37c-0.29,0-0.54,0.14-0.75,0.42
	c-0.2,0.26-0.3,0.59-0.3,0.98c0,0.53,0.14,1.02,0.42,1.47c0.27,0.43,0.62,0.75,1.05,0.93h-2.8c-0.42-0.34-0.74-0.77-0.98-1.28
	C150.85,12.36,150.73,11.83,150.73,11.29z M148.94,19.16c-0.05,0.09-0.07,0.44-0.07,1.05v0.12c0,0.64,0.1,1.19,0.29,1.65
	c0.18,0.45,0.41,0.68,0.68,0.68c0.21,0,0.44-0.08,0.69-0.23L148.94,19.16z M145.51,16.02v-1.86h9.88v1.86h-0.9v9.78h-2.77v-2.79
	c-0.3,0.59-0.68,1.05-1.16,1.37c-0.49,0.33-1.02,0.49-1.61,0.49c-0.91,0-1.63-0.38-2.16-1.14c-0.55-0.76-0.82-1.78-0.82-3.05
	c0-1.23,0.3-2.21,0.89-2.96c0.59-0.75,1.38-1.12,2.37-1.12c0.37,0,0.78,0.1,1.25,0.3c0.46,0.22,0.74,0.43,0.83,0.63l-0.76,1.4
	c-0.11-0.16-0.22-0.27-0.32-0.35c-0.11-0.08-0.21-0.12-0.3-0.12c-0.06,0-0.13-0.01-0.21-0.02c-0.07,0-0.12,0.01-0.14,0.02l1.52,3.38
	c0.3-0.29,0.5-0.64,0.62-1.05v-4.77H145.51z M135.32,22.31l1.11-0.58c0.12,0.56,0.29,1.01,0.5,1.35c0.22,0.34,0.45,0.51,0.68,0.51
	c0.29,0,0.53-0.14,0.73-0.42c0.2-0.26,0.3-0.59,0.3-0.98c0-0.48-0.12-0.89-0.35-1.23c-0.23-0.34-0.51-0.51-0.83-0.51v-1.86
	c0.29,0,0.53-0.14,0.73-0.42c0.2-0.26,0.3-0.59,0.3-0.98c0-0.33-0.07-0.6-0.22-0.81c-0.15-0.23-0.33-0.35-0.54-0.35
	c-0.15,0-0.31,0.07-0.5,0.21c-0.19,0.14-0.4,0.34-0.61,0.61l-0.69-1.16c0.3-0.48,0.65-0.85,1.05-1.12c0.42-0.26,0.85-0.4,1.3-0.4
	c0.86,0,1.59,0.29,2.2,0.86c0.61,0.56,0.91,1.24,0.91,2.05c0,0.45-0.11,0.88-0.32,1.28c-0.22,0.4-0.51,0.71-0.86,0.93
	c0.28,0.11,0.51,0.29,0.71,0.54c0.19,0.25,0.33,0.54,0.4,0.86h0.76v-4.66h-0.28v-1.86h3.95v1.86h-0.9v9.78h-2.77v-3.14h-0.69
	c0,0.87-0.3,1.61-0.89,2.21c-0.6,0.62-1.32,0.93-2.16,0.93c-0.74,0-1.39-0.33-1.97-0.98C135.83,24.17,135.47,23.33,135.32,22.31z
	 M127.73,16.02v-1.86h4.57v1.86h-0.9v9.78h-2.77v-9.78H127.73z M121.35,16.02v-1.86h6.66v1.86h-1.18c0.21,0.2,0.38,0.47,0.51,0.82
	c0.12,0.33,0.18,0.68,0.18,1.05c0,0.99-0.26,1.85-0.78,2.56c-0.51,0.7-1.13,1.05-1.86,1.05c0.16,0.73,0.36,1.32,0.62,1.77
	c0.25,0.45,0.5,0.68,0.76,0.68c0.13,0,0.25-0.04,0.37-0.12c0.12-0.08,0.23-0.19,0.32-0.35l0.55,1.28c-0.21,0.37-0.51,0.66-0.9,0.86
	c-0.38,0.2-0.82,0.3-1.32,0.3c-0.62,0-1.17-0.2-1.65-0.61c-0.48-0.4-0.81-0.94-0.98-1.61c-0.2-0.78-0.39-1.37-0.55-1.77
	c-0.18-0.43-0.35-0.66-0.48-0.68l0.48-2.1c0.29,0.23,0.63,0.35,1.04,0.35c0.4,0,0.74-0.16,1.02-0.49c0.29-0.31,0.43-0.69,0.43-1.14
	c0-0.51-0.12-0.96-0.36-1.33c-0.25-0.36-0.54-0.54-0.89-0.54H121.35z M110.05,16.02v-1.86h11.58v1.86h-0.9v9.78h-2.77v-6.29h-1.39
	c0.18,0.37,0.32,0.68,0.42,0.91c0.09,0.26,0.14,0.47,0.14,0.61c0,1.09-0.3,2.02-0.89,2.79c-0.6,0.78-1.32,1.16-2.16,1.16
	c-0.94,0-1.75-0.55-2.42-1.65c-0.68-1.1-1.12-2.57-1.32-4.4h1.18c0.19,1.16,0.47,2.1,0.83,2.79c0.35,0.7,0.72,1.05,1.11,1.05
	c0.21,0,0.39-0.16,0.54-0.49c0.15-0.31,0.22-0.69,0.22-1.14c0-0.39-0.09-0.74-0.28-1.05c-0.18-0.31-0.42-0.5-0.69-0.58V17.3h4.71
	v-1.28H110.05z M105.75,16.02v-1.86h4.57v1.86h-0.9v9.78h-2.77v-9.78H105.75z M95.57,22.31l1.11-0.58c0.12,0.56,0.29,1.01,0.5,1.35
	c0.22,0.34,0.45,0.51,0.68,0.51c0.29,0,0.53-0.14,0.73-0.42c0.2-0.26,0.3-0.59,0.3-0.98c0-0.48-0.12-0.89-0.35-1.23
	c-0.23-0.34-0.51-0.51-0.83-0.51v-1.86c0.29,0,0.53-0.14,0.73-0.42c0.2-0.26,0.3-0.59,0.3-0.98c0-0.33-0.07-0.6-0.22-0.81
	c-0.15-0.23-0.33-0.35-0.54-0.35c-0.15,0-0.31,0.07-0.5,0.21c-0.19,0.14-0.4,0.34-0.61,0.61l-0.69-1.16
	c0.3-0.48,0.65-0.85,1.05-1.12c0.42-0.26,0.85-0.4,1.3-0.4c0.86,0,1.59,0.29,2.2,0.86c0.61,0.56,0.91,1.24,0.91,2.05
	c0,0.45-0.11,0.88-0.32,1.28c-0.22,0.4-0.51,0.71-0.86,0.93c0.28,0.11,0.51,0.29,0.71,0.54c0.19,0.25,0.33,0.54,0.4,0.86h0.76v-4.66
	h-0.28v-1.86h3.95v1.86h-0.9v9.78h-2.77v-3.14h-0.69c0,0.87-0.3,1.61-0.89,2.21c-0.6,0.62-1.32,0.93-2.16,0.93
	c-0.74,0-1.39-0.33-1.97-0.98C96.08,24.17,95.72,23.33,95.57,22.31z M84.3,16.02v-1.86h8.26v1.86h-1.09v2.91h-2.91
	c-0.25,0-0.46,0.16-0.64,0.49c-0.18,0.31-0.26,0.69-0.26,1.14c0,0.64,0.1,1.14,0.3,1.51c0.2,0.39,0.47,0.58,0.8,0.58
	c0-0.51,0.16-0.95,0.48-1.33c0.32-0.36,0.72-0.54,1.18-0.54c0.5,0,0.92,0.22,1.27,0.65c0.35,0.43,0.53,0.96,0.53,1.56
	c0,0.36-0.08,0.7-0.25,1.02c-0.17,0.31-0.38,0.55-0.65,0.72l0.55,2.91h-2.7l-0.49-2.91h-0.69c-0.99,0-1.78-0.37-2.37-1.12
	c-0.59-0.75-0.89-1.73-0.89-2.96c0-1.09,0.24-1.96,0.71-2.63c0.46-0.65,1.08-0.98,1.86-0.98h1.38v-1.05H84.3z M80,16.02v-1.86h0.9
	c-0.11-0.19-0.2-0.43-0.26-0.75c-0.06-0.3-0.08-0.63-0.08-1c0-1.06,0.33-1.96,1-2.72c0.67-0.74,1.46-1.12,2.4-1.12
	c1.2,0,2.34,0.46,3.42,1.37c1.07,0.93,1.96,2.22,2.67,3.87H88.8c-0.52-1.04-1.13-1.84-1.84-2.4c-0.72-0.57-1.47-0.86-2.24-0.86
	c-0.34,0-0.64,0.22-0.89,0.65c-0.24,0.43-0.36,0.96-0.36,1.56c0,0.37,0.02,0.68,0.07,0.93c0.06,0.26,0.12,0.42,0.21,0.47h0.83v1.86
	h-0.9v9.78H80.9v-9.78H80z"/>
<path class="st9" d="M360.53,13.08l1.68-1.96c0.81,1.15,1.45,2.51,1.9,4.08c0.45,1.57,0.68,3.2,0.68,4.89
	c0,1.71-0.21,3.32-0.62,4.84c-0.42,1.54-1,2.83-1.75,3.89l-1.62-2.12c0.42-0.59,0.74-1.46,0.97-2.61c0.23-1.16,0.35-2.5,0.35-4.01
	c0-1.52-0.14-2.9-0.42-4.12C361.42,14.75,361.03,13.78,360.53,13.08"/>
</svg>
